<svg width="509" height="605" viewBox="0 0 509 605" fill="none" xmlns="http://www.w3.org/2000/svg">
<path d="M573.605 160.342L556.977 157.073L568.099 100.488C568.977 96.0236 565.628 91.6064 560.618 90.6216L451.781 69.229C446.771 68.2442 442 71.0656 441.122 75.5299L430 132.115L398.256 125.876L409.378 69.2904C410.255 64.826 406.907 60.4088 401.897 59.424L293.059 38.0314C288.05 37.0468 283.278 39.868 282.401 44.3323L271.278 100.918L239.534 94.6782L250.656 38.0928C251.534 33.6284 248.184 29.2109 243.175 28.2264L134.338 6.83376C129.329 5.84922 124.557 8.67035 123.679 13.1347L112.557 69.7202L95.929 66.4518C90.9201 65.4673 86.1478 68.2884 85.2703 72.7528L1.58906 498.491C0.711571 502.955 4.06102 507.373 9.06997 508.357L486.746 602.247C491.756 603.232 496.527 600.411 497.405 595.946L581.086 170.208C581.963 165.744 578.615 161.327 573.605 160.342ZM457.673 87.179L548.371 105.006L538.837 153.508L448.139 135.681L457.673 87.179ZM298.951 55.9814L389.649 73.8086L380.116 122.31L289.418 104.483L298.951 55.9814ZM140.23 24.7838L230.928 42.611L221.395 91.1128L130.697 73.2856L140.23 24.7838ZM21.3175 493.973L59.9804 297.271L87.1898 302.619C92.1987 303.604 96.971 300.783 97.8485 296.318C98.726 291.854 95.3765 287.436 90.3676 286.452L63.1582 281.104L101.821 84.4018L561.357 174.726L522.695 371.428L126.647 293.583C121.638 292.598 116.866 295.419 115.988 299.884C115.111 304.348 118.46 308.765 123.469 309.75L519.517 387.595L480.854 584.297L21.3175 493.973Z" fill="#0F1220"/>
<path d="M474.499 233.218C479.508 234.202 484.28 231.381 485.158 226.917C486.035 222.452 482.686 218.035 477.677 217.05C472.668 216.066 467.896 218.887 467.018 223.351C466.141 227.816 469.49 232.233 474.499 233.218Z" fill="#0F1220"/>
<path d="M431.865 258.421C436.874 259.405 441.646 256.584 442.523 252.12C443.401 247.655 440.052 243.238 435.042 242.253C430.033 241.269 425.261 244.09 424.384 248.554C423.506 253.019 426.856 257.436 431.865 258.421Z" fill="#0F1220"/>
<path d="M104.998 451.649C110.007 452.633 114.779 449.812 115.657 445.348C116.534 440.883 113.185 436.466 108.176 435.481C103.167 434.497 98.3946 437.318 97.5171 441.782C96.6396 446.247 99.9889 450.664 104.998 451.649Z" fill="#0F1220"/>
</svg>
