<svg width="56" height="55" viewBox="0 0 56 55" fill="none" xmlns="http://www.w3.org/2000/svg">
<path d="M3.14881 34.9662C-1.0496 30.8427 -1.0496 24.1573 3.14881 20.0338L20.3981 3.09258C24.5965 -1.03086 31.4035 -1.03086 35.6019 3.09258L52.8512 20.0338C57.0496 24.1573 57.0496 30.8427 52.8512 34.9662L35.6019 51.9074C31.4035 56.0309 24.5965 56.0309 20.3981 51.9074L3.14881 34.9662Z" fill="#146CD2"/>
<path d="M28.25 17.2646C31.6667 22.3794 35.0833 28.9018 35.0833 32.4108C35.0833 34.5139 34.3634 36.5309 33.0819 38.0181C31.8004 39.5052 30.0623 40.3407 28.25 40.3407C26.4377 40.3407 24.6996 39.5052 23.4181 38.0181C22.1366 36.5309 21.4167 34.5139 21.4167 32.4108C21.4167 28.9018 24.8333 22.3794 28.25 17.2646ZM28.25 11C28.25 11 18 24.4809 18 32.4108C18 35.5655 19.0799 38.591 21.0022 40.8217C22.9244 43.0525 25.5315 44.3057 28.25 44.3057C30.9685 44.3057 33.5756 43.0525 35.4978 40.8217C37.4201 38.591 38.5 35.5655 38.5 32.4108C38.5 24.4809 28.25 11 28.25 11Z" fill="#040610"/>
</svg>
