<svg width="546" height="309" viewBox="0 0 546 309" fill="none" xmlns="http://www.w3.org/2000/svg">
<path d="M318 165.588C318 179.623 306.487 191 292.286 191H268.5M283.714 141.622C286.395 140.686 289.28 140.176 292.286 140.176C295.232 140.176 298.062 140.666 300.698 141.567M300.698 141.567C299.267 128.872 288.372 119 275.143 119C260.941 119 249.429 130.377 249.429 144.412C249.429 147.516 249.992 150.49 251.023 153.24M300.698 141.567C303.771 142.618 306.58 144.229 309 146.276M251.023 153.24C249.814 153.005 248.564 152.882 247.286 152.882C236.635 152.882 228 161.415 228 171.941C228 182.467 236.635 191 247.286 191H250.5M251.023 153.24C253.563 153.733 255.924 154.718 258 156.092" stroke="white" stroke-width="4" stroke-linecap="round"/>
<path fill-rule="evenodd" clip-rule="evenodd" d="M80 123H6C4.89543 123 4 123.895 4 125V169.842C4 170.947 4.89543 171.842 6 171.842H80C81.1046 171.842 82 170.947 82 169.842V125C82 123.895 81.1046 123 80 123ZM6 119C2.68629 119 0 121.686 0 125V169.842C0 173.156 2.68629 175.842 6 175.842H36V186H17C15.8954 186 15 186.895 15 188C15 189.105 15.8954 190 17 190H70C71.1046 190 72 189.105 72 188C72 186.895 71.1046 186 70 186H50V175.842H80C83.3137 175.842 86 173.156 86 169.842V125C86 121.686 83.3137 119 80 119H6Z" fill="white"/>
<path fill-rule="evenodd" clip-rule="evenodd" d="M80 242H6C4.89543 242 4 242.895 4 244V288.842C4 289.947 4.89543 290.842 6 290.842H80C81.1046 290.842 82 289.947 82 288.842V244C82 242.895 81.1046 242 80 242ZM6 238C2.68629 238 0 240.686 0 244V288.842C0 292.156 2.68629 294.842 6 294.842H36V305H17C15.8954 305 15 305.895 15 307C15 308.105 15.8954 309 17 309H70C71.1046 309 72 308.105 72 307C72 305.895 71.1046 305 70 305H50V294.842H80C83.3137 294.842 86 292.156 86 288.842V244C86 240.686 83.3137 238 80 238H6Z" fill="white"/>
<path fill-rule="evenodd" clip-rule="evenodd" d="M80 4H6C4.89543 4 4 4.89543 4 6V50.8421C4 51.9467 4.89543 52.8421 6 52.8421H80C81.1046 52.8421 82 51.9467 82 50.8421V6C82 4.89543 81.1046 4 80 4ZM6 0C2.68629 0 0 2.68629 0 6V50.8421C0 54.1558 2.68629 56.8421 6 56.8421H36V67H17C15.8954 67 15 67.8954 15 69C15 70.1046 15.8954 71 17 71H70C71.1046 71 72 70.1046 72 69C72 67.8954 71.1046 67 70 67H50V56.8421H80C83.3137 56.8421 86 54.1558 86 50.8421V6C86 2.68629 83.3137 0 80 0H6Z" fill="white"/>
<rect x="461.5" y="119.5" width="83" height="18" rx="2.5" stroke="white" stroke-width="3"/>
<rect x="461.5" y="144.5" width="83" height="18" rx="2.5" stroke="white" stroke-width="3"/>
<rect x="461.5" y="170.5" width="83" height="18" rx="2.5" stroke="white" stroke-width="3"/>
<circle cx="530.5" cy="128.5" r="3.5" fill="white"/>
<circle cx="530.5" cy="153.5" r="3.5" fill="white"/>
<circle cx="530.5" cy="179.5" r="3.5" fill="white"/>
<rect x="468" y="124" width="14" height="3" rx="1.5" fill="white"/>
<rect x="468" y="130" width="14" height="3" rx="1.5" fill="white"/>
<rect x="468" y="149" width="14" height="3" rx="1.5" fill="white"/>
<rect x="468" y="155" width="14" height="3" rx="1.5" fill="white"/>
<rect x="468" y="175" width="14" height="3" rx="1.5" fill="white"/>
<rect x="468" y="181" width="14" height="3" rx="1.5" fill="white"/>
<path d="M113 144H200M200 144L191 138M200 144L191 150" stroke="#73799B" stroke-width="4" stroke-linecap="round"/>
<path d="M200 164H113M113 164L122 158M113 164L122 170" stroke="#303346" stroke-width="4" stroke-linecap="round"/>
<path d="M131.927 39.1962L207.271 82.6962M207.271 82.6962L202.477 73M207.271 82.6962L196.477 83.3923" stroke="#73799B" stroke-width="4" stroke-linecap="round"/>
<path d="M197.344 100.058L122 56.5582M122 56.5582L132.794 55.8621M122 56.5582L126.794 66.2544" stroke="#303346" stroke-width="4" stroke-linecap="round"/>
<path d="M122 251.696L197.344 208.196M197.344 208.196L186.55 207.5M197.344 208.196L192.55 217.892" stroke="#73799B" stroke-width="4" stroke-linecap="round"/>
<path d="M207.344 225.517L132 269.017M132 269.017L136.794 259.321M132 269.017L142.794 269.713" stroke="#303346" stroke-width="4" stroke-linecap="round"/>
<path d="M344 144H431M431 144L422 138M431 144L422 150" stroke="#73799B" stroke-width="4" stroke-linecap="round"/>
<path d="M431 164H344M344 164L353 158M344 164L353 170" stroke="#303346" stroke-width="4" stroke-linecap="round"/>
<path d="M341.455 247.8H346.065C346.779 247.8 347.425 247.95 348.005 248.25C348.592 248.543 349.059 248.977 349.405 249.55C349.759 250.117 349.935 250.81 349.935 251.63C349.935 252.443 349.772 253.117 349.445 253.65C349.125 254.183 348.739 254.587 348.285 254.86C347.832 255.127 347.412 255.273 347.025 255.3L350.295 261H348.355L345.295 255.42H343.165V261H341.455V247.8ZM343.165 254.15H345.465C346.252 254.15 346.902 253.953 347.415 253.56C347.929 253.167 348.185 252.537 348.185 251.67C348.185 250.803 347.929 250.18 347.415 249.8C346.909 249.42 346.262 249.23 345.475 249.23H343.165V254.15ZM353.589 257.25C353.596 257.743 353.703 258.193 353.909 258.6C354.116 259.007 354.423 259.33 354.829 259.57C355.243 259.81 355.749 259.93 356.349 259.93C356.856 259.93 357.286 259.857 357.639 259.71C357.999 259.557 358.293 259.377 358.519 259.17C358.746 258.957 358.909 258.767 359.009 258.6L359.859 259.65C359.639 259.97 359.369 260.25 359.049 260.49C358.736 260.73 358.353 260.913 357.899 261.04C357.446 261.173 356.893 261.24 356.239 261.24C355.359 261.24 354.596 261.053 353.949 260.68C353.309 260.3 352.816 259.777 352.469 259.11C352.123 258.437 351.949 257.667 351.949 256.8C351.949 256 352.113 255.28 352.439 254.64C352.766 253.993 353.239 253.483 353.859 253.11C354.486 252.737 355.239 252.55 356.119 252.55C356.926 252.55 357.626 252.72 358.219 253.06C358.819 253.393 359.283 253.867 359.609 254.48C359.943 255.093 360.109 255.827 360.109 256.68C360.109 256.733 360.106 256.83 360.099 256.97C360.093 257.103 360.086 257.197 360.079 257.25H353.589ZM358.449 255.94C358.443 255.667 358.363 255.367 358.209 255.04C358.063 254.713 357.823 254.433 357.489 254.2C357.156 253.967 356.706 253.85 356.139 253.85C355.553 253.85 355.079 253.963 354.719 254.19C354.366 254.417 354.106 254.693 353.939 255.02C353.773 255.34 353.676 255.647 353.649 255.94H358.449ZM365.95 265.39C365.304 265.39 364.717 265.323 364.19 265.19C363.67 265.057 363.214 264.867 362.82 264.62C362.434 264.38 362.124 264.097 361.89 263.77L363.03 262.68C363.157 262.853 363.327 263.037 363.54 263.23C363.76 263.43 364.057 263.6 364.43 263.74C364.804 263.88 365.29 263.95 365.89 263.95C366.477 263.95 366.974 263.823 367.38 263.57C367.787 263.323 368.097 262.987 368.31 262.56C368.524 262.133 368.63 261.653 368.63 261.12V260.85H370.33V261.23C370.33 262.137 370.134 262.897 369.74 263.51C369.354 264.13 368.83 264.597 368.17 264.91C367.51 265.23 366.77 265.39 365.95 265.39ZM368.63 261V259.4C368.577 259.567 368.42 259.797 368.16 260.09C367.907 260.383 367.557 260.65 367.11 260.89C366.67 261.123 366.15 261.24 365.55 261.24C364.79 261.24 364.1 261.06 363.48 260.7C362.867 260.34 362.377 259.837 362.01 259.19C361.65 258.537 361.47 257.773 361.47 256.9C361.47 256.027 361.65 255.267 362.01 254.62C362.377 253.967 362.867 253.46 363.48 253.1C364.1 252.733 364.79 252.55 365.55 252.55C366.144 252.55 366.657 252.657 367.09 252.87C367.53 253.083 367.88 253.33 368.14 253.61C368.407 253.89 368.564 254.13 368.61 254.33V252.79H370.33V261H368.63ZM363.19 256.9C363.19 257.493 363.32 258.007 363.58 258.44C363.84 258.873 364.177 259.21 364.59 259.45C365.01 259.683 365.457 259.8 365.93 259.8C366.437 259.8 366.89 259.68 367.29 259.44C367.69 259.2 368.007 258.863 368.24 258.43C368.474 257.99 368.59 257.48 368.59 256.9C368.59 256.32 368.474 255.813 368.24 255.38C368.007 254.94 367.69 254.6 367.29 254.36C366.89 254.113 366.437 253.99 365.93 253.99C365.457 253.99 365.01 254.11 364.59 254.35C364.177 254.59 363.84 254.927 363.58 255.36C363.32 255.793 363.19 256.307 363.19 256.9ZM379.334 261V259.4C379.28 259.567 379.124 259.797 378.864 260.09C378.61 260.383 378.26 260.65 377.814 260.89C377.374 261.123 376.854 261.24 376.254 261.24C375.494 261.24 374.804 261.06 374.184 260.7C373.57 260.34 373.08 259.837 372.714 259.19C372.354 258.537 372.174 257.773 372.174 256.9C372.174 256.027 372.354 255.267 372.714 254.62C373.08 253.967 373.57 253.46 374.184 253.1C374.804 252.733 375.494 252.55 376.254 252.55C376.847 252.55 377.36 252.657 377.794 252.87C378.234 253.083 378.584 253.33 378.844 253.61C379.11 253.89 379.267 254.13 379.314 254.33V252.79H381.034V261H379.334ZM373.894 256.9C373.894 257.493 374.024 258.007 374.284 258.44C374.544 258.873 374.88 259.21 375.294 259.45C375.714 259.683 376.16 259.8 376.634 259.8C377.14 259.8 377.594 259.68 377.994 259.44C378.394 259.2 378.71 258.863 378.944 258.43C379.177 257.99 379.294 257.48 379.294 256.9C379.294 256.32 379.177 255.813 378.944 255.38C378.71 254.94 378.394 254.6 377.994 254.36C377.594 254.113 377.14 253.99 376.634 253.99C376.16 253.99 375.714 254.11 375.294 254.35C374.88 254.59 374.544 254.927 374.284 255.36C374.024 255.793 373.894 256.307 373.894 256.9ZM385.069 261H383.339V252.79H385.069V254.21H385.019C385.052 254.037 385.175 253.82 385.389 253.56C385.602 253.3 385.895 253.067 386.269 252.86C386.642 252.653 387.089 252.55 387.609 252.55C387.989 252.55 388.322 252.603 388.609 252.71C388.902 252.81 389.109 252.91 389.229 253.01L388.519 254.45C388.425 254.357 388.262 254.263 388.029 254.17C387.795 254.07 387.505 254.02 387.159 254.02C386.719 254.02 386.342 254.157 386.029 254.43C385.715 254.703 385.475 255.033 385.309 255.42C385.149 255.8 385.069 256.153 385.069 256.48V261ZM393.795 261.24C393.042 261.24 392.365 261.06 391.765 260.7C391.172 260.34 390.702 259.837 390.355 259.19C390.015 258.537 389.845 257.773 389.845 256.9C389.845 256.027 390.015 255.267 390.355 254.62C390.702 253.967 391.172 253.46 391.765 253.1C392.365 252.733 393.042 252.55 393.795 252.55C394.402 252.55 394.935 252.657 395.395 252.87C395.855 253.077 396.222 253.32 396.495 253.6C396.768 253.88 396.925 254.123 396.965 254.33V247.24H398.715V261H396.995V259.4C396.922 259.627 396.738 259.883 396.445 260.17C396.158 260.457 395.788 260.707 395.335 260.92C394.882 261.133 394.368 261.24 393.795 261.24ZM394.195 259.8C394.702 259.8 395.165 259.68 395.585 259.44C396.005 259.2 396.338 258.863 396.585 258.43C396.838 257.99 396.965 257.48 396.965 256.9C396.965 256.32 396.838 255.813 396.585 255.38C396.338 254.94 396.005 254.6 395.585 254.36C395.165 254.113 394.702 253.99 394.195 253.99C393.728 253.99 393.295 254.11 392.895 254.35C392.495 254.59 392.172 254.927 391.925 255.36C391.685 255.793 391.565 256.307 391.565 256.9C391.565 257.493 391.685 258.007 391.925 258.44C392.172 258.873 392.495 259.21 392.895 259.45C393.295 259.683 393.728 259.8 394.195 259.8ZM402.473 261H400.723V247.24H402.473V261ZM406.07 257.25C406.076 257.743 406.183 258.193 406.39 258.6C406.596 259.007 406.903 259.33 407.31 259.57C407.723 259.81 408.23 259.93 408.83 259.93C409.336 259.93 409.766 259.857 410.12 259.71C410.48 259.557 410.773 259.377 411 259.17C411.226 258.957 411.39 258.767 411.49 258.6L412.34 259.65C412.12 259.97 411.85 260.25 411.53 260.49C411.216 260.73 410.833 260.913 410.38 261.04C409.926 261.173 409.373 261.24 408.72 261.24C407.84 261.24 407.076 261.053 406.43 260.68C405.79 260.3 405.296 259.777 404.95 259.11C404.603 258.437 404.43 257.667 404.43 256.8C404.43 256 404.593 255.28 404.92 254.64C405.246 253.993 405.72 253.483 406.34 253.11C406.966 252.737 407.72 252.55 408.6 252.55C409.406 252.55 410.106 252.72 410.7 253.06C411.3 253.393 411.763 253.867 412.09 254.48C412.423 255.093 412.59 255.827 412.59 256.68C412.59 256.733 412.586 256.83 412.58 256.97C412.573 257.103 412.566 257.197 412.56 257.25H406.07ZM410.93 255.94C410.923 255.667 410.843 255.367 410.69 255.04C410.543 254.713 410.303 254.433 409.97 254.2C409.636 253.967 409.186 253.85 408.62 253.85C408.033 253.85 407.56 253.963 407.2 254.19C406.846 254.417 406.586 254.693 406.42 255.02C406.253 255.34 406.156 255.647 406.13 255.94H410.93ZM417.591 252.55C418.018 252.55 418.414 252.593 418.781 252.68C419.154 252.767 419.474 252.87 419.741 252.99C420.014 253.11 420.208 253.217 420.321 253.31L419.631 254.41C419.498 254.29 419.258 254.157 418.911 254.01C418.564 253.857 418.178 253.78 417.751 253.78C417.284 253.78 416.888 253.873 416.561 254.06C416.234 254.24 416.071 254.503 416.071 254.85C416.071 255.197 416.238 255.473 416.571 255.68C416.911 255.88 417.364 256.047 417.931 256.18C418.384 256.287 418.808 256.43 419.201 256.61C419.601 256.79 419.924 257.04 420.171 257.36C420.418 257.673 420.541 258.093 420.541 258.62C420.541 259.1 420.441 259.51 420.241 259.85C420.041 260.183 419.771 260.453 419.431 260.66C419.091 260.86 418.711 261.007 418.291 261.1C417.871 261.193 417.444 261.24 417.011 261.24C416.504 261.24 416.048 261.187 415.641 261.08C415.234 260.98 414.891 260.86 414.611 260.72C414.338 260.573 414.138 260.447 414.011 260.34L414.701 259.1C414.874 259.267 415.158 259.443 415.551 259.63C415.951 259.817 416.404 259.91 416.911 259.91C417.471 259.91 417.924 259.793 418.271 259.56C418.618 259.32 418.791 259.01 418.791 258.63C418.791 258.343 418.708 258.113 418.541 257.94C418.374 257.767 418.151 257.627 417.871 257.52C417.591 257.413 417.284 257.32 416.951 257.24C416.631 257.167 416.318 257.07 416.011 256.95C415.711 256.83 415.434 256.677 415.181 256.49C414.934 256.297 414.738 256.063 414.591 255.79C414.444 255.51 414.371 255.183 414.371 254.81C414.371 254.337 414.521 253.933 414.821 253.6C415.121 253.26 415.514 253 416.001 252.82C416.488 252.64 417.018 252.55 417.591 252.55ZM425.638 252.55C426.064 252.55 426.461 252.593 426.828 252.68C427.201 252.767 427.521 252.87 427.788 252.99C428.061 253.11 428.254 253.217 428.368 253.31L427.678 254.41C427.544 254.29 427.304 254.157 426.958 254.01C426.611 253.857 426.224 253.78 425.798 253.78C425.331 253.78 424.934 253.873 424.608 254.06C424.281 254.24 424.118 254.503 424.118 254.85C424.118 255.197 424.284 255.473 424.618 255.68C424.958 255.88 425.411 256.047 425.978 256.18C426.431 256.287 426.854 256.43 427.248 256.61C427.648 256.79 427.971 257.04 428.218 257.36C428.464 257.673 428.588 258.093 428.588 258.62C428.588 259.1 428.488 259.51 428.288 259.85C428.088 260.183 427.818 260.453 427.478 260.66C427.138 260.86 426.758 261.007 426.338 261.1C425.918 261.193 425.491 261.24 425.058 261.24C424.551 261.24 424.094 261.187 423.688 261.08C423.281 260.98 422.938 260.86 422.658 260.72C422.384 260.573 422.184 260.447 422.058 260.34L422.748 259.1C422.921 259.267 423.204 259.443 423.598 259.63C423.998 259.817 424.451 259.91 424.958 259.91C425.518 259.91 425.971 259.793 426.318 259.56C426.664 259.32 426.838 259.01 426.838 258.63C426.838 258.343 426.754 258.113 426.588 257.94C426.421 257.767 426.198 257.627 425.918 257.52C425.638 257.413 425.331 257.32 424.998 257.24C424.678 257.167 424.364 257.07 424.058 256.95C423.758 256.83 423.481 256.677 423.228 256.49C422.981 256.297 422.784 256.063 422.638 255.79C422.491 255.51 422.418 255.183 422.418 254.81C422.418 254.337 422.568 253.933 422.868 253.6C423.168 253.26 423.561 253 424.048 252.82C424.534 252.64 425.064 252.55 425.638 252.55ZM439.385 261.24C438.538 261.24 437.785 261.05 437.125 260.67C436.472 260.29 435.958 259.777 435.585 259.13C435.212 258.477 435.025 257.74 435.025 256.92C435.025 256.1 435.212 255.36 435.585 254.7C435.958 254.04 436.472 253.517 437.125 253.13C437.785 252.743 438.538 252.55 439.385 252.55C440.225 252.55 440.968 252.743 441.615 253.13C442.268 253.517 442.778 254.04 443.145 254.7C443.512 255.36 443.695 256.1 443.695 256.92C443.695 257.74 443.512 258.477 443.145 259.13C442.778 259.777 442.268 260.29 441.615 260.67C440.968 261.05 440.225 261.24 439.385 261.24ZM439.385 259.75C439.918 259.75 440.382 259.627 440.775 259.38C441.175 259.133 441.485 258.797 441.705 258.37C441.925 257.937 442.035 257.45 442.035 256.91C442.035 256.37 441.925 255.883 441.705 255.45C441.485 255.017 441.175 254.673 440.775 254.42C440.382 254.167 439.918 254.04 439.385 254.04C438.845 254.04 438.375 254.167 437.975 254.42C437.575 254.673 437.262 255.017 437.035 255.45C436.815 255.883 436.705 256.37 436.705 256.91C436.705 257.45 436.815 257.937 437.035 258.37C437.262 258.797 437.575 259.133 437.975 259.38C438.375 259.627 438.845 259.75 439.385 259.75ZM444.776 252.79H446.456V250.46C446.456 249.627 446.599 248.957 446.886 248.45C447.179 247.943 447.549 247.577 447.996 247.35C448.449 247.117 448.913 247 449.386 247C449.959 247 450.399 247.08 450.706 247.24C451.019 247.4 451.206 247.507 451.266 247.56L450.566 248.89C450.533 248.85 450.429 248.777 450.256 248.67C450.083 248.563 449.846 248.51 449.546 248.51C449.326 248.51 449.113 248.563 448.906 248.67C448.699 248.777 448.526 248.983 448.386 249.29C448.246 249.597 448.176 250.053 448.176 250.66V252.79H450.516V254.28H448.176V261H446.456V254.28H444.776V252.79ZM460.48 259.41L463.25 252.79H464.99L459.45 265.16H457.69L459.55 261L456.17 252.79H457.94L460.48 259.41ZM470.108 261.24C469.261 261.24 468.508 261.05 467.848 260.67C467.194 260.29 466.681 259.777 466.308 259.13C465.934 258.477 465.748 257.74 465.748 256.92C465.748 256.1 465.934 255.36 466.308 254.7C466.681 254.04 467.194 253.517 467.848 253.13C468.508 252.743 469.261 252.55 470.108 252.55C470.948 252.55 471.691 252.743 472.338 253.13C472.991 253.517 473.501 254.04 473.868 254.7C474.234 255.36 474.418 256.1 474.418 256.92C474.418 257.74 474.234 258.477 473.868 259.13C473.501 259.777 472.991 260.29 472.338 260.67C471.691 261.05 470.948 261.24 470.108 261.24ZM470.108 259.75C470.641 259.75 471.104 259.627 471.498 259.38C471.898 259.133 472.208 258.797 472.428 258.37C472.648 257.937 472.758 257.45 472.758 256.91C472.758 256.37 472.648 255.883 472.428 255.45C472.208 255.017 471.898 254.673 471.498 254.42C471.104 254.167 470.641 254.04 470.108 254.04C469.568 254.04 469.098 254.167 468.698 254.42C468.298 254.673 467.984 255.017 467.758 255.45C467.538 255.883 467.428 256.37 467.428 256.91C467.428 257.45 467.538 257.937 467.758 258.37C467.984 258.797 468.298 259.133 468.698 259.38C469.098 259.627 469.568 259.75 470.108 259.75ZM477.977 256.93C477.977 257.79 478.16 258.477 478.527 258.99C478.9 259.497 479.47 259.75 480.237 259.75C481.01 259.75 481.58 259.497 481.947 258.99C482.314 258.477 482.497 257.79 482.497 256.93V252.79H484.217V257.17C484.217 257.97 484.06 258.677 483.747 259.29C483.44 259.903 482.99 260.383 482.397 260.73C481.81 261.07 481.09 261.24 480.237 261.24C479.39 261.24 478.67 261.07 478.077 260.73C477.49 260.383 477.04 259.903 476.727 259.29C476.42 258.677 476.267 257.97 476.267 257.17V252.79H477.977V256.93ZM488.291 261H486.561V252.79H488.291V254.21H488.241C488.275 254.037 488.398 253.82 488.611 253.56C488.825 253.3 489.118 253.067 489.491 252.86C489.865 252.653 490.311 252.55 490.831 252.55C491.211 252.55 491.545 252.603 491.831 252.71C492.125 252.81 492.331 252.91 492.451 253.01L491.741 254.45C491.648 254.357 491.485 254.263 491.251 254.17C491.018 254.07 490.728 254.02 490.381 254.02C489.941 254.02 489.565 254.157 489.251 254.43C488.938 254.703 488.698 255.033 488.531 255.42C488.371 255.8 488.291 256.153 488.291 256.48V261ZM500.314 265.16H498.584V252.79H500.344V254.33C500.404 254.123 500.571 253.88 500.844 253.6C501.117 253.32 501.484 253.077 501.944 252.87C502.411 252.657 502.944 252.55 503.544 252.55C504.304 252.55 504.977 252.733 505.564 253.1C506.157 253.46 506.621 253.967 506.954 254.62C507.294 255.267 507.464 256.027 507.464 256.9C507.464 257.773 507.291 258.537 506.944 259.19C506.597 259.837 506.124 260.34 505.524 260.7C504.931 261.06 504.251 261.24 503.484 261.24C502.864 261.24 502.321 261.123 501.854 260.89C501.394 260.657 501.031 260.393 500.764 260.1C500.504 259.807 500.354 259.573 500.314 259.4V265.16ZM505.744 256.9C505.744 256.307 505.621 255.793 505.374 255.36C505.134 254.927 504.814 254.59 504.414 254.35C504.014 254.11 503.581 253.99 503.114 253.99C502.601 253.99 502.134 254.113 501.714 254.36C501.294 254.6 500.961 254.94 500.714 255.38C500.467 255.813 500.344 256.32 500.344 256.9C500.344 257.48 500.467 257.99 500.714 258.43C500.961 258.863 501.294 259.2 501.714 259.44C502.134 259.68 502.601 259.8 503.114 259.8C503.581 259.8 504.014 259.683 504.414 259.45C504.814 259.21 505.134 258.873 505.374 258.44C505.621 258.007 505.744 257.493 505.744 256.9ZM511.087 261H509.337V247.24H511.087V261ZM520.193 261V259.4C520.14 259.567 519.983 259.797 519.723 260.09C519.47 260.383 519.12 260.65 518.673 260.89C518.233 261.123 517.713 261.24 517.113 261.24C516.353 261.24 515.663 261.06 515.043 260.7C514.43 260.34 513.94 259.837 513.573 259.19C513.213 258.537 513.033 257.773 513.033 256.9C513.033 256.027 513.213 255.267 513.573 254.62C513.94 253.967 514.43 253.46 515.043 253.1C515.663 252.733 516.353 252.55 517.113 252.55C517.706 252.55 518.22 252.657 518.653 252.87C519.093 253.083 519.443 253.33 519.703 253.61C519.97 253.89 520.126 254.13 520.173 254.33V252.79H521.893V261H520.193ZM514.753 256.9C514.753 257.493 514.883 258.007 515.143 258.44C515.403 258.873 515.74 259.21 516.153 259.45C516.573 259.683 517.02 259.8 517.493 259.8C518 259.8 518.453 259.68 518.853 259.44C519.253 259.2 519.57 258.863 519.803 258.43C520.036 257.99 520.153 257.48 520.153 256.9C520.153 256.32 520.036 255.813 519.803 255.38C519.57 254.94 519.253 254.6 518.853 254.36C518.453 254.113 518 253.99 517.493 253.99C517.02 253.99 516.573 254.11 516.153 254.35C515.74 254.59 515.403 254.927 515.143 255.36C514.883 255.793 514.753 256.307 514.753 256.9ZM528.088 259.8C528.608 259.8 529.028 259.717 529.348 259.55C529.668 259.383 529.868 259.263 529.948 259.19L530.798 260.44C530.731 260.5 530.571 260.597 530.318 260.73C530.071 260.857 529.751 260.973 529.358 261.08C528.971 261.187 528.531 261.24 528.038 261.24C527.285 261.24 526.585 261.073 525.938 260.74C525.291 260.4 524.768 259.907 524.368 259.26C523.975 258.613 523.778 257.823 523.778 256.89C523.778 255.95 523.975 255.16 524.368 254.52C524.768 253.873 525.291 253.383 525.938 253.05C526.585 252.717 527.285 252.55 528.038 252.55C528.525 252.55 528.958 252.61 529.338 252.73C529.718 252.843 530.031 252.97 530.278 253.11C530.525 253.25 530.688 253.357 530.768 253.43L529.908 254.68C529.855 254.627 529.751 254.547 529.598 254.44C529.451 254.327 529.251 254.223 528.998 254.13C528.745 254.037 528.441 253.99 528.088 253.99C527.661 253.99 527.245 254.107 526.838 254.34C526.438 254.567 526.108 254.897 525.848 255.33C525.588 255.763 525.458 256.283 525.458 256.89C525.458 257.497 525.588 258.02 525.848 258.46C526.108 258.893 526.438 259.227 526.838 259.46C527.245 259.687 527.661 259.8 528.088 259.8ZM533.609 257.25C533.615 257.743 533.722 258.193 533.929 258.6C534.135 259.007 534.442 259.33 534.849 259.57C535.262 259.81 535.769 259.93 536.369 259.93C536.875 259.93 537.305 259.857 537.659 259.71C538.019 259.557 538.312 259.377 538.539 259.17C538.765 258.957 538.929 258.767 539.029 258.6L539.879 259.65C539.659 259.97 539.389 260.25 539.069 260.49C538.755 260.73 538.372 260.913 537.919 261.04C537.465 261.173 536.912 261.24 536.259 261.24C535.379 261.24 534.615 261.053 533.969 260.68C533.329 260.3 532.835 259.777 532.489 259.11C532.142 258.437 531.969 257.667 531.969 256.8C531.969 256 532.132 255.28 532.459 254.64C532.785 253.993 533.259 253.483 533.879 253.11C534.505 252.737 535.259 252.55 536.139 252.55C536.945 252.55 537.645 252.72 538.239 253.06C538.839 253.393 539.302 253.867 539.629 254.48C539.962 255.093 540.129 255.827 540.129 256.68C540.129 256.733 540.125 256.83 540.119 256.97C540.112 257.103 540.105 257.197 540.099 257.25H533.609ZM538.469 255.94C538.462 255.667 538.382 255.367 538.229 255.04C538.082 254.713 537.842 254.433 537.509 254.2C537.175 253.967 536.725 253.85 536.159 253.85C535.572 253.85 535.099 253.963 534.739 254.19C534.385 254.417 534.125 254.693 533.959 255.02C533.792 255.34 533.695 255.647 533.669 255.94H538.469ZM356.495 279.24C355.648 279.24 354.895 279.05 354.235 278.67C353.581 278.29 353.068 277.777 352.695 277.13C352.321 276.477 352.135 275.74 352.135 274.92C352.135 274.1 352.321 273.36 352.695 272.7C353.068 272.04 353.581 271.517 354.235 271.13C354.895 270.743 355.648 270.55 356.495 270.55C357.335 270.55 358.078 270.743 358.725 271.13C359.378 271.517 359.888 272.04 360.255 272.7C360.621 273.36 360.805 274.1 360.805 274.92C360.805 275.74 360.621 276.477 360.255 277.13C359.888 277.777 359.378 278.29 358.725 278.67C358.078 279.05 357.335 279.24 356.495 279.24ZM356.495 277.75C357.028 277.75 357.491 277.627 357.885 277.38C358.285 277.133 358.595 276.797 358.815 276.37C359.035 275.937 359.145 275.45 359.145 274.91C359.145 274.37 359.035 273.883 358.815 273.45C358.595 273.017 358.285 272.673 357.885 272.42C357.491 272.167 357.028 272.04 356.495 272.04C355.955 272.04 355.485 272.167 355.085 272.42C354.685 272.673 354.371 273.017 354.145 273.45C353.925 273.883 353.815 274.37 353.815 274.91C353.815 275.45 353.925 275.937 354.145 276.37C354.371 276.797 354.685 277.133 355.085 277.38C355.485 277.627 355.955 277.75 356.495 277.75ZM361.885 270.79H363.565V268.46C363.565 267.627 363.709 266.957 363.995 266.45C364.289 265.943 364.659 265.577 365.105 265.35C365.559 265.117 366.022 265 366.495 265C367.069 265 367.509 265.08 367.815 265.24C368.129 265.4 368.315 265.507 368.375 265.56L367.675 266.89C367.642 266.85 367.539 266.777 367.365 266.67C367.192 266.563 366.955 266.51 366.655 266.51C366.435 266.51 366.222 266.563 366.015 266.67C365.809 266.777 365.635 266.983 365.495 267.29C365.355 267.597 365.285 268.053 365.285 268.66V270.79H367.625V272.28H365.285V279H363.565V272.28H361.885V270.79ZM375.889 279H374.159V270.79H375.889V272.21H375.839C375.872 272.037 375.996 271.82 376.209 271.56C376.422 271.3 376.716 271.067 377.089 270.86C377.462 270.653 377.909 270.55 378.429 270.55C378.809 270.55 379.142 270.603 379.429 270.71C379.722 270.81 379.929 270.91 380.049 271.01L379.339 272.45C379.246 272.357 379.082 272.263 378.849 272.17C378.616 272.07 378.326 272.02 377.979 272.02C377.539 272.02 377.162 272.157 376.849 272.43C376.536 272.703 376.296 273.033 376.129 273.42C375.969 273.8 375.889 274.153 375.889 274.48V279ZM382.085 275.25C382.092 275.743 382.199 276.193 382.405 276.6C382.612 277.007 382.919 277.33 383.325 277.57C383.739 277.81 384.245 277.93 384.845 277.93C385.352 277.93 385.782 277.857 386.135 277.71C386.495 277.557 386.789 277.377 387.015 277.17C387.242 276.957 387.405 276.767 387.505 276.6L388.355 277.65C388.135 277.97 387.865 278.25 387.545 278.49C387.232 278.73 386.849 278.913 386.395 279.04C385.942 279.173 385.389 279.24 384.735 279.24C383.855 279.24 383.092 279.053 382.445 278.68C381.805 278.3 381.312 277.777 380.965 277.11C380.619 276.437 380.445 275.667 380.445 274.8C380.445 274 380.609 273.28 380.935 272.64C381.262 271.993 381.735 271.483 382.355 271.11C382.982 270.737 383.735 270.55 384.615 270.55C385.422 270.55 386.122 270.72 386.715 271.06C387.315 271.393 387.779 271.867 388.105 272.48C388.439 273.093 388.605 273.827 388.605 274.68C388.605 274.733 388.602 274.83 388.595 274.97C388.589 275.103 388.582 275.197 388.575 275.25H382.085ZM386.945 273.94C386.939 273.667 386.859 273.367 386.705 273.04C386.559 272.713 386.319 272.433 385.985 272.2C385.652 271.967 385.202 271.85 384.635 271.85C384.049 271.85 383.575 271.963 383.215 272.19C382.862 272.417 382.602 272.693 382.435 273.02C382.269 273.34 382.172 273.647 382.145 273.94H386.945ZM393.607 270.55C394.033 270.55 394.43 270.593 394.797 270.68C395.17 270.767 395.49 270.87 395.757 270.99C396.03 271.11 396.223 271.217 396.337 271.31L395.647 272.41C395.513 272.29 395.273 272.157 394.927 272.01C394.58 271.857 394.193 271.78 393.767 271.78C393.3 271.78 392.903 271.873 392.577 272.06C392.25 272.24 392.087 272.503 392.087 272.85C392.087 273.197 392.253 273.473 392.587 273.68C392.927 273.88 393.38 274.047 393.947 274.18C394.4 274.287 394.823 274.43 395.217 274.61C395.617 274.79 395.94 275.04 396.187 275.36C396.433 275.673 396.557 276.093 396.557 276.62C396.557 277.1 396.457 277.51 396.257 277.85C396.057 278.183 395.787 278.453 395.447 278.66C395.107 278.86 394.727 279.007 394.307 279.1C393.887 279.193 393.46 279.24 393.027 279.24C392.52 279.24 392.063 279.187 391.657 279.08C391.25 278.98 390.907 278.86 390.627 278.72C390.353 278.573 390.153 278.447 390.027 278.34L390.717 277.1C390.89 277.267 391.173 277.443 391.567 277.63C391.967 277.817 392.42 277.91 392.927 277.91C393.487 277.91 393.94 277.793 394.287 277.56C394.633 277.32 394.807 277.01 394.807 276.63C394.807 276.343 394.723 276.113 394.557 275.94C394.39 275.767 394.167 275.627 393.887 275.52C393.607 275.413 393.3 275.32 392.967 275.24C392.647 275.167 392.333 275.07 392.027 274.95C391.727 274.83 391.45 274.677 391.197 274.49C390.95 274.297 390.753 274.063 390.607 273.79C390.46 273.51 390.387 273.183 390.387 272.81C390.387 272.337 390.537 271.933 390.837 271.6C391.137 271.26 391.53 271 392.017 270.82C392.503 270.64 393.033 270.55 393.607 270.55ZM398.763 279V270.79H400.503V279H398.763ZM399.653 267.98C399.34 267.98 399.07 267.87 398.843 267.65C398.623 267.423 398.513 267.153 398.513 266.84C398.513 266.527 398.623 266.257 398.843 266.03C399.07 265.803 399.34 265.69 399.653 265.69C399.86 265.69 400.05 265.743 400.223 265.85C400.403 265.957 400.547 266.097 400.653 266.27C400.76 266.437 400.813 266.627 400.813 266.84C400.813 267.153 400.7 267.423 400.473 267.65C400.247 267.87 399.973 267.98 399.653 267.98ZM406.783 279.24C406.03 279.24 405.353 279.06 404.753 278.7C404.16 278.34 403.69 277.837 403.343 277.19C403.003 276.537 402.833 275.773 402.833 274.9C402.833 274.027 403.003 273.267 403.343 272.62C403.69 271.967 404.16 271.46 404.753 271.1C405.353 270.733 406.03 270.55 406.783 270.55C407.39 270.55 407.923 270.657 408.383 270.87C408.843 271.077 409.21 271.32 409.483 271.6C409.757 271.88 409.913 272.123 409.953 272.33V265.24H411.703V279H409.983V277.4C409.91 277.627 409.727 277.883 409.433 278.17C409.147 278.457 408.777 278.707 408.323 278.92C407.87 279.133 407.357 279.24 406.783 279.24ZM407.183 277.8C407.69 277.8 408.153 277.68 408.573 277.44C408.993 277.2 409.327 276.863 409.573 276.43C409.827 275.99 409.953 275.48 409.953 274.9C409.953 274.32 409.827 273.813 409.573 273.38C409.327 272.94 408.993 272.6 408.573 272.36C408.153 272.113 407.69 271.99 407.183 271.99C406.717 271.99 406.283 272.11 405.883 272.35C405.483 272.59 405.16 272.927 404.913 273.36C404.673 273.793 404.553 274.307 404.553 274.9C404.553 275.493 404.673 276.007 404.913 276.44C405.16 276.873 405.483 277.21 405.883 277.45C406.283 277.683 406.717 277.8 407.183 277.8ZM414.742 275.25C414.748 275.743 414.855 276.193 415.062 276.6C415.268 277.007 415.575 277.33 415.982 277.57C416.395 277.81 416.902 277.93 417.502 277.93C418.008 277.93 418.438 277.857 418.792 277.71C419.152 277.557 419.445 277.377 419.672 277.17C419.898 276.957 420.062 276.767 420.162 276.6L421.012 277.65C420.792 277.97 420.522 278.25 420.202 278.49C419.888 278.73 419.505 278.913 419.052 279.04C418.598 279.173 418.045 279.24 417.392 279.24C416.512 279.24 415.748 279.053 415.102 278.68C414.462 278.3 413.968 277.777 413.622 277.11C413.275 276.437 413.102 275.667 413.102 274.8C413.102 274 413.265 273.28 413.592 272.64C413.918 271.993 414.392 271.483 415.012 271.11C415.638 270.737 416.392 270.55 417.272 270.55C418.078 270.55 418.778 270.72 419.372 271.06C419.972 271.393 420.435 271.867 420.762 272.48C421.095 273.093 421.262 273.827 421.262 274.68C421.262 274.733 421.258 274.83 421.252 274.97C421.245 275.103 421.238 275.197 421.232 275.25H414.742ZM419.602 273.94C419.595 273.667 419.515 273.367 419.362 273.04C419.215 272.713 418.975 272.433 418.642 272.2C418.308 271.967 417.858 271.85 417.292 271.85C416.705 271.85 416.232 271.963 415.872 272.19C415.518 272.417 415.258 272.693 415.092 273.02C414.925 273.34 414.828 273.647 414.802 273.94H419.602ZM427.773 270.55C428.313 270.55 428.836 270.663 429.343 270.89C429.856 271.117 430.276 271.477 430.603 271.97C430.936 272.457 431.103 273.093 431.103 273.88V279H429.343V274.22C429.343 273.407 429.153 272.817 428.773 272.45C428.393 272.077 427.903 271.89 427.303 271.89C426.909 271.89 426.529 272.003 426.163 272.23C425.803 272.45 425.506 272.757 425.273 273.15C425.039 273.537 424.923 273.977 424.923 274.47V279H423.183V270.79H424.923V272.25C424.983 272.023 425.146 271.777 425.413 271.51C425.679 271.243 426.019 271.017 426.433 270.83C426.846 270.643 427.293 270.55 427.773 270.55ZM437.248 277.8C437.768 277.8 438.188 277.717 438.508 277.55C438.828 277.383 439.028 277.263 439.108 277.19L439.958 278.44C439.891 278.5 439.731 278.597 439.478 278.73C439.231 278.857 438.911 278.973 438.518 279.08C438.131 279.187 437.691 279.24 437.198 279.24C436.445 279.24 435.745 279.073 435.098 278.74C434.451 278.4 433.928 277.907 433.528 277.26C433.135 276.613 432.938 275.823 432.938 274.89C432.938 273.95 433.135 273.16 433.528 272.52C433.928 271.873 434.451 271.383 435.098 271.05C435.745 270.717 436.445 270.55 437.198 270.55C437.685 270.55 438.118 270.61 438.498 270.73C438.878 270.843 439.191 270.97 439.438 271.11C439.685 271.25 439.848 271.357 439.928 271.43L439.068 272.68C439.015 272.627 438.911 272.547 438.758 272.44C438.611 272.327 438.411 272.223 438.158 272.13C437.905 272.037 437.601 271.99 437.248 271.99C436.821 271.99 436.405 272.107 435.998 272.34C435.598 272.567 435.268 272.897 435.008 273.33C434.748 273.763 434.618 274.283 434.618 274.89C434.618 275.497 434.748 276.02 435.008 276.46C435.268 276.893 435.598 277.227 435.998 277.46C436.405 277.687 436.821 277.8 437.248 277.8ZM442.769 275.25C442.776 275.743 442.882 276.193 443.089 276.6C443.296 277.007 443.602 277.33 444.009 277.57C444.422 277.81 444.929 277.93 445.529 277.93C446.036 277.93 446.466 277.857 446.819 277.71C447.179 277.557 447.472 277.377 447.699 277.17C447.926 276.957 448.089 276.767 448.189 276.6L449.039 277.65C448.819 277.97 448.549 278.25 448.229 278.49C447.916 278.73 447.532 278.913 447.079 279.04C446.626 279.173 446.072 279.24 445.419 279.24C444.539 279.24 443.776 279.053 443.129 278.68C442.489 278.3 441.996 277.777 441.649 277.11C441.302 276.437 441.129 275.667 441.129 274.8C441.129 274 441.292 273.28 441.619 272.64C441.946 271.993 442.419 271.483 443.039 271.11C443.666 270.737 444.419 270.55 445.299 270.55C446.106 270.55 446.806 270.72 447.399 271.06C447.999 271.393 448.462 271.867 448.789 272.48C449.122 273.093 449.289 273.827 449.289 274.68C449.289 274.733 449.286 274.83 449.279 274.97C449.272 275.103 449.266 275.197 449.259 275.25H442.769ZM447.629 273.94C447.622 273.667 447.542 273.367 447.389 273.04C447.242 272.713 447.002 272.433 446.669 272.2C446.336 271.967 445.886 271.85 445.319 271.85C444.732 271.85 444.259 271.963 443.899 272.19C443.546 272.417 443.286 272.693 443.119 273.02C442.952 273.34 442.856 273.647 442.829 273.94H447.629ZM452.75 276.49C453.157 276.49 453.503 276.633 453.79 276.92C454.083 277.207 454.23 277.593 454.23 278.08C454.23 278.573 454.13 279.043 453.93 279.49C453.73 279.937 453.467 280.333 453.14 280.68C452.813 281.027 452.46 281.303 452.08 281.51L451.43 280.84C451.63 280.747 451.847 280.613 452.08 280.44C452.313 280.267 452.523 280.067 452.71 279.84C452.897 279.62 453.023 279.383 453.09 279.13C452.943 279.203 452.77 279.24 452.57 279.24C452.23 279.233 451.937 279.103 451.69 278.85C451.443 278.59 451.32 278.277 451.32 277.91C451.32 277.637 451.383 277.393 451.51 277.18C451.637 276.967 451.807 276.8 452.02 276.68C452.24 276.553 452.483 276.49 452.75 276.49ZM465.128 277.41L467.898 270.79H469.638L464.098 283.16H462.338L464.198 279L460.818 270.79H462.588L465.128 277.41ZM474.756 279.24C473.91 279.24 473.156 279.05 472.496 278.67C471.843 278.29 471.33 277.777 470.956 277.13C470.583 276.477 470.396 275.74 470.396 274.92C470.396 274.1 470.583 273.36 470.956 272.7C471.33 272.04 471.843 271.517 472.496 271.13C473.156 270.743 473.91 270.55 474.756 270.55C475.596 270.55 476.34 270.743 476.986 271.13C477.64 271.517 478.15 272.04 478.516 272.7C478.883 273.36 479.066 274.1 479.066 274.92C479.066 275.74 478.883 276.477 478.516 277.13C478.15 277.777 477.64 278.29 476.986 278.67C476.34 279.05 475.596 279.24 474.756 279.24ZM474.756 277.75C475.29 277.75 475.753 277.627 476.146 277.38C476.546 277.133 476.856 276.797 477.076 276.37C477.296 275.937 477.406 275.45 477.406 274.91C477.406 274.37 477.296 273.883 477.076 273.45C476.856 273.017 476.546 272.673 476.146 272.42C475.753 272.167 475.29 272.04 474.756 272.04C474.216 272.04 473.746 272.167 473.346 272.42C472.946 272.673 472.633 273.017 472.406 273.45C472.186 273.883 472.076 274.37 472.076 274.91C472.076 275.45 472.186 275.937 472.406 276.37C472.633 276.797 472.946 277.133 473.346 277.38C473.746 277.627 474.216 277.75 474.756 277.75ZM482.625 274.93C482.625 275.79 482.809 276.477 483.175 276.99C483.549 277.497 484.119 277.75 484.885 277.75C485.659 277.75 486.229 277.497 486.595 276.99C486.962 276.477 487.145 275.79 487.145 274.93V270.79H488.865V275.17C488.865 275.97 488.709 276.677 488.395 277.29C488.089 277.903 487.639 278.383 487.045 278.73C486.459 279.07 485.739 279.24 484.885 279.24C484.039 279.24 483.319 279.07 482.725 278.73C482.139 278.383 481.689 277.903 481.375 277.29C481.069 276.677 480.915 275.97 480.915 275.17V270.79H482.625V274.93ZM492.94 279H491.21V270.79H492.94V272.21H492.89C492.923 272.037 493.046 271.82 493.26 271.56C493.473 271.3 493.766 271.067 494.14 270.86C494.513 270.653 494.96 270.55 495.48 270.55C495.86 270.55 496.193 270.603 496.48 270.71C496.773 270.81 496.98 270.91 497.1 271.01L496.39 272.45C496.296 272.357 496.133 272.263 495.9 272.17C495.666 272.07 495.376 272.02 495.03 272.02C494.59 272.02 494.213 272.157 493.9 272.43C493.586 272.703 493.346 273.033 493.18 273.42C493.02 273.8 492.94 274.153 492.94 274.48V279Z" fill="#73799B"/>
<path d="M505.982 283.16H502.972V270.79H506.012V271.99C506.106 271.803 506.282 271.6 506.542 271.38C506.809 271.153 507.146 270.96 507.552 270.8C507.966 270.633 508.432 270.55 508.952 270.55C509.752 270.55 510.436 270.747 511.002 271.14C511.576 271.533 512.016 272.06 512.322 272.72C512.629 273.373 512.782 274.1 512.782 274.9C512.782 275.7 512.619 276.43 512.292 277.09C511.966 277.743 511.506 278.267 510.912 278.66C510.326 279.047 509.632 279.24 508.832 279.24C508.259 279.24 507.769 279.14 507.362 278.94C506.962 278.733 506.646 278.507 506.412 278.26C506.186 278.007 506.042 277.81 505.982 277.67V283.16ZM509.812 274.9C509.812 274.527 509.729 274.193 509.562 273.9C509.396 273.6 509.169 273.367 508.882 273.2C508.602 273.027 508.286 272.94 507.932 272.94C507.566 272.94 507.236 273.027 506.942 273.2C506.656 273.367 506.429 273.6 506.262 273.9C506.096 274.193 506.012 274.527 506.012 274.9C506.012 275.273 506.096 275.61 506.262 275.91C506.429 276.203 506.656 276.433 506.942 276.6C507.236 276.767 507.566 276.85 507.932 276.85C508.286 276.85 508.602 276.767 508.882 276.6C509.169 276.433 509.396 276.203 509.562 275.91C509.729 275.61 509.812 275.273 509.812 274.9ZM514.42 279V270.79H517.46V279H514.42ZM515.98 269.1C515.5 269.1 515.094 268.933 514.76 268.6C514.427 268.26 514.26 267.857 514.26 267.39C514.26 266.923 514.427 266.52 514.76 266.18C515.1 265.833 515.507 265.66 515.98 265.66C516.294 265.66 516.58 265.74 516.84 265.9C517.1 266.053 517.31 266.26 517.47 266.52C517.63 266.78 517.71 267.07 517.71 267.39C517.71 267.857 517.54 268.26 517.2 268.6C516.86 268.933 516.454 269.1 515.98 269.1ZM525.205 270.55C525.778 270.55 526.338 270.667 526.885 270.9C527.432 271.133 527.882 271.503 528.235 272.01C528.588 272.51 528.765 273.17 528.765 273.99V279H525.715V274.49C525.715 273.903 525.575 273.463 525.295 273.17C525.015 272.87 524.648 272.72 524.195 272.72C523.895 272.72 523.612 272.8 523.345 272.96C523.085 273.113 522.872 273.333 522.705 273.62C522.545 273.9 522.465 274.223 522.465 274.59V279H519.425V270.79H522.465V272C522.545 271.78 522.712 271.56 522.965 271.34C523.225 271.113 523.548 270.927 523.935 270.78C524.328 270.627 524.752 270.55 525.205 270.55ZM534.841 283.39C534.268 283.39 533.698 283.34 533.131 283.24C532.571 283.14 532.048 282.97 531.561 282.73C531.075 282.49 530.665 282.16 530.331 281.74L532.111 279.89C532.265 280.07 532.451 280.247 532.671 280.42C532.898 280.593 533.175 280.737 533.501 280.85C533.835 280.963 534.238 281.02 534.711 281.02C535.151 281.02 535.535 280.943 535.861 280.79C536.188 280.637 536.441 280.413 536.621 280.12C536.808 279.827 536.901 279.47 536.901 279.05V278.85H539.891V279.23C539.891 280.137 539.665 280.9 539.211 281.52C538.765 282.14 538.161 282.607 537.401 282.92C536.641 283.233 535.788 283.39 534.841 283.39ZM536.901 279V277.67C536.841 277.803 536.688 277.997 536.441 278.25C536.201 278.503 535.881 278.733 535.481 278.94C535.081 279.14 534.615 279.24 534.081 279.24C533.281 279.24 532.581 279.047 531.981 278.66C531.381 278.267 530.915 277.743 530.581 277.09C530.248 276.43 530.081 275.7 530.081 274.9C530.081 274.1 530.248 273.373 530.581 272.72C530.915 272.06 531.381 271.533 531.981 271.14C532.581 270.747 533.281 270.55 534.081 270.55C534.595 270.55 535.045 270.633 535.431 270.8C535.818 270.96 536.131 271.153 536.371 271.38C536.611 271.6 536.778 271.803 536.871 271.99V270.79H539.891V279H536.901ZM533.061 274.9C533.061 275.273 533.148 275.61 533.321 275.91C533.495 276.203 533.725 276.433 534.011 276.6C534.305 276.767 534.628 276.85 534.981 276.85C535.348 276.85 535.671 276.767 535.951 276.6C536.231 276.433 536.451 276.203 536.611 275.91C536.778 275.61 536.861 275.273 536.861 274.9C536.861 274.527 536.778 274.193 536.611 273.9C536.451 273.6 536.231 273.367 535.951 273.2C535.671 273.027 535.348 272.94 534.981 272.94C534.628 272.94 534.305 273.027 534.011 273.2C533.725 273.367 533.495 273.6 533.321 273.9C533.148 274.193 533.061 274.527 533.061 274.9ZM433.453 292.24L431.543 297H428.753L426.033 288.79H429.263L430.573 293.75L432.463 288.95H434.463L436.323 293.75L437.643 288.79H440.873L438.163 297H435.383L433.453 292.24ZM441.842 297V288.79H444.882V297H441.842ZM443.402 287.1C442.922 287.1 442.516 286.933 442.182 286.6C441.849 286.26 441.682 285.857 441.682 285.39C441.682 284.923 441.849 284.52 442.182 284.18C442.522 283.833 442.929 283.66 443.402 283.66C443.716 283.66 444.002 283.74 444.262 283.9C444.522 284.053 444.732 284.26 444.892 284.52C445.052 284.78 445.132 285.07 445.132 285.39C445.132 285.857 444.962 286.26 444.622 286.6C444.282 286.933 443.876 287.1 443.402 287.1ZM450.017 297H446.967V283.24H450.017V297ZM455.017 297H451.967V283.24H455.017V297ZM462.22 297V283.24H465.26V289.99C465.32 289.803 465.473 289.6 465.72 289.38C465.973 289.153 466.303 288.96 466.71 288.8C467.123 288.633 467.59 288.55 468.11 288.55C468.91 288.55 469.603 288.747 470.19 289.14C470.776 289.533 471.23 290.06 471.55 290.72C471.87 291.373 472.03 292.1 472.03 292.9C472.03 293.7 471.87 294.43 471.55 295.09C471.23 295.743 470.776 296.267 470.19 296.66C469.603 297.047 468.91 297.24 468.11 297.24C467.67 297.24 467.253 297.16 466.86 297C466.473 296.847 466.136 296.65 465.85 296.41C465.57 296.163 465.363 295.917 465.23 295.67V297H462.22ZM469.05 292.9C469.05 292.527 468.966 292.193 468.8 291.9C468.64 291.6 468.416 291.367 468.13 291.2C467.85 291.027 467.533 290.94 467.18 290.94C466.813 290.94 466.483 291.027 466.19 291.2C465.903 291.367 465.676 291.6 465.51 291.9C465.343 292.193 465.26 292.527 465.26 292.9C465.26 293.273 465.343 293.61 465.51 293.91C465.676 294.203 465.903 294.433 466.19 294.6C466.483 294.767 466.813 294.85 467.18 294.85C467.533 294.85 467.85 294.767 468.13 294.6C468.416 294.433 468.64 294.203 468.8 293.91C468.966 293.61 469.05 293.273 469.05 292.9ZM475.862 293.54C475.882 293.833 475.975 294.093 476.142 294.32C476.308 294.547 476.538 294.727 476.832 294.86C477.132 294.987 477.485 295.05 477.892 295.05C478.278 295.05 478.625 295.01 478.932 294.93C479.245 294.85 479.515 294.75 479.742 294.63C479.975 294.51 480.155 294.387 480.282 294.26L481.462 296.14C481.295 296.32 481.058 296.497 480.752 296.67C480.452 296.837 480.055 296.973 479.562 297.08C479.068 297.187 478.445 297.24 477.692 297.24C476.785 297.24 475.978 297.07 475.272 296.73C474.565 296.39 474.008 295.89 473.602 295.23C473.195 294.57 472.992 293.763 472.992 292.81C472.992 292.01 473.165 291.29 473.512 290.65C473.865 290.003 474.375 289.493 475.042 289.12C475.708 288.74 476.512 288.55 477.452 288.55C478.345 288.55 479.118 288.713 479.772 289.04C480.432 289.367 480.938 289.853 481.292 290.5C481.652 291.14 481.832 291.94 481.832 292.9C481.832 292.953 481.828 293.06 481.822 293.22C481.822 293.38 481.815 293.487 481.802 293.54H475.862ZM478.972 291.95C478.965 291.737 478.908 291.527 478.802 291.32C478.695 291.107 478.535 290.933 478.322 290.8C478.108 290.66 477.835 290.59 477.502 290.59C477.168 290.59 476.885 290.657 476.652 290.79C476.425 290.917 476.252 291.083 476.132 291.29C476.012 291.497 475.945 291.717 475.932 291.95H478.972ZM492.375 288.55C492.915 288.55 493.409 288.597 493.855 288.69C494.302 288.777 494.675 288.877 494.975 288.99C495.282 289.103 495.479 289.197 495.565 289.27L494.575 291.06C494.449 290.967 494.212 290.847 493.865 290.7C493.525 290.553 493.145 290.48 492.725 290.48C492.405 290.48 492.135 290.53 491.915 290.63C491.695 290.723 491.585 290.873 491.585 291.08C491.585 291.287 491.705 291.453 491.945 291.58C492.192 291.7 492.545 291.807 493.005 291.9C493.405 291.98 493.812 292.107 494.225 292.28C494.639 292.453 494.982 292.71 495.255 293.05C495.535 293.383 495.675 293.83 495.675 294.39C495.675 294.963 495.552 295.437 495.305 295.81C495.059 296.183 494.732 296.473 494.325 296.68C493.919 296.887 493.479 297.03 493.005 297.11C492.532 297.197 492.072 297.24 491.625 297.24C490.999 297.24 490.452 297.183 489.985 297.07C489.525 296.957 489.152 296.827 488.865 296.68C488.579 296.533 488.379 296.417 488.265 296.33L489.245 294.33C489.419 294.477 489.702 294.643 490.095 294.83C490.489 295.01 490.905 295.1 491.345 295.1C491.772 295.1 492.102 295.037 492.335 294.91C492.569 294.783 492.685 294.617 492.685 294.41C492.685 294.243 492.629 294.11 492.515 294.01C492.402 293.91 492.242 293.823 492.035 293.75C491.829 293.677 491.579 293.61 491.285 293.55C491.019 293.497 490.735 293.413 490.435 293.3C490.135 293.187 489.852 293.033 489.585 292.84C489.319 292.64 489.102 292.39 488.935 292.09C488.769 291.79 488.685 291.427 488.685 291C488.685 290.453 488.862 290 489.215 289.64C489.569 289.28 490.025 289.01 490.585 288.83C491.145 288.643 491.742 288.55 492.375 288.55ZM496.453 288.79H497.853V285.42H500.863V288.79H502.703V291.29H500.863V293.58C500.863 293.92 500.913 294.197 501.013 294.41C501.113 294.617 501.296 294.72 501.563 294.72C501.743 294.72 501.896 294.68 502.023 294.6C502.149 294.52 502.226 294.467 502.253 294.44L503.293 296.6C503.246 296.64 503.099 296.713 502.853 296.82C502.613 296.927 502.306 297.023 501.933 297.11C501.559 297.197 501.143 297.24 500.683 297.24C499.863 297.24 499.186 297.01 498.653 296.55C498.119 296.083 497.853 295.367 497.853 294.4V291.29H496.453V288.79ZM510.788 297V295.67C510.728 295.803 510.575 295.997 510.328 296.25C510.088 296.503 509.768 296.733 509.368 296.94C508.968 297.14 508.501 297.24 507.968 297.24C507.168 297.24 506.468 297.047 505.868 296.66C505.268 296.267 504.801 295.743 504.468 295.09C504.135 294.43 503.968 293.7 503.968 292.9C503.968 292.1 504.135 291.373 504.468 290.72C504.801 290.06 505.268 289.533 505.868 289.14C506.468 288.747 507.168 288.55 507.968 288.55C508.481 288.55 508.931 288.633 509.318 288.8C509.705 288.96 510.018 289.153 510.258 289.38C510.498 289.6 510.665 289.803 510.758 289.99V288.79H513.778V297H510.788ZM506.948 292.9C506.948 293.273 507.035 293.61 507.208 293.91C507.381 294.203 507.611 294.433 507.898 294.6C508.191 294.767 508.515 294.85 508.868 294.85C509.235 294.85 509.558 294.767 509.838 294.6C510.118 294.433 510.338 294.203 510.498 293.91C510.665 293.61 510.748 293.273 510.748 292.9C510.748 292.527 510.665 292.193 510.498 291.9C510.338 291.6 510.118 291.367 509.838 291.2C509.558 291.027 509.235 290.94 508.868 290.94C508.515 290.94 508.191 291.027 507.898 291.2C507.611 291.367 507.381 291.6 507.208 291.9C507.035 292.193 506.948 292.527 506.948 292.9ZM515.657 297V283.24H518.697V289.99C518.757 289.803 518.911 289.6 519.157 289.38C519.411 289.153 519.741 288.96 520.147 288.8C520.561 288.633 521.027 288.55 521.547 288.55C522.347 288.55 523.041 288.747 523.627 289.14C524.214 289.533 524.667 290.06 524.987 290.72C525.307 291.373 525.467 292.1 525.467 292.9C525.467 293.7 525.307 294.43 524.987 295.09C524.667 295.743 524.214 296.267 523.627 296.66C523.041 297.047 522.347 297.24 521.547 297.24C521.107 297.24 520.691 297.16 520.297 297C519.911 296.847 519.574 296.65 519.287 296.41C519.007 296.163 518.801 295.917 518.667 295.67V297H515.657ZM522.487 292.9C522.487 292.527 522.404 292.193 522.237 291.9C522.077 291.6 521.854 291.367 521.567 291.2C521.287 291.027 520.971 290.94 520.617 290.94C520.251 290.94 519.921 291.027 519.627 291.2C519.341 291.367 519.114 291.6 518.947 291.9C518.781 292.193 518.697 292.527 518.697 292.9C518.697 293.273 518.781 293.61 518.947 293.91C519.114 294.203 519.341 294.433 519.627 294.6C519.921 294.767 520.251 294.85 520.617 294.85C520.971 294.85 521.287 294.767 521.567 294.6C521.854 294.433 522.077 294.203 522.237 293.91C522.404 293.61 522.487 293.273 522.487 292.9ZM529.919 297H526.869V283.24H529.919V297ZM534.299 293.54C534.319 293.833 534.412 294.093 534.579 294.32C534.746 294.547 534.976 294.727 535.269 294.86C535.569 294.987 535.922 295.05 536.329 295.05C536.716 295.05 537.062 295.01 537.369 294.93C537.682 294.85 537.952 294.75 538.179 294.63C538.412 294.51 538.592 294.387 538.719 294.26L539.899 296.14C539.732 296.32 539.496 296.497 539.189 296.67C538.889 296.837 538.492 296.973 537.999 297.08C537.506 297.187 536.882 297.24 536.129 297.24C535.222 297.24 534.416 297.07 533.709 296.73C533.002 296.39 532.446 295.89 532.039 295.23C531.632 294.57 531.429 293.763 531.429 292.81C531.429 292.01 531.602 291.29 531.949 290.65C532.302 290.003 532.812 289.493 533.479 289.12C534.146 288.74 534.949 288.55 535.889 288.55C536.782 288.55 537.556 288.713 538.209 289.04C538.869 289.367 539.376 289.853 539.729 290.5C540.089 291.14 540.269 291.94 540.269 292.9C540.269 292.953 540.266 293.06 540.259 293.22C540.259 293.38 540.252 293.487 540.239 293.54H534.299ZM537.409 291.95C537.402 291.737 537.346 291.527 537.239 291.32C537.132 291.107 536.972 290.933 536.759 290.8C536.546 290.66 536.272 290.59 535.939 290.59C535.606 290.59 535.322 290.657 535.089 290.79C534.862 290.917 534.689 291.083 534.569 291.29C534.449 291.497 534.382 291.717 534.369 291.95H537.409Z" fill="white"/>
<path d="M402.838 7.8H404.618L409.498 21H407.668L406.528 17.82H400.928L399.768 21H397.938L402.838 7.8ZM401.478 16.28H405.988L403.748 9.9H403.718L401.478 16.28ZM421.249 14.85L419.159 21H417.359L415.129 12.79H416.979L418.469 19.1L420.529 12.95H421.969L424.009 19.1L425.509 12.79H427.369L425.139 21H423.339L421.249 14.85ZM430.171 17.25C430.178 17.7433 430.285 18.1933 430.491 18.6C430.698 19.0067 431.005 19.33 431.411 19.57C431.825 19.81 432.331 19.93 432.931 19.93C433.438 19.93 433.868 19.8567 434.221 19.71C434.581 19.5567 434.875 19.3767 435.101 19.17C435.328 18.9567 435.491 18.7667 435.591 18.6L436.441 19.65C436.221 19.97 435.951 20.25 435.631 20.49C435.318 20.73 434.935 20.9133 434.481 21.04C434.028 21.1733 433.475 21.24 432.821 21.24C431.941 21.24 431.178 21.0533 430.531 20.68C429.891 20.3 429.398 19.7767 429.051 19.11C428.705 18.4367 428.531 17.6667 428.531 16.8C428.531 16 428.695 15.28 429.021 14.64C429.348 13.9933 429.821 13.4833 430.441 13.11C431.068 12.7367 431.821 12.55 432.701 12.55C433.508 12.55 434.208 12.72 434.801 13.06C435.401 13.3933 435.865 13.8667 436.191 14.48C436.525 15.0933 436.691 15.8267 436.691 16.68C436.691 16.7333 436.688 16.83 436.681 16.97C436.675 17.1033 436.668 17.1967 436.661 17.25H430.171ZM435.031 15.94C435.025 15.6667 434.945 15.3667 434.791 15.04C434.645 14.7133 434.405 14.4333 434.071 14.2C433.738 13.9667 433.288 13.85 432.721 13.85C432.135 13.85 431.661 13.9633 431.301 14.19C430.948 14.4167 430.688 14.6933 430.521 15.02C430.355 15.34 430.258 15.6467 430.231 15.94H435.031ZM440.423 21H438.673V7.24H440.423V21ZM444.739 21H442.989V7.24H444.739V21ZM447.285 17.2V15.69H452.435V17.2H447.285ZM454.151 12.79H455.831V10.46C455.831 9.62667 455.974 8.95667 456.261 8.45C456.554 7.94333 456.924 7.57667 457.371 7.35C457.824 7.11667 458.288 7 458.761 7C459.334 7 459.774 7.08 460.081 7.24C460.394 7.4 460.581 7.50667 460.641 7.56L459.941 8.89C459.908 8.85 459.804 8.77667 459.631 8.67C459.458 8.56333 459.221 8.51 458.921 8.51C458.701 8.51 458.488 8.56333 458.281 8.67C458.074 8.77667 457.901 8.98333 457.761 9.29C457.621 9.59667 457.551 10.0533 457.551 10.66V12.79H459.891V14.28H457.551V21H455.831V14.28H454.151V12.79ZM463.094 16.93C463.094 17.79 463.277 18.4767 463.644 18.99C464.017 19.4967 464.587 19.75 465.354 19.75C466.127 19.75 466.697 19.4967 467.064 18.99C467.431 18.4767 467.614 17.79 467.614 16.93V12.79H469.334V17.17C469.334 17.97 469.177 18.6767 468.864 19.29C468.557 19.9033 468.107 20.3833 467.514 20.73C466.927 21.07 466.207 21.24 465.354 21.24C464.507 21.24 463.787 21.07 463.194 20.73C462.607 20.3833 462.157 19.9033 461.844 19.29C461.537 18.6767 461.384 17.97 461.384 17.17V12.79H463.094V16.93ZM476.288 12.55C476.828 12.55 477.352 12.6633 477.858 12.89C478.372 13.1167 478.792 13.4767 479.118 13.97C479.452 14.4567 479.618 15.0933 479.618 15.88V21H477.858V16.22C477.858 15.4067 477.668 14.8167 477.288 14.45C476.908 14.0767 476.418 13.89 475.818 13.89C475.425 13.89 475.045 14.0033 474.678 14.23C474.318 14.45 474.022 14.7567 473.788 15.15C473.555 15.5367 473.438 15.9767 473.438 16.47V21H471.698V12.79H473.438V14.25C473.498 14.0233 473.662 13.7767 473.928 13.51C474.195 13.2433 474.535 13.0167 474.948 12.83C475.362 12.6433 475.808 12.55 476.288 12.55ZM485.764 19.8C486.284 19.8 486.704 19.7167 487.024 19.55C487.344 19.3833 487.544 19.2633 487.624 19.19L488.474 20.44C488.407 20.5 488.247 20.5967 487.994 20.73C487.747 20.8567 487.427 20.9733 487.034 21.08C486.647 21.1867 486.207 21.24 485.714 21.24C484.96 21.24 484.26 21.0733 483.614 20.74C482.967 20.4 482.444 19.9067 482.044 19.26C481.65 18.6133 481.454 17.8233 481.454 16.89C481.454 15.95 481.65 15.16 482.044 14.52C482.444 13.8733 482.967 13.3833 483.614 13.05C484.26 12.7167 484.96 12.55 485.714 12.55C486.2 12.55 486.634 12.61 487.014 12.73C487.394 12.8433 487.707 12.97 487.954 13.11C488.2 13.25 488.364 13.3567 488.444 13.43L487.584 14.68C487.53 14.6267 487.427 14.5467 487.274 14.44C487.127 14.3267 486.927 14.2233 486.674 14.13C486.42 14.0367 486.117 13.99 485.764 13.99C485.337 13.99 484.92 14.1067 484.514 14.34C484.114 14.5667 483.784 14.8967 483.524 15.33C483.264 15.7633 483.134 16.2833 483.134 16.89C483.134 17.4967 483.264 18.02 483.524 18.46C483.784 18.8933 484.114 19.2267 484.514 19.46C484.92 19.6867 485.337 19.8 485.764 19.8ZM489.416 12.79H491.026V9.42H492.756V12.79H494.866V14.28H492.756V18.34C492.756 18.82 492.84 19.1733 493.006 19.4C493.18 19.6267 493.41 19.74 493.696 19.74C493.95 19.74 494.146 19.6933 494.286 19.6C494.426 19.5067 494.51 19.4433 494.536 19.41L495.226 20.69C495.186 20.7233 495.08 20.7867 494.906 20.88C494.733 20.9733 494.51 21.0567 494.236 21.13C493.963 21.2033 493.643 21.24 493.276 21.24C492.636 21.24 492.1 21.0467 491.666 20.66C491.24 20.2667 491.026 19.6467 491.026 18.8V14.28H489.416V12.79ZM496.928 21V12.79H498.668V21H496.928ZM497.818 9.98C497.504 9.98 497.234 9.87 497.007 9.65C496.788 9.42333 496.678 9.15333 496.678 8.84C496.678 8.52667 496.788 8.25667 497.007 8.03C497.234 7.80333 497.504 7.69 497.818 7.69C498.024 7.69 498.214 7.74333 498.388 7.85C498.568 7.95667 498.711 8.09667 498.818 8.27C498.924 8.43667 498.978 8.62667 498.978 8.84C498.978 9.15333 498.864 9.42333 498.638 9.65C498.411 9.87 498.138 9.98 497.818 9.98ZM505.127 21.24C504.281 21.24 503.527 21.05 502.867 20.67C502.214 20.29 501.701 19.7767 501.327 19.13C500.954 18.4767 500.767 17.74 500.767 16.92C500.767 16.1 500.954 15.36 501.327 14.7C501.701 14.04 502.214 13.5167 502.867 13.13C503.527 12.7433 504.281 12.55 505.127 12.55C505.967 12.55 506.711 12.7433 507.357 13.13C508.011 13.5167 508.521 14.04 508.887 14.7C509.254 15.36 509.437 16.1 509.437 16.92C509.437 17.74 509.254 18.4767 508.887 19.13C508.521 19.7767 508.011 20.29 507.357 20.67C506.711 21.05 505.967 21.24 505.127 21.24ZM505.127 19.75C505.661 19.75 506.124 19.6267 506.517 19.38C506.917 19.1333 507.227 18.7967 507.447 18.37C507.667 17.9367 507.777 17.45 507.777 16.91C507.777 16.37 507.667 15.8833 507.447 15.45C507.227 15.0167 506.917 14.6733 506.517 14.42C506.124 14.1667 505.661 14.04 505.127 14.04C504.587 14.04 504.117 14.1667 503.717 14.42C503.317 14.6733 503.004 15.0167 502.777 15.45C502.557 15.8833 502.447 16.37 502.447 16.91C502.447 17.45 502.557 17.9367 502.777 18.37C503.004 18.7967 503.317 19.1333 503.717 19.38C504.117 19.6267 504.587 19.75 505.127 19.75ZM515.956 12.55C516.496 12.55 517.02 12.6633 517.526 12.89C518.04 13.1167 518.46 13.4767 518.786 13.97C519.12 14.4567 519.286 15.0933 519.286 15.88V21H517.526V16.22C517.526 15.4067 517.336 14.8167 516.956 14.45C516.576 14.0767 516.086 13.89 515.486 13.89C515.093 13.89 514.713 14.0033 514.346 14.23C513.986 14.45 513.69 14.7567 513.456 15.15C513.223 15.5367 513.106 15.9767 513.106 16.47V21H511.366V12.79H513.106V14.25C513.166 14.0233 513.33 13.7767 513.596 13.51C513.863 13.2433 514.203 13.0167 514.616 12.83C515.03 12.6433 515.476 12.55 515.956 12.55ZM521.752 21V12.79H523.492V21H521.752ZM522.642 9.98C522.328 9.98 522.058 9.87 521.832 9.65C521.612 9.42333 521.502 9.15333 521.502 8.84C521.502 8.52667 521.612 8.25667 521.832 8.03C522.058 7.80333 522.328 7.69 522.642 7.69C522.848 7.69 523.038 7.74333 523.212 7.85C523.392 7.95667 523.535 8.09667 523.642 8.27C523.748 8.43667 523.802 8.62667 523.802 8.84C523.802 9.15333 523.688 9.42333 523.462 9.65C523.235 9.87 522.962 9.98 522.642 9.98ZM530.742 12.55C531.282 12.55 531.805 12.6633 532.312 12.89C532.825 13.1167 533.245 13.4767 533.572 13.97C533.905 14.4567 534.072 15.0933 534.072 15.88V21H532.312V16.22C532.312 15.4067 532.122 14.8167 531.742 14.45C531.362 14.0767 530.872 13.89 530.272 13.89C529.878 13.89 529.498 14.0033 529.132 14.23C528.772 14.45 528.475 14.7567 528.242 15.15C528.008 15.5367 527.892 15.9767 527.892 16.47V21H526.152V12.79H527.892V14.25C527.952 14.0233 528.115 13.7767 528.382 13.51C528.648 13.2433 528.988 13.0167 529.402 12.83C529.815 12.6433 530.262 12.55 530.742 12.55ZM540.267 25.39C539.62 25.39 539.034 25.3233 538.507 25.19C537.987 25.0567 537.53 24.8667 537.137 24.62C536.75 24.38 536.44 24.0967 536.207 23.77L537.347 22.68C537.474 22.8533 537.644 23.0367 537.857 23.23C538.077 23.43 538.374 23.6 538.747 23.74C539.12 23.88 539.607 23.95 540.207 23.95C540.794 23.95 541.29 23.8233 541.697 23.57C542.104 23.3233 542.414 22.9867 542.627 22.56C542.84 22.1333 542.947 21.6533 542.947 21.12V20.85H544.647V21.23C544.647 22.1367 544.45 22.8967 544.057 23.51C543.67 24.13 543.147 24.5967 542.487 24.91C541.827 25.23 541.087 25.39 540.267 25.39ZM542.947 21V19.4C542.894 19.5667 542.737 19.7967 542.477 20.09C542.224 20.3833 541.874 20.65 541.427 20.89C540.987 21.1233 540.467 21.24 539.867 21.24C539.107 21.24 538.417 21.06 537.797 20.7C537.184 20.34 536.694 19.8367 536.327 19.19C535.967 18.5367 535.787 17.7733 535.787 16.9C535.787 16.0267 535.967 15.2667 536.327 14.62C536.694 13.9667 537.184 13.46 537.797 13.1C538.417 12.7333 539.107 12.55 539.867 12.55C540.46 12.55 540.974 12.6567 541.407 12.87C541.847 13.0833 542.197 13.33 542.457 13.61C542.724 13.89 542.88 14.13 542.927 14.33V12.79H544.647V21H542.947ZM537.507 16.9C537.507 17.4933 537.637 18.0067 537.897 18.44C538.157 18.8733 538.494 19.21 538.907 19.45C539.327 19.6833 539.774 19.8 540.247 19.8C540.754 19.8 541.207 19.68 541.607 19.44C542.007 19.2 542.324 18.8633 542.557 18.43C542.79 17.99 542.907 17.48 542.907 16.9C542.907 16.32 542.79 15.8133 542.557 15.38C542.324 14.94 542.007 14.6 541.607 14.36C541.207 14.1133 540.754 13.99 540.247 13.99C539.774 13.99 539.327 14.11 538.907 14.35C538.494 14.59 538.157 14.9267 537.897 15.36C537.637 15.7933 537.507 16.3067 537.507 16.9ZM391.835 30.55C392.375 30.55 392.899 30.6633 393.405 30.89C393.919 31.1167 394.339 31.4767 394.665 31.97C394.999 32.4567 395.165 33.0933 395.165 33.88V39H393.405V34.22C393.405 33.4067 393.215 32.8167 392.835 32.45C392.455 32.0767 391.965 31.89 391.365 31.89C390.972 31.89 390.592 32.0033 390.225 32.23C389.865 32.45 389.569 32.7567 389.335 33.15C389.102 33.5367 388.985 33.9767 388.985 34.47V39H387.245V30.79H388.985V32.25C389.045 32.0233 389.209 31.7767 389.475 31.51C389.742 31.2433 390.082 31.0167 390.495 30.83C390.909 30.6433 391.355 30.55 391.835 30.55ZM398.531 35.25C398.537 35.7433 398.644 36.1933 398.851 36.6C399.057 37.0067 399.364 37.33 399.771 37.57C400.184 37.81 400.691 37.93 401.291 37.93C401.797 37.93 402.227 37.8567 402.581 37.71C402.941 37.5567 403.234 37.3767 403.461 37.17C403.687 36.9567 403.851 36.7667 403.951 36.6L404.801 37.65C404.581 37.97 404.311 38.25 403.991 38.49C403.677 38.73 403.294 38.9133 402.841 39.04C402.387 39.1733 401.834 39.24 401.181 39.24C400.301 39.24 399.537 39.0533 398.891 38.68C398.251 38.3 397.757 37.7767 397.411 37.11C397.064 36.4367 396.891 35.6667 396.891 34.8C396.891 34 397.054 33.28 397.381 32.64C397.707 31.9933 398.181 31.4833 398.801 31.11C399.427 30.7367 400.181 30.55 401.061 30.55C401.867 30.55 402.567 30.72 403.161 31.06C403.761 31.3933 404.224 31.8667 404.551 32.48C404.884 33.0933 405.051 33.8267 405.051 34.68C405.051 34.7333 405.047 34.83 405.041 34.97C405.034 35.1033 405.027 35.1967 405.021 35.25H398.531ZM403.391 33.94C403.384 33.6667 403.304 33.3667 403.151 33.04C403.004 32.7133 402.764 32.4333 402.431 32.2C402.097 31.9667 401.647 31.85 401.081 31.85C400.494 31.85 400.021 31.9633 399.661 32.19C399.307 32.4167 399.047 32.6933 398.881 33.02C398.714 33.34 398.617 33.6467 398.591 33.94H403.391ZM406.272 30.79H407.882V27.42H409.612V30.79H411.722V32.28H409.612V36.34C409.612 36.82 409.695 37.1733 409.862 37.4C410.035 37.6267 410.265 37.74 410.552 37.74C410.805 37.74 411.002 37.6933 411.142 37.6C411.282 37.5067 411.365 37.4433 411.392 37.41L412.082 38.69C412.042 38.7233 411.935 38.7867 411.762 38.88C411.589 38.9733 411.365 39.0567 411.092 39.13C410.819 39.2033 410.499 39.24 410.132 39.24C409.492 39.24 408.955 39.0467 408.522 38.66C408.095 38.2667 407.882 37.6467 407.882 36.8V32.28H406.272V30.79ZM419.003 32.85L416.913 39H415.113L412.883 30.79H414.733L416.223 37.1L418.283 30.95H419.723L421.763 37.1L423.263 30.79H425.123L422.893 39H421.093L419.003 32.85ZM430.635 39.24C429.788 39.24 429.035 39.05 428.375 38.67C427.722 38.29 427.208 37.7767 426.835 37.13C426.462 36.4767 426.275 35.74 426.275 34.92C426.275 34.1 426.462 33.36 426.835 32.7C427.208 32.04 427.722 31.5167 428.375 31.13C429.035 30.7433 429.788 30.55 430.635 30.55C431.475 30.55 432.218 30.7433 432.865 31.13C433.518 31.5167 434.028 32.04 434.395 32.7C434.762 33.36 434.945 34.1 434.945 34.92C434.945 35.74 434.762 36.4767 434.395 37.13C434.028 37.7767 433.518 38.29 432.865 38.67C432.218 39.05 431.475 39.24 430.635 39.24ZM430.635 37.75C431.168 37.75 431.632 37.6267 432.025 37.38C432.425 37.1333 432.735 36.7967 432.955 36.37C433.175 35.9367 433.285 35.45 433.285 34.91C433.285 34.37 433.175 33.8833 432.955 33.45C432.735 33.0167 432.425 32.6733 432.025 32.42C431.632 32.1667 431.168 32.04 430.635 32.04C430.095 32.04 429.625 32.1667 429.225 32.42C428.825 32.6733 428.512 33.0167 428.285 33.45C428.065 33.8833 427.955 34.37 427.955 34.91C427.955 35.45 428.065 35.9367 428.285 36.37C428.512 36.7967 428.825 37.1333 429.225 37.38C429.625 37.6267 430.095 37.75 430.635 37.75ZM438.584 39H436.854V30.79H438.584V32.21H438.534C438.568 32.0367 438.691 31.82 438.904 31.56C439.118 31.3 439.411 31.0667 439.784 30.86C440.158 30.6533 440.604 30.55 441.124 30.55C441.504 30.55 441.838 30.6033 442.124 30.71C442.418 30.81 442.624 30.91 442.744 31.01L442.034 32.45C441.941 32.3567 441.778 32.2633 441.544 32.17C441.311 32.07 441.021 32.02 440.674 32.02C440.234 32.02 439.858 32.1567 439.544 32.43C439.231 32.7033 438.991 33.0333 438.824 33.42C438.664 33.8 438.584 34.1533 438.584 34.48V39ZM448.886 30.79H450.986L446.746 34.7L451.266 39H449.136L445.326 35.36V39H443.586V25.24H445.326V34.04L448.886 30.79ZM461.33 37.8C461.85 37.8 462.27 37.7167 462.59 37.55C462.91 37.3833 463.11 37.2633 463.19 37.19L464.04 38.44C463.973 38.5 463.813 38.5967 463.56 38.73C463.313 38.8567 462.993 38.9733 462.6 39.08C462.213 39.1867 461.773 39.24 461.28 39.24C460.527 39.24 459.827 39.0733 459.18 38.74C458.533 38.4 458.01 37.9067 457.61 37.26C457.217 36.6133 457.02 35.8233 457.02 34.89C457.02 33.95 457.217 33.16 457.61 32.52C458.01 31.8733 458.533 31.3833 459.18 31.05C459.827 30.7167 460.527 30.55 461.28 30.55C461.767 30.55 462.2 30.61 462.58 30.73C462.96 30.8433 463.273 30.97 463.52 31.11C463.767 31.25 463.93 31.3567 464.01 31.43L463.15 32.68C463.097 32.6267 462.993 32.5467 462.84 32.44C462.693 32.3267 462.493 32.2233 462.24 32.13C461.987 32.0367 461.683 31.99 461.33 31.99C460.903 31.99 460.487 32.1067 460.08 32.34C459.68 32.5667 459.35 32.8967 459.09 33.33C458.83 33.7633 458.7 34.2833 458.7 34.89C458.7 35.4967 458.83 36.02 459.09 36.46C459.35 36.8933 459.68 37.2267 460.08 37.46C460.487 37.6867 460.903 37.8 461.33 37.8ZM472.361 39V37.4C472.308 37.5667 472.151 37.7967 471.891 38.09C471.638 38.3833 471.288 38.65 470.841 38.89C470.401 39.1233 469.881 39.24 469.281 39.24C468.521 39.24 467.831 39.06 467.211 38.7C466.598 38.34 466.108 37.8367 465.741 37.19C465.381 36.5367 465.201 35.7733 465.201 34.9C465.201 34.0267 465.381 33.2667 465.741 32.62C466.108 31.9667 466.598 31.46 467.211 31.1C467.831 30.7333 468.521 30.55 469.281 30.55C469.874 30.55 470.388 30.6567 470.821 30.87C471.261 31.0833 471.611 31.33 471.871 31.61C472.138 31.89 472.294 32.13 472.341 32.33V30.79H474.061V39H472.361ZM466.921 34.9C466.921 35.4933 467.051 36.0067 467.311 36.44C467.571 36.8733 467.908 37.21 468.321 37.45C468.741 37.6833 469.188 37.8 469.661 37.8C470.168 37.8 470.621 37.68 471.021 37.44C471.421 37.2 471.738 36.8633 471.971 36.43C472.204 35.99 472.321 35.48 472.321 34.9C472.321 34.32 472.204 33.8133 471.971 33.38C471.738 32.94 471.421 32.6 471.021 32.36C470.621 32.1133 470.168 31.99 469.661 31.99C469.188 31.99 468.741 32.11 468.321 32.35C467.908 32.59 467.571 32.9267 467.311 33.36C467.051 33.7933 466.921 34.3067 466.921 34.9ZM480.976 30.55C481.516 30.55 482.039 30.6633 482.546 30.89C483.059 31.1167 483.479 31.4767 483.806 31.97C484.139 32.4567 484.306 33.0933 484.306 33.88V39H482.546V34.22C482.546 33.4067 482.356 32.8167 481.976 32.45C481.596 32.0767 481.106 31.89 480.506 31.89C480.113 31.89 479.733 32.0033 479.366 32.23C479.006 32.45 478.709 32.7567 478.476 33.15C478.243 33.5367 478.126 33.9767 478.126 34.47V39H476.386V30.79H478.126V32.25C478.186 32.0233 478.349 31.7767 478.616 31.51C478.883 31.2433 479.223 31.0167 479.636 30.83C480.049 30.6433 480.496 30.55 480.976 30.55ZM496.212 30.55C496.752 30.55 497.275 30.6633 497.782 30.89C498.295 31.1167 498.715 31.4767 499.042 31.97C499.375 32.4567 499.542 33.0933 499.542 33.88V39H497.782V34.22C497.782 33.4067 497.595 32.8167 497.222 32.45C496.855 32.0767 496.372 31.89 495.772 31.89C495.372 31.89 494.988 32.0033 494.622 32.23C494.255 32.45 493.952 32.7567 493.712 33.15C493.478 33.5367 493.362 33.9767 493.362 34.47V39H491.602V25.24H493.362V32.25C493.422 32.0233 493.582 31.7767 493.842 31.51C494.108 31.2433 494.448 31.0167 494.862 30.83C495.275 30.6433 495.725 30.55 496.212 30.55ZM508.494 39V37.4C508.44 37.5667 508.284 37.7967 508.024 38.09C507.77 38.3833 507.42 38.65 506.974 38.89C506.534 39.1233 506.014 39.24 505.414 39.24C504.654 39.24 503.964 39.06 503.344 38.7C502.73 38.34 502.24 37.8367 501.874 37.19C501.514 36.5367 501.334 35.7733 501.334 34.9C501.334 34.0267 501.514 33.2667 501.874 32.62C502.24 31.9667 502.73 31.46 503.344 31.1C503.964 30.7333 504.654 30.55 505.414 30.55C506.007 30.55 506.52 30.6567 506.954 30.87C507.394 31.0833 507.744 31.33 508.004 31.61C508.27 31.89 508.427 32.13 508.474 32.33V30.79H510.194V39H508.494ZM503.054 34.9C503.054 35.4933 503.184 36.0067 503.444 36.44C503.704 36.8733 504.04 37.21 504.454 37.45C504.874 37.6833 505.32 37.8 505.794 37.8C506.3 37.8 506.754 37.68 507.154 37.44C507.554 37.2 507.87 36.8633 508.104 36.43C508.337 35.99 508.454 35.48 508.454 34.9C508.454 34.32 508.337 33.8133 508.104 33.38C507.87 32.94 507.554 32.6 507.154 32.36C506.754 32.1133 506.3 31.99 505.794 31.99C505.32 31.99 504.874 32.11 504.454 32.35C504.04 32.59 503.704 32.9267 503.444 33.36C503.184 33.7933 503.054 34.3067 503.054 34.9ZM517.109 30.55C517.649 30.55 518.172 30.6633 518.679 30.89C519.192 31.1167 519.612 31.4767 519.939 31.97C520.272 32.4567 520.439 33.0933 520.439 33.88V39H518.679V34.22C518.679 33.4067 518.489 32.8167 518.109 32.45C517.729 32.0767 517.239 31.89 516.639 31.89C516.245 31.89 515.865 32.0033 515.499 32.23C515.139 32.45 514.842 32.7567 514.609 33.15C514.375 33.5367 514.259 33.9767 514.259 34.47V39H512.519V30.79H514.259V32.25C514.319 32.0233 514.482 31.7767 514.749 31.51C515.015 31.2433 515.355 31.0167 515.769 30.83C516.182 30.6433 516.629 30.55 517.109 30.55ZM526.334 39.24C525.581 39.24 524.904 39.06 524.304 38.7C523.711 38.34 523.241 37.8367 522.894 37.19C522.554 36.5367 522.384 35.7733 522.384 34.9C522.384 34.0267 522.554 33.2667 522.894 32.62C523.241 31.9667 523.711 31.46 524.304 31.1C524.904 30.7333 525.581 30.55 526.334 30.55C526.941 30.55 527.474 30.6567 527.934 30.87C528.394 31.0767 528.761 31.32 529.034 31.6C529.307 31.88 529.464 32.1233 529.504 32.33V25.24H531.254V39H529.534V37.4C529.461 37.6267 529.277 37.8833 528.984 38.17C528.697 38.4567 528.327 38.7067 527.874 38.92C527.421 39.1333 526.907 39.24 526.334 39.24ZM526.734 37.8C527.241 37.8 527.704 37.68 528.124 37.44C528.544 37.2 528.877 36.8633 529.124 36.43C529.377 35.99 529.504 35.48 529.504 34.9C529.504 34.32 529.377 33.8133 529.124 33.38C528.877 32.94 528.544 32.6 528.124 32.36C527.704 32.1133 527.241 31.99 526.734 31.99C526.267 31.99 525.834 32.11 525.434 32.35C525.034 32.59 524.711 32.9267 524.464 33.36C524.224 33.7933 524.104 34.3067 524.104 34.9C524.104 35.4933 524.224 36.0067 524.464 36.44C524.711 36.8733 525.034 37.21 525.434 37.45C525.834 37.6833 526.267 37.8 526.734 37.8ZM535.012 39H533.262V25.24H535.012V39ZM538.609 35.25C538.615 35.7433 538.722 36.1933 538.929 36.6C539.135 37.0067 539.442 37.33 539.849 37.57C540.262 37.81 540.769 37.93 541.369 37.93C541.875 37.93 542.305 37.8567 542.659 37.71C543.019 37.5567 543.312 37.3767 543.539 37.17C543.765 36.9567 543.929 36.7667 544.029 36.6L544.879 37.65C544.659 37.97 544.389 38.25 544.069 38.49C543.755 38.73 543.372 38.9133 542.919 39.04C542.465 39.1733 541.912 39.24 541.259 39.24C540.379 39.24 539.615 39.0533 538.969 38.68C538.329 38.3 537.835 37.7767 537.489 37.11C537.142 36.4367 536.969 35.6667 536.969 34.8C536.969 34 537.132 33.28 537.459 32.64C537.785 31.9933 538.259 31.4833 538.879 31.11C539.505 30.7367 540.259 30.55 541.139 30.55C541.945 30.55 542.645 30.72 543.239 31.06C543.839 31.3933 544.302 31.8667 544.629 32.48C544.962 33.0933 545.129 33.8267 545.129 34.68C545.129 34.7333 545.125 34.83 545.119 34.97C545.112 35.1033 545.105 35.1967 545.099 35.25H538.609ZM543.469 33.94C543.462 33.6667 543.382 33.3667 543.229 33.04C543.082 32.7133 542.842 32.4333 542.509 32.2C542.175 31.9667 541.725 31.85 541.159 31.85C540.572 31.85 540.099 31.9633 539.739 32.19C539.385 32.4167 539.125 32.6933 538.959 33.02C538.792 33.34 538.695 33.6467 538.669 33.94H543.469ZM459.952 57.24C459.105 57.24 458.352 57.05 457.692 56.67C457.038 56.29 456.525 55.7767 456.152 55.13C455.778 54.4767 455.592 53.74 455.592 52.92C455.592 52.1 455.778 51.36 456.152 50.7C456.525 50.04 457.038 49.5167 457.692 49.13C458.352 48.7433 459.105 48.55 459.952 48.55C460.792 48.55 461.535 48.7433 462.182 49.13C462.835 49.5167 463.345 50.04 463.712 50.7C464.078 51.36 464.262 52.1 464.262 52.92C464.262 53.74 464.078 54.4767 463.712 55.13C463.345 55.7767 462.835 56.29 462.182 56.67C461.535 57.05 460.792 57.24 459.952 57.24ZM459.952 55.75C460.485 55.75 460.948 55.6267 461.342 55.38C461.742 55.1333 462.052 54.7967 462.272 54.37C462.492 53.9367 462.602 53.45 462.602 52.91C462.602 52.37 462.492 51.8833 462.272 51.45C462.052 51.0167 461.742 50.6733 461.342 50.42C460.948 50.1667 460.485 50.04 459.952 50.04C459.412 50.04 458.942 50.1667 458.542 50.42C458.142 50.6733 457.828 51.0167 457.602 51.45C457.382 51.8833 457.272 52.37 457.272 52.91C457.272 53.45 457.382 53.9367 457.602 54.37C457.828 54.7967 458.142 55.1333 458.542 55.38C458.942 55.6267 459.412 55.75 459.952 55.75ZM465.343 48.79H467.023V46.46C467.023 45.6267 467.166 44.9567 467.453 44.45C467.746 43.9433 468.116 43.5767 468.563 43.35C469.016 43.1167 469.479 43 469.953 43C470.526 43 470.966 43.08 471.273 43.24C471.586 43.4 471.773 43.5067 471.833 43.56L471.133 44.89C471.099 44.85 470.996 44.7767 470.823 44.67C470.649 44.5633 470.413 44.51 470.112 44.51C469.893 44.51 469.679 44.5633 469.473 44.67C469.266 44.7767 469.093 44.9833 468.953 45.29C468.813 45.5967 468.743 46.0533 468.743 46.66V48.79H471.083V50.28H468.743V57H467.023V50.28H465.343V48.79ZM479.346 57H477.616V48.79H479.346V50.21H479.296C479.329 50.0367 479.453 49.82 479.666 49.56C479.879 49.3 480.173 49.0667 480.546 48.86C480.919 48.6533 481.366 48.55 481.886 48.55C482.266 48.55 482.599 48.6033 482.886 48.71C483.179 48.81 483.386 48.91 483.506 49.01L482.796 50.45C482.703 50.3567 482.539 50.2633 482.306 50.17C482.073 50.07 481.783 50.02 481.436 50.02C480.996 50.02 480.619 50.1567 480.306 50.43C479.993 50.7033 479.753 51.0333 479.586 51.42C479.426 51.8 479.346 52.1533 479.346 52.48V57ZM485.542 53.25C485.549 53.7433 485.656 54.1933 485.862 54.6C486.069 55.0067 486.376 55.33 486.782 55.57C487.196 55.81 487.702 55.93 488.302 55.93C488.809 55.93 489.239 55.8567 489.592 55.71C489.952 55.5567 490.246 55.3767 490.472 55.17C490.699 54.9567 490.862 54.7667 490.962 54.6L491.812 55.65C491.592 55.97 491.322 56.25 491.002 56.49C490.689 56.73 490.306 56.9133 489.852 57.04C489.399 57.1733 488.846 57.24 488.192 57.24C487.312 57.24 486.549 57.0533 485.902 56.68C485.262 56.3 484.769 55.7767 484.422 55.11C484.076 54.4367 483.902 53.6667 483.902 52.8C483.902 52 484.066 51.28 484.392 50.64C484.719 49.9933 485.192 49.4833 485.812 49.11C486.439 48.7367 487.192 48.55 488.072 48.55C488.879 48.55 489.579 48.72 490.172 49.06C490.772 49.3933 491.236 49.8667 491.562 50.48C491.896 51.0933 492.062 51.8267 492.062 52.68C492.062 52.7333 492.059 52.83 492.052 52.97C492.046 53.1033 492.039 53.1967 492.032 53.25H485.542ZM490.402 51.94C490.396 51.6667 490.316 51.3667 490.162 51.04C490.016 50.7133 489.776 50.4333 489.442 50.2C489.109 49.9667 488.659 49.85 488.092 49.85C487.506 49.85 487.032 49.9633 486.672 50.19C486.319 50.4167 486.059 50.6933 485.892 51.02C485.726 51.34 485.629 51.6467 485.602 51.94H490.402ZM500.844 61.16V55.4C500.81 55.5733 500.66 55.8067 500.394 56.1C500.127 56.3933 499.764 56.6567 499.304 56.89C498.844 57.1233 498.3 57.24 497.674 57.24C496.914 57.24 496.234 57.06 495.634 56.7C495.034 56.34 494.56 55.8367 494.214 55.19C493.867 54.5367 493.694 53.7733 493.694 52.9C493.694 52.0267 493.86 51.2667 494.194 50.62C494.534 49.9667 495 49.46 495.594 49.1C496.187 48.7333 496.86 48.55 497.614 48.55C498.22 48.55 498.754 48.6567 499.214 48.87C499.674 49.0767 500.04 49.32 500.314 49.6C500.594 49.88 500.76 50.1233 500.814 50.33V48.79H502.574V61.16H500.844ZM498.044 55.8C498.564 55.8 499.03 55.68 499.444 55.44C499.864 55.2 500.197 54.8633 500.444 54.43C500.69 53.99 500.814 53.48 500.814 52.9C500.814 52.32 500.69 51.8133 500.444 51.38C500.197 50.94 499.864 50.6 499.444 50.36C499.03 50.1133 498.564 49.99 498.044 49.99C497.577 49.99 497.144 50.11 496.744 50.35C496.344 50.59 496.02 50.9267 495.774 51.36C495.534 51.7933 495.414 52.3067 495.414 52.9C495.414 53.4933 495.534 54.0067 495.774 54.44C496.02 54.8733 496.344 55.21 496.744 55.45C497.144 55.6833 497.577 55.8 498.044 55.8ZM506.336 52.93C506.336 53.79 506.52 54.4767 506.886 54.99C507.26 55.4967 507.83 55.75 508.596 55.75C509.37 55.75 509.94 55.4967 510.306 54.99C510.673 54.4767 510.856 53.79 510.856 52.93V48.79H512.576V53.17C512.576 53.97 512.42 54.6767 512.106 55.29C511.8 55.9033 511.35 56.3833 510.756 56.73C510.17 57.07 509.45 57.24 508.596 57.24C507.75 57.24 507.03 57.07 506.436 56.73C505.85 56.3833 505.4 55.9033 505.086 55.29C504.78 54.6767 504.626 53.97 504.626 53.17V48.79H506.336V52.93ZM516.031 53.25C516.037 53.7433 516.144 54.1933 516.351 54.6C516.557 55.0067 516.864 55.33 517.271 55.57C517.684 55.81 518.191 55.93 518.791 55.93C519.297 55.93 519.727 55.8567 520.081 55.71C520.441 55.5567 520.734 55.3767 520.961 55.17C521.187 54.9567 521.351 54.7667 521.451 54.6L522.301 55.65C522.081 55.97 521.811 56.25 521.491 56.49C521.177 56.73 520.794 56.9133 520.341 57.04C519.887 57.1733 519.334 57.24 518.681 57.24C517.801 57.24 517.037 57.0533 516.391 56.68C515.751 56.3 515.257 55.7767 514.911 55.11C514.564 54.4367 514.391 53.6667 514.391 52.8C514.391 52 514.554 51.28 514.881 50.64C515.207 49.9933 515.681 49.4833 516.301 49.11C516.927 48.7367 517.681 48.55 518.561 48.55C519.367 48.55 520.067 48.72 520.661 49.06C521.261 49.3933 521.724 49.8667 522.051 50.48C522.384 51.0933 522.551 51.8267 522.551 52.68C522.551 52.7333 522.547 52.83 522.541 52.97C522.534 53.1033 522.527 53.1967 522.521 53.25H516.031ZM520.891 51.94C520.884 51.6667 520.804 51.3667 520.651 51.04C520.504 50.7133 520.264 50.4333 519.931 50.2C519.597 49.9667 519.147 49.85 518.581 49.85C517.994 49.85 517.521 49.9633 517.161 50.19C516.807 50.4167 516.547 50.6933 516.381 51.02C516.214 51.34 516.117 51.6467 516.091 51.94H520.891ZM527.552 48.55C527.979 48.55 528.375 48.5933 528.742 48.68C529.115 48.7667 529.435 48.87 529.702 48.99C529.975 49.11 530.169 49.2167 530.282 49.31L529.592 50.41C529.459 50.29 529.219 50.1567 528.872 50.01C528.525 49.8567 528.139 49.78 527.712 49.78C527.245 49.78 526.849 49.8733 526.522 50.06C526.195 50.24 526.032 50.5033 526.032 50.85C526.032 51.1967 526.199 51.4733 526.532 51.68C526.872 51.88 527.325 52.0467 527.892 52.18C528.345 52.2867 528.769 52.43 529.162 52.61C529.562 52.79 529.885 53.04 530.132 53.36C530.379 53.6733 530.502 54.0933 530.502 54.62C530.502 55.1 530.402 55.51 530.202 55.85C530.002 56.1833 529.732 56.4533 529.392 56.66C529.052 56.86 528.672 57.0067 528.252 57.1C527.832 57.1933 527.405 57.24 526.972 57.24C526.465 57.24 526.009 57.1867 525.602 57.08C525.195 56.98 524.852 56.86 524.572 56.72C524.299 56.5733 524.099 56.4467 523.972 56.34L524.662 55.1C524.835 55.2667 525.119 55.4433 525.512 55.63C525.912 55.8167 526.365 55.91 526.872 55.91C527.432 55.91 527.885 55.7933 528.232 55.56C528.579 55.32 528.752 55.01 528.752 54.63C528.752 54.3433 528.669 54.1133 528.502 53.94C528.335 53.7667 528.112 53.6267 527.832 53.52C527.552 53.4133 527.245 53.32 526.912 53.24C526.592 53.1667 526.279 53.07 525.972 52.95C525.672 52.83 525.395 52.6767 525.142 52.49C524.895 52.2967 524.699 52.0633 524.552 51.79C524.405 51.51 524.332 51.1833 524.332 50.81C524.332 50.3367 524.482 49.9333 524.782 49.6C525.082 49.26 525.475 49 525.962 48.82C526.449 48.64 526.979 48.55 527.552 48.55ZM531.682 48.79H533.292V45.42H535.022V48.79H537.132V50.28H535.022V54.34C535.022 54.82 535.105 55.1733 535.272 55.4C535.445 55.6267 535.675 55.74 535.962 55.74C536.215 55.74 536.412 55.6933 536.552 55.6C536.692 55.5067 536.775 55.4433 536.802 55.41L537.492 56.69C537.452 56.7233 537.345 56.7867 537.172 56.88C536.999 56.9733 536.775 57.0567 536.502 57.13C536.229 57.2033 535.909 57.24 535.542 57.24C534.902 57.24 534.365 57.0467 533.932 56.66C533.505 56.2667 533.292 55.6467 533.292 54.8V50.28H531.682V48.79ZM542.083 48.55C542.51 48.55 542.906 48.5933 543.273 48.68C543.646 48.7667 543.966 48.87 544.233 48.99C544.506 49.11 544.7 49.2167 544.813 49.31L544.123 50.41C543.99 50.29 543.75 50.1567 543.403 50.01C543.056 49.8567 542.67 49.78 542.243 49.78C541.776 49.78 541.38 49.8733 541.053 50.06C540.726 50.24 540.563 50.5033 540.563 50.85C540.563 51.1967 540.73 51.4733 541.063 51.68C541.403 51.88 541.856 52.0467 542.423 52.18C542.876 52.2867 543.3 52.43 543.693 52.61C544.093 52.79 544.416 53.04 544.663 53.36C544.91 53.6733 545.033 54.0933 545.033 54.62C545.033 55.1 544.933 55.51 544.733 55.85C544.533 56.1833 544.263 56.4533 543.923 56.66C543.583 56.86 543.203 57.0067 542.783 57.1C542.363 57.1933 541.936 57.24 541.503 57.24C540.996 57.24 540.54 57.1867 540.133 57.08C539.726 56.98 539.383 56.86 539.103 56.72C538.83 56.5733 538.63 56.4467 538.503 56.34L539.193 55.1C539.366 55.2667 539.65 55.4433 540.043 55.63C540.443 55.8167 540.896 55.91 541.403 55.91C541.963 55.91 542.416 55.7933 542.763 55.56C543.11 55.32 543.283 55.01 543.283 54.63C543.283 54.3433 543.2 54.1133 543.033 53.94C542.866 53.7667 542.643 53.6267 542.363 53.52C542.083 53.4133 541.776 53.32 541.443 53.24C541.123 53.1667 540.81 53.07 540.503 52.95C540.203 52.83 539.926 52.6767 539.673 52.49C539.426 52.2967 539.23 52.0633 539.083 51.79C538.936 51.51 538.863 51.1833 538.863 50.81C538.863 50.3367 539.013 49.9333 539.313 49.6C539.613 49.26 540.006 49 540.493 48.82C540.98 48.64 541.51 48.55 542.083 48.55Z" fill="#73799B"/>
<path d="M395.669 48.55C396.289 48.55 396.836 48.68 397.309 48.94C397.782 49.1933 398.152 49.5867 398.419 50.12C398.692 50.6533 398.829 51.34 398.829 52.18V57H395.839V52.64C395.839 52.0667 395.752 51.6033 395.579 51.25C395.406 50.8967 395.062 50.72 394.549 50.72C394.242 50.72 393.972 50.8 393.739 50.96C393.506 51.12 393.326 51.3433 393.199 51.63C393.072 51.91 393.009 52.2467 393.009 52.64V57H390.219V52.64C390.219 52.0667 390.122 51.6033 389.929 51.25C389.742 50.8967 389.409 50.72 388.929 50.72C388.622 50.72 388.352 50.8 388.119 50.96C387.886 51.1133 387.706 51.3333 387.579 51.62C387.459 51.9 387.399 52.24 387.399 52.64V57H384.379V48.79H387.399V49.96C387.479 49.7533 387.652 49.5433 387.919 49.33C388.192 49.11 388.529 48.9267 388.929 48.78C389.329 48.6267 389.752 48.55 390.199 48.55C390.686 48.55 391.092 48.6233 391.419 48.77C391.746 48.91 392.012 49.1 392.219 49.34C392.432 49.58 392.602 49.84 392.729 50.12C392.822 49.88 393.006 49.64 393.279 49.4C393.559 49.1533 393.906 48.95 394.319 48.79C394.739 48.63 395.189 48.55 395.669 48.55ZM400.69 57V48.79H403.73V57H400.69ZM402.25 47.1C401.77 47.1 401.363 46.9333 401.03 46.6C400.697 46.26 400.53 45.8567 400.53 45.39C400.53 44.9233 400.697 44.52 401.03 44.18C401.37 43.8333 401.777 43.66 402.25 43.66C402.563 43.66 402.85 43.74 403.11 43.9C403.37 44.0533 403.58 44.26 403.74 44.52C403.9 44.78 403.98 45.07 403.98 45.39C403.98 45.8567 403.81 46.26 403.47 46.6C403.13 46.9333 402.723 47.1 402.25 47.1ZM408.864 57H405.814V43.24H408.864V57ZM413.864 57H410.814V43.24H413.864V57ZM415.924 57V48.79H418.964V57H415.924ZM417.484 47.1C417.004 47.1 416.598 46.9333 416.264 46.6C415.931 46.26 415.764 45.8567 415.764 45.39C415.764 44.9233 415.931 44.52 416.264 44.18C416.604 43.8333 417.011 43.66 417.484 43.66C417.798 43.66 418.084 43.74 418.344 43.9C418.604 44.0533 418.814 44.26 418.974 44.52C419.134 44.78 419.214 45.07 419.214 45.39C419.214 45.8567 419.044 46.26 418.704 46.6C418.364 46.9333 417.958 47.1 417.484 47.1ZM425.239 57.24C424.339 57.24 423.539 57.0567 422.839 56.69C422.145 56.3167 421.599 55.8067 421.199 55.16C420.805 54.5067 420.609 53.76 420.609 52.92C420.609 52.08 420.805 51.3333 421.199 50.68C421.599 50.02 422.145 49.5 422.839 49.12C423.539 48.74 424.339 48.55 425.239 48.55C426.139 48.55 426.932 48.74 427.619 49.12C428.305 49.5 428.842 50.02 429.229 50.68C429.615 51.3333 429.809 52.08 429.809 52.92C429.809 53.76 429.615 54.5067 429.229 55.16C428.842 55.8067 428.305 56.3167 427.619 56.69C426.932 57.0567 426.139 57.24 425.239 57.24ZM425.239 54.74C425.585 54.74 425.885 54.6633 426.139 54.51C426.392 54.3567 426.589 54.14 426.729 53.86C426.869 53.58 426.939 53.2633 426.939 52.91C426.939 52.55 426.869 52.23 426.729 51.95C426.589 51.67 426.392 51.45 426.139 51.29C425.885 51.13 425.585 51.05 425.239 51.05C424.892 51.05 424.589 51.13 424.329 51.29C424.075 51.45 423.875 51.67 423.729 51.95C423.589 52.23 423.519 52.55 423.519 52.91C423.519 53.2633 423.589 53.58 423.729 53.86C423.875 54.14 424.075 54.3567 424.329 54.51C424.589 54.6633 424.892 54.74 425.239 54.74ZM437.041 48.55C437.614 48.55 438.174 48.6667 438.721 48.9C439.267 49.1333 439.717 49.5033 440.071 50.01C440.424 50.51 440.601 51.17 440.601 51.99V57H437.551V52.49C437.551 51.9033 437.411 51.4633 437.131 51.17C436.851 50.87 436.484 50.72 436.031 50.72C435.731 50.72 435.447 50.8 435.181 50.96C434.921 51.1133 434.707 51.3333 434.541 51.62C434.381 51.9 434.301 52.2233 434.301 52.59V57H431.261V48.79H434.301V50C434.381 49.78 434.547 49.56 434.801 49.34C435.061 49.1133 435.384 48.9267 435.771 48.78C436.164 48.6267 436.587 48.55 437.041 48.55ZM446.047 48.55C446.587 48.55 447.081 48.5967 447.527 48.69C447.974 48.7767 448.347 48.8767 448.647 48.99C448.954 49.1033 449.151 49.1967 449.237 49.27L448.247 51.06C448.121 50.9667 447.884 50.8467 447.537 50.7C447.197 50.5533 446.817 50.48 446.397 50.48C446.077 50.48 445.807 50.53 445.587 50.63C445.367 50.7233 445.257 50.8733 445.257 51.08C445.257 51.2867 445.377 51.4533 445.617 51.58C445.864 51.7 446.217 51.8067 446.677 51.9C447.077 51.98 447.484 52.1067 447.897 52.28C448.311 52.4533 448.654 52.71 448.927 53.05C449.207 53.3833 449.347 53.83 449.347 54.39C449.347 54.9633 449.224 55.4367 448.977 55.81C448.731 56.1833 448.404 56.4733 447.997 56.68C447.591 56.8867 447.151 57.03 446.677 57.11C446.204 57.1967 445.744 57.24 445.297 57.24C444.671 57.24 444.124 57.1833 443.657 57.07C443.197 56.9567 442.824 56.8267 442.537 56.68C442.251 56.5333 442.051 56.4167 441.937 56.33L442.917 54.33C443.091 54.4767 443.374 54.6433 443.767 54.83C444.161 55.01 444.577 55.1 445.017 55.1C445.444 55.1 445.774 55.0367 446.007 54.91C446.241 54.7833 446.357 54.6167 446.357 54.41C446.357 54.2433 446.301 54.11 446.187 54.01C446.074 53.91 445.914 53.8233 445.707 53.75C445.501 53.6767 445.251 53.61 444.957 53.55C444.691 53.4967 444.407 53.4133 444.107 53.3C443.807 53.1867 443.524 53.0333 443.257 52.84C442.991 52.64 442.774 52.39 442.607 52.09C442.441 51.79 442.357 51.4267 442.357 51C442.357 50.4533 442.534 50 442.887 49.64C443.241 49.28 443.697 49.01 444.257 48.83C444.817 48.6433 445.414 48.55 446.047 48.55Z" fill="white"/>
</svg>
