<svg width="56" height="55" viewBox="0 0 56 55" fill="none" xmlns="http://www.w3.org/2000/svg">
<path d="M3.14881 34.9662C-1.0496 30.8427 -1.0496 24.1573 3.14881 20.0338L20.3981 3.09258C24.5965 -1.03086 31.4035 -1.03086 35.6019 3.09258L52.8512 20.0338C57.0496 24.1573 57.0496 30.8427 52.8512 34.9662L35.6019 51.9074C31.4035 56.0309 24.5965 56.0309 20.3981 51.9074L3.14881 34.9662Z" fill="#14DFDA"/>
<path d="M15 28.5882C15 32.6816 18.3259 36 22.4286 36H29.3M24.9047 21.5982C24.1303 21.3251 23.2969 21.1765 22.4286 21.1765C21.5775 21.1765 20.7599 21.3193 19.9984 21.5822M19.9984 21.5822C20.4118 17.8792 23.5593 15 27.3809 15C31.4836 15 34.8095 18.3184 34.8095 22.4118C34.8095 23.3172 34.6468 24.1846 34.349 24.9867M19.9984 21.5822C19.1105 21.8887 18.299 22.3585 17.6 22.9556M34.349 24.9867C34.6983 24.9182 35.0592 24.8823 35.4286 24.8823C38.5056 24.8823 41 27.3711 41 30.4412C41 33.5112 38.5056 36 35.4286 36H34.5M34.349 24.9867C33.6152 25.1304 32.9331 25.4178 32.3333 25.8184" stroke="#040610" stroke-width="2" stroke-linecap="round"/>
</svg>
