<svg width="34" height="27" viewBox="0 0 34 27" fill="none" xmlns="http://www.w3.org/2000/svg">
<path d="M28.7824 2.1831C26.6153 1.17264 24.2916 0.428177 21.8619 0.00178901C21.8177 -0.00644182 21.7735 0.0141282 21.7507 0.055254C21.4517 0.595429 21.1207 1.30014 20.8889 1.85404C18.2756 1.45645 15.6757 1.45645 13.116 1.85404C12.8841 1.28782 12.541 0.595429 12.2408 0.055254C12.218 0.0155023 12.1738 -0.00506766 12.1296 0.00178901C9.70121 0.426817 7.37738 1.17128 5.20898 2.1831C5.19021 2.19132 5.17413 2.20505 5.16345 2.22285C0.755639 8.91485 -0.451846 15.4424 0.140505 21.8889C0.143185 21.9205 0.160607 21.9507 0.18473 21.9698C3.09288 24.1401 5.90992 25.4576 8.67465 26.331C8.71889 26.3448 8.76578 26.3283 8.79393 26.2912C9.44793 25.3837 10.0309 24.4267 10.5308 23.4203C10.5603 23.3614 10.5321 23.2914 10.4718 23.2682C9.5471 22.9118 8.6666 22.4771 7.81962 21.9836C7.75262 21.9437 7.74725 21.8464 7.80889 21.7998C7.98712 21.6641 8.16541 21.5229 8.33561 21.3802C8.36639 21.3543 8.4093 21.3487 8.4455 21.3652C14.0098 23.9468 20.0338 23.9468 25.5326 21.3652C25.5687 21.3473 25.6116 21.3529 25.6438 21.3789C25.8139 21.5214 25.9923 21.6641 26.1718 21.7998C26.2334 21.8464 26.2294 21.9437 26.1624 21.9836C25.3154 22.4866 24.4349 22.9117 23.5089 23.2668C23.4487 23.2901 23.4218 23.3614 23.4512 23.4203C23.9619 24.4253 24.5449 25.3823 25.1868 26.2899C25.2135 26.3283 25.2619 26.3448 25.3061 26.331C28.0841 25.4576 30.9012 24.1401 33.8093 21.9698C33.8348 21.9507 33.851 21.9218 33.8537 21.8903C34.5626 14.4374 32.6662 7.96337 28.8266 2.22423C28.8173 2.20505 28.8013 2.19132 28.7824 2.1831ZM11.3617 17.9636C9.68646 17.9636 8.3061 16.4008 8.3061 14.4812C8.3061 12.5617 9.65968 10.9989 11.3617 10.9989C13.0771 10.9989 14.444 12.5755 14.4173 14.4812C14.4173 16.4008 13.0637 17.9636 11.3617 17.9636ZM22.6592 17.9636C20.9841 17.9636 19.6037 16.4008 19.6037 14.4812C19.6037 12.5617 20.9572 10.9989 22.6592 10.9989C24.3746 10.9989 25.7415 12.5755 25.7148 14.4812C25.7148 16.4008 24.3746 17.9636 22.6592 17.9636Z" fill="white"/>
</svg>
