<svg width="563" height="674" viewBox="0 0 563 674" fill="none" xmlns="http://www.w3.org/2000/svg">
<path d="M99.3128 180.282C99.3128 146.524 119.826 116.141 152.142 101.513C168.084 94.4522 185.611 91.7479 202.937 93.6752C220.263 95.6024 236.769 102.092 250.774 112.484L321.587 46.3739C289.509 19.9857 250.142 4.03965 208.76 0.671042C167.378 -2.69756 125.955 6.67213 90.0396 27.5254C55.2758 46.8193 28.1191 77.3996 13.0491 114.222C-2.02088 151.044 -4.10403 191.909 7.14328 230.076C20.1675 268.755 45.1737 302.267 78.5272 325.742C111.881 349.217 151.843 361.431 192.606 360.609H265.105V267.773H192.606C141.182 267.211 99.3128 228.107 99.3128 180.001V180.282ZM478.95 313.347H406.451V406.183H478.95C530.374 406.183 572.243 445.568 572.243 493.392C572.243 541.779 530.374 580.602 478.95 580.602C427.526 580.602 385.656 542.061 385.656 493.955V180.001C385.656 135.552 367.953 92.5104 336.2 59.3146L265.386 125.988C278.594 140.898 285.9 160.309 285.9 180.282V493.674C285.9 593.261 372.449 674 478.95 674C585.732 674 672 593.261 672 493.674C672 394.086 585.732 313.347 478.95 313.347Z" fill="#0F1220"/>
</svg>
