<svg width="36" height="36" viewBox="0 0 36 36" fill="none" xmlns="http://www.w3.org/2000/svg">
<circle cx="18" cy="18" r="18" fill="#73799B"/>
<path d="M17.9167 28.8335C23.9459 28.8335 28.8335 23.9459 28.8335 17.9167C28.8335 11.8876 23.9459 7 17.9167 7C11.8876 7 7 11.8876 7 17.9167C7 23.9459 11.8876 28.8335 17.9167 28.8335Z" stroke="#303346" stroke-width="2"/>
<path d="M14.6421 22.2837C15.5704 22.9718 16.6995 23.3754 17.9171 23.3754C19.1348 23.3754 20.2638 22.9718 21.1921 22.2837" stroke="#303346" stroke-width="2" stroke-linecap="round"/>
<path d="M22.2834 16.2796C22.2834 17.1839 21.7947 17.9171 21.1918 17.9171C20.5888 17.9171 20.1001 17.1839 20.1001 16.2796C20.1001 15.3752 20.5888 14.6421 21.1918 14.6421C21.7947 14.6421 22.2834 15.3752 22.2834 16.2796Z" fill="#303346"/>
<path d="M14.6415 17.9171C15.2444 17.9171 15.7332 17.184 15.7332 16.2796C15.7332 15.3752 15.2444 14.6421 14.6415 14.6421C14.0386 14.6421 13.5498 15.3752 13.5498 16.2796C13.5498 17.184 14.0386 17.9171 14.6415 17.9171Z" fill="#303346"/>
</svg>
