<svg width="56" height="55" viewBox="0 0 56 55" fill="none" xmlns="http://www.w3.org/2000/svg">
<path d="M3.14881 34.9662C-1.0496 30.8427 -1.0496 24.1573 3.14881 20.0338L20.3981 3.09258C24.5965 -1.03086 31.4035 -1.03086 35.6019 3.09258L52.8512 20.0338C57.0496 24.1573 57.0496 30.8427 52.8512 34.9662L35.6019 51.9074C31.4035 56.0309 24.5965 56.0309 20.3981 51.9074L3.14881 34.9662Z" fill="#EC7213"/>
<path fill-rule="evenodd" clip-rule="evenodd" d="M27.7716 13L29.2178 14.7299C30.9303 16.7786 31.5615 18.8001 31.5029 20.7394C31.446 22.6251 30.739 24.3062 30.033 25.6937C29.7958 26.1598 29.5394 26.6281 29.3046 27.0571C29.1958 27.2561 29.0915 27.4465 28.9959 27.6244C28.6766 28.2186 28.4326 28.7104 28.2776 29.1419C28.1218 29.5751 28.0929 29.849 28.1127 30.0222C28.1276 30.1529 28.1735 30.2844 28.354 30.4571C28.6525 30.7428 28.8728 30.823 29.0063 30.8475C29.1426 30.8727 29.324 30.8645 29.5835 30.7625C30.164 30.534 30.8727 29.9392 31.6163 29.047C32.3305 28.1898 32.9542 27.2094 33.4062 26.4249C33.6299 26.0365 33.8068 25.7047 33.9266 25.472C33.9864 25.3558 34.0318 25.2648 34.0616 25.2043L34.0943 25.1373L34.1014 25.1223L34.1024 25.1204L34.9842 23.2527L36.5219 24.6793C40.0033 27.9095 41.0806 32.5738 38.7923 36.8084C36.8023 40.491 32.7272 43 28.0423 43C21.4265 43 16 37.9829 16 31.7202C16 28.4208 17.907 26.0599 19.9841 23.7388C20.255 23.436 20.532 23.1308 20.8133 22.8209C22.7419 20.6957 24.8759 18.3443 26.7059 14.9667L27.7716 13ZM35.7597 28.2956C35.2899 29.073 34.6789 29.9927 33.9699 30.8433C33.1378 31.8419 32.0355 32.9126 30.7286 33.4271C30.0443 33.6963 29.2629 33.8288 28.4373 33.6767C27.6086 33.524 26.8676 33.109 26.2253 32.4943C25.5762 31.8731 25.2117 31.1392 25.1199 30.3351C25.0329 29.5733 25.2012 28.8428 25.4308 28.2042C25.6611 27.5641 25.9909 26.9168 26.3186 26.3071C26.4357 26.089 26.5513 25.8778 26.6659 25.6687C26.8889 25.2615 27.1078 24.8617 27.3262 24.4324C27.9759 23.1556 28.4555 21.9208 28.4936 20.6562C28.514 19.978 28.4084 19.252 28.0834 18.4717C26.4029 21.062 24.5984 23.0473 23.0713 24.7276C22.7945 25.0321 22.5269 25.3265 22.2707 25.6128C20.1769 27.9526 19.0106 29.5853 19.0106 31.7202C19.0106 36.3256 23.0192 40.1189 28.0423 40.1189C31.5862 40.1189 34.6381 38.224 36.1181 35.485C37.4152 33.0846 37.2319 30.4856 35.7597 28.2956Z" fill="#040610"/>
</svg>
