<svg width="26" height="26" viewBox="0 0 26 26" fill="none" xmlns="http://www.w3.org/2000/svg">
<path d="M20.99 18.5505H19.101C18.3858 18.5505 18.1647 17.9818 16.8799 16.6797C15.7607 15.596 15.2657 15.4504 14.9909 15.4504C14.6051 15.4504 14.495 15.5605 14.495 16.0928V17.7989C14.495 18.2583 14.3485 18.5332 13.1374 18.5332C10.6944 18.3693 8.59471 17.0368 7.37581 15.0949L7.35761 15.0646C5.94278 13.3073 4.89987 11.1894 4.38405 8.873L4.36498 8.77156C4.36498 8.49675 4.47508 8.23927 5.00737 8.23927H6.8964C7.37321 8.23927 7.557 8.45947 7.74166 8.97269C8.6762 11.6706 10.2367 14.0373 10.8791 14.0373C11.1175 14.0373 11.2276 13.9272 11.2276 13.3221V10.5314C11.1539 9.24664 10.4751 9.13741 10.4751 8.6788C10.4829 8.43346 10.684 8.23754 10.9302 8.23754C10.938 8.23754 10.945 8.23754 10.9528 8.23841H10.9519H13.9246C14.3286 8.23841 14.4751 8.4586 14.4751 8.93541V12.6979C14.4751 13.101 14.6589 13.2484 14.769 13.2484C15.0074 13.2484 15.2102 13.101 15.6498 12.6615C16.5635 11.5457 17.3446 10.2696 17.9402 8.8938L17.9801 8.78977C18.1058 8.47508 18.4075 8.25661 18.7603 8.25661C18.7768 8.25661 18.7924 8.25748 18.8088 8.25834H18.8062H20.6953C21.264 8.25834 21.3932 8.5505 21.264 8.95535C20.5063 10.6242 19.655 12.0581 18.6684 13.3862L18.7135 13.3221C18.5124 13.6524 18.4387 13.7989 18.7135 14.1673C18.9146 14.4421 19.5761 15.0108 20.0165 15.5249C20.6537 16.1552 21.1877 16.8886 21.5908 17.6983L21.6125 17.746C21.7963 18.2766 21.5206 18.5522 20.9883 18.5522L20.99 18.5505ZM16.9909 0H9.0091C1.72432 0 0 1.72432 0 9.0091V16.9909C0 24.2757 1.72432 26 9.0091 26H16.9909C24.2757 26 26 24.2757 26 16.9909V9.0091C26 1.72432 24.2566 0 16.9909 0Z" fill="#73799B"/>
</svg>
