<svg width="113" height="31" viewBox="0 0 113 31" fill="none" xmlns="http://www.w3.org/2000/svg">
<path d="M15.48 30.4C13.32 30.4 11.3333 30.04 9.52 29.32C7.73333 28.5733 6.18667 27.5467 4.88 26.24C3.57333 24.9333 2.56 23.4 1.84 21.64C1.14667 19.88 0.8 17.9733 0.8 15.92C0.8 13.8667 1.16 11.9733 1.88 10.24C2.62667 8.48 3.66667 6.96 5 5.68C6.36 4.37333 7.94667 3.36 9.76 2.64C11.5733 1.92 13.56 1.56 15.72 1.56C17.2133 1.56 18.64 1.76 20 2.16C21.36 2.56 22.6 3.10666 23.72 3.8C24.84 4.49333 25.7733 5.29333 26.52 6.2L22.8 10.12C22.1067 9.45333 21.3733 8.89333 20.6 8.44C19.8533 7.96 19.0667 7.6 18.24 7.36C17.4133 7.09333 16.56 6.96 15.68 6.96C14.4267 6.96 13.2667 7.18667 12.2 7.64C11.16 8.09333 10.24 8.72 9.44 9.52C8.64 10.32 8.01333 11.2667 7.56 12.36C7.13333 13.4533 6.92 14.64 6.92 15.92C6.92 17.1733 7.14667 18.36 7.6 19.48C8.08 20.5733 8.72 21.5333 9.52 22.36C10.3467 23.16 11.3067 23.8 12.4 24.28C13.4933 24.7333 14.6667 24.96 15.92 24.96C16.8 24.96 17.64 24.8267 18.44 24.56C19.24 24.2933 19.9333 23.92 20.52 23.44C21.1333 22.9333 21.6 22.3467 21.92 21.68C22.2667 21.0133 22.44 20.3067 22.44 19.56V18.6L23.24 19.72H15.24V14.72H28.2C28.2267 15.0133 28.2533 15.3733 28.28 15.8C28.3333 16.2267 28.36 16.6533 28.36 17.08C28.3867 17.48 28.4 17.8 28.4 18.04C28.4 19.8533 28.0667 21.52 27.4 23.04C26.76 24.56 25.8533 25.8667 24.68 26.96C23.5333 28.0533 22.1733 28.9067 20.6 29.52C19.0267 30.1067 17.32 30.4 15.48 30.4ZM40.8147 30.4C39.0547 30.4 37.468 29.92 36.0547 28.96C34.6414 28 33.5214 26.6933 32.6947 25.04C31.868 23.3867 31.4547 21.4933 31.4547 19.36C31.4547 17.2267 31.868 15.3467 32.6947 13.72C33.548 12.0667 34.6947 10.7733 36.1347 9.84C37.5747 8.88 39.2147 8.4 41.0547 8.4C42.0947 8.4 43.0414 8.56 43.8947 8.88C44.7747 9.17333 45.5347 9.58667 46.1747 10.12C46.8414 10.6533 47.4014 11.2667 47.8547 11.96C48.308 12.6533 48.628 13.4 48.8147 14.2L47.6147 14V8.84H53.2547V30H47.5347V24.92L48.8147 24.8C48.6014 25.5467 48.2547 26.2533 47.7747 26.92C47.2947 27.5867 46.6947 28.1867 45.9747 28.72C45.2814 29.2267 44.4947 29.64 43.6147 29.96C42.7347 30.2533 41.8014 30.4 40.8147 30.4ZM42.3747 25.48C43.4414 25.48 44.3747 25.2267 45.1747 24.72C45.9747 24.2133 46.588 23.5067 47.0147 22.6C47.468 21.6667 47.6947 20.5867 47.6947 19.36C47.6947 18.16 47.468 17.1067 47.0147 16.2C46.588 15.2933 45.9747 14.5867 45.1747 14.08C44.3747 13.5467 43.4414 13.28 42.3747 13.28C41.3347 13.28 40.4147 13.5467 39.6147 14.08C38.8414 14.5867 38.228 15.2933 37.7747 16.2C37.3214 17.1067 37.0947 18.16 37.0947 19.36C37.0947 20.5867 37.3214 21.6667 37.7747 22.6C38.228 23.5067 38.8414 24.2133 39.6147 24.72C40.4147 25.2267 41.3347 25.48 42.3747 25.48ZM58.9894 30V0.4H64.6694V30H58.9894ZM80.0831 30.4C77.7898 30.4 75.7898 29.9333 74.0831 29C72.3765 28.0667 71.0431 26.7867 70.0831 25.16C69.1231 23.5333 68.6431 21.6667 68.6431 19.56C68.6431 17.9333 68.9098 16.44 69.4431 15.08C69.9765 13.72 70.7231 12.5467 71.6831 11.56C72.6431 10.5467 73.7765 9.77333 75.0831 9.24C76.4165 8.68 77.8565 8.4 79.4031 8.4C80.8431 8.4 82.1765 8.66667 83.4031 9.2C84.6298 9.70666 85.6831 10.44 86.5631 11.4C87.4698 12.3333 88.1631 13.44 88.6431 14.72C89.1231 16 89.3365 17.4 89.2831 18.92L89.2431 20.68H72.2431L71.3231 17.2H84.5631L83.9231 17.92V17.04C83.8698 16.32 83.6298 15.6667 83.2031 15.08C82.8031 14.4933 82.2831 14.04 81.6431 13.72C81.0031 13.4 80.2831 13.24 79.4831 13.24C78.3098 13.24 77.3098 13.4667 76.4831 13.92C75.6831 14.3733 75.0698 15.04 74.6431 15.92C74.2165 16.8 74.0031 17.8667 74.0031 19.12C74.0031 20.4 74.2698 21.5067 74.8031 22.44C75.3631 23.3733 76.1365 24.1067 77.1231 24.64C78.1365 25.1467 79.3231 25.4 80.6831 25.4C81.6165 25.4 82.4698 25.2533 83.2431 24.96C84.0165 24.6667 84.8431 24.16 85.7231 23.44L88.4431 27.24C87.6698 27.9333 86.8165 28.52 85.8831 29C84.9498 29.4533 83.9898 29.8 83.0031 30.04C82.0165 30.28 81.0431 30.4 80.0831 30.4ZM93.4806 30V8.84H98.9206L99.0806 13.16L97.9606 13.64C98.254 12.68 98.774 11.8133 99.5206 11.04C100.294 10.24 101.214 9.6 102.281 9.12C103.347 8.64 104.467 8.4 105.641 8.4C107.241 8.4 108.574 8.72 109.641 9.36C110.734 10 111.547 10.9733 112.081 12.28C112.641 13.56 112.921 15.1467 112.921 17.04V30H107.241V17.48C107.241 16.52 107.107 15.72 106.841 15.08C106.574 14.44 106.161 13.9733 105.601 13.68C105.067 13.36 104.401 13.2267 103.601 13.28C102.961 13.28 102.361 13.3867 101.801 13.6C101.267 13.7867 100.801 14.0667 100.401 14.44C100.027 14.8133 99.7206 15.24 99.4806 15.72C99.2673 16.2 99.1606 16.72 99.1606 17.28V30H96.3606C95.7473 30 95.2006 30 94.7206 30C94.2406 30 93.8273 30 93.4806 30Z" fill="#73799B"/>
</svg>
