<svg width="40" height="36" viewBox="0 0 40 36" fill="none" xmlns="http://www.w3.org/2000/svg">
<rect width="40" height="36" rx="6" fill="#73799B"/>
<path d="M16.96 18.68V24.38C16.0667 24.6733 15.22 24.8867 14.42 25.02C13.62 25.1533 12.9467 25.22 12.4 25.22C10.5867 25.22 9.16667 24.7467 8.14 23.8C7.11333 22.8533 6.6 21.4 6.6 19.44C6.6 17.44 7.14 15.9467 8.22 14.96C9.3 13.96 10.82 13.46 12.78 13.46C13.8067 13.46 15.04 13.6133 16.48 13.92C16.48 14.1867 16.4533 14.5867 16.4 15.12C16.3467 15.64 16.2933 16.0067 16.24 16.22L15.52 16.2C14.64 16.1733 13.9533 16.16 13.46 16.16C11.98 16.16 11.1733 16.2467 11.04 16.42C10.8267 16.6733 10.6733 17.0667 10.58 17.6C10.5 18.1333 10.46 18.6467 10.46 19.14C10.46 20.0333 10.56 20.7267 10.76 21.22C10.96 21.7133 11.2667 22.06 11.68 22.26C12.0933 22.46 12.6533 22.56 13.36 22.56H13.44V18.68H16.96ZM18.6802 13.6H22.2802V25H18.6802V13.6ZM24.2647 13.6H32.4447V16.08H27.8647V18.34H31.6447V20.52H27.8647V25H24.2647V13.6Z" fill="#303346"/>
</svg>
