<svg width="120" height="40" viewBox="0 0 120 40" fill="none" xmlns="http://www.w3.org/2000/svg">
<path d="M9.24 39.28C7.29333 39.28 5.72 38.7733 4.52 37.76C3.34667 36.7733 2.76 35.4667 2.76 33.84C2.76 32.8267 3 31.8933 3.48 31.04C3.96 30.1867 4.61333 29.52 5.44 29.04C6.26667 28.5333 7.17333 28.28 8.16 28.28C9.17333 28.28 9.98667 28.5333 10.6 29.04C11.24 29.5467 11.56 30.2133 11.56 31.04C11.56 31.68 11.4133 32.1867 11.12 32.56C10.88 32.24 10.5467 31.9867 10.12 31.8C9.72 31.6133 9.29333 31.52 8.84 31.52C8.04 31.52 7.38667 31.7867 6.88 32.32C6.37333 32.8533 6.12 33.5467 6.12 34.4C6.12 35.2533 6.36 35.9467 6.84 36.48C7.34667 37.0133 7.97333 37.28 8.72 37.28C9.65333 37.28 10.4533 36.8667 11.12 36.04C11.7867 35.2133 12.2933 33.9867 12.64 32.36L14.64 23.52H14.48C13.76 24.5333 12.88 25.3067 11.84 25.84C10.8267 26.3733 9.70667 26.64 8.48 26.64C6.93333 26.64 5.57333 26.2267 4.4 25.4C3.22667 24.5733 2.32 23.4 1.68 21.88C1.06667 20.3333 0.76 18.5467 0.76 16.52C0.76 13.5867 1.4 10.92 2.68 8.52C3.96 6.09333 5.72 4.18666 7.96 2.8C10.2 1.41333 12.6667 0.719999 15.36 0.719999C17.6267 0.719999 19.4133 1.21333 20.72 2.2C22.0533 3.18667 22.72 4.53333 22.72 6.24C22.72 7.38667 22.44 8.30667 21.88 9C21.32 9.69333 20.5867 10.04 19.68 10.04C19.1733 10.04 18.6933 9.93333 18.24 9.72C17.8133 9.50667 17.4533 9.2 17.16 8.8C17.64 8.48 18.04 7.97333 18.36 7.28C18.7067 6.56 18.88 5.84 18.88 5.12C18.88 4.32 18.64 3.70667 18.16 3.28C17.7067 2.82667 17.0533 2.6 16.2 2.6C14.6533 2.6 13.16 3.29333 11.72 4.68C10.28 6.04 9.12 7.82666 8.24 10.04C7.36 12.2533 6.92 14.5733 6.92 17C6.92 19 7.24 20.5333 7.88 21.6C8.52 22.64 9.44 23.16 10.64 23.16C12.08 23.16 13.3467 22.4 14.44 20.88C15.56 19.36 16.4533 17.1467 17.12 14.24L21.84 14.28L18.92 27.72C18.0667 31.6933 16.8533 34.6133 15.28 36.48C13.7333 38.3467 11.72 39.28 9.24 39.28ZM27.085 31.24C25.805 31.24 24.765 30.84 23.965 30.04C23.1917 29.24 22.805 28.04 22.805 26.44C22.805 25.7733 22.9117 24.9067 23.125 23.84L27.405 3.8L33.325 3L28.725 24.6C28.6183 25 28.565 25.4267 28.565 25.88C28.565 26.4133 28.685 26.8 28.925 27.04C29.1917 27.2533 29.6183 27.36 30.205 27.36C30.9783 27.36 31.6983 27.04 32.365 26.4C33.0317 25.7333 33.5117 24.88 33.805 23.84H35.485C34.4983 26.72 33.2317 28.68 31.685 29.72C30.1383 30.7333 28.605 31.24 27.085 31.24ZM37.7491 31.24C36.4691 31.24 35.4291 30.84 34.6291 30.04C33.8557 29.24 33.4691 28.04 33.4691 26.44C33.4691 25.7733 33.5757 24.9067 33.7891 23.84L36.5091 11H42.2691L39.3891 24.6C39.3091 25 39.2691 25.3733 39.2691 25.72C39.2691 26.8133 39.6691 27.36 40.4691 27.36C41.2157 27.36 41.8557 27.0533 42.3891 26.44C42.9224 25.8 43.3491 24.9333 43.6691 23.84L46.3891 11H52.1491L49.2691 24.6C49.1624 25 49.1091 25.4267 49.1091 25.88C49.1091 26.4133 49.2291 26.8 49.4691 27.04C49.7357 27.2533 50.1624 27.36 50.7491 27.36C51.4957 27.36 52.1357 27.04 52.6691 26.4C53.2291 25.76 53.6691 24.9067 53.9891 23.84H55.6691C54.6824 26.72 53.4557 28.68 51.9891 29.72C50.5491 30.7333 49.0957 31.24 47.6291 31.24C46.4824 31.24 45.5624 30.92 44.8691 30.28C44.2024 29.64 43.8024 28.6933 43.6691 27.44C42.7624 28.9067 41.8024 29.9067 40.7891 30.44C39.8024 30.9733 38.7891 31.24 37.7491 31.24ZM77.6244 31.24C76.211 31.24 75.1844 30.8133 74.5444 29.96C73.9044 29.1067 73.5844 28.0267 73.5844 26.72C73.5844 26.16 73.651 25.5333 73.7844 24.84C73.9177 24.12 74.051 23.4267 74.1844 22.76C74.3444 22.0933 74.451 21.6667 74.5044 21.48C74.7177 20.5467 74.9177 19.6267 75.1044 18.72C75.291 17.8133 75.3844 17.08 75.3844 16.52C75.3844 15.16 74.9044 14.48 73.9444 14.48C73.251 14.48 72.6377 14.8267 72.1044 15.52C71.571 16.1867 71.1444 17.0667 70.8244 18.16L68.1044 31H62.3444L65.2644 17.2C65.3444 16.88 65.3844 16.5467 65.3844 16.2C65.3844 15.0267 64.9844 14.44 64.1844 14.44C63.4377 14.44 62.7844 14.7867 62.2244 15.48C61.691 16.1467 61.2644 17.04 60.9444 18.16L58.2244 31H52.4644L56.7044 11H62.4644L62.0244 13.08C63.3844 11.56 65.011 10.8 66.9044 10.8C69.251 10.8 70.6244 11.9467 71.0244 14.24C72.491 11.9733 74.3444 10.84 76.5844 10.84C77.9444 10.84 79.0244 11.2133 79.8244 11.96C80.6244 12.7067 81.0244 13.84 81.0244 15.36C81.0244 16.1333 80.931 17 80.7444 17.96C80.5577 18.8933 80.291 20.04 79.9444 21.4C79.731 22.2267 79.531 23.04 79.3444 23.84C79.1844 24.6133 79.1044 25.2267 79.1044 25.68C79.1044 26.2133 79.2244 26.6267 79.4644 26.92C79.7044 27.2133 80.1177 27.36 80.7044 27.36C81.3444 27.36 81.7844 27.28 82.0244 27.12C81.8644 28.48 81.371 29.5067 80.5444 30.2C79.7444 30.8933 78.771 31.24 77.6244 31.24ZM101.111 18.44C101.111 19.48 100.711 20.4 99.9113 21.2C99.1113 22 98.0846 22.52 96.8313 22.76L95.0713 31H89.5113L92.5113 22.4L91.7513 22.16C90.6846 21.8667 89.8446 21.6533 89.2313 21.52C88.6179 21.3867 87.9646 21.32 87.2713 21.32C85.5113 21.32 84.0713 21.6 82.9513 22.16H82.7913L81.9512 20.6V20.4C84.6979 17.12 86.8446 14.1733 88.3913 11.56C89.9379 8.94666 90.7113 6.45333 90.7113 4.08C90.7113 3.28 90.6046 2.45333 90.3913 1.6C90.9513 1.41333 91.6179 1.32 92.3913 1.32C93.5913 1.32 94.5246 1.65333 95.1913 2.32C95.8579 2.96 96.1913 3.78667 96.1913 4.8C96.1913 6 95.6579 7.42667 94.5913 9.08C93.5513 10.7067 92.2579 12.3333 90.7113 13.96C89.1913 15.56 87.6979 16.9467 86.2313 18.12L86.2713 18.24C86.7513 18.0533 87.3113 17.8933 87.9513 17.76C88.6179 17.6 89.2446 17.52 89.8313 17.52C90.4979 17.52 91.2979 17.6 92.2313 17.76C93.1646 17.92 93.7513 18.0267 93.9913 18.08L97.2313 8.76H99.7913L97.8313 18.04C98.7646 17.6933 99.6046 17.0667 100.351 16.16L100.471 16.24C100.898 16.9867 101.111 17.72 101.111 18.44ZM116.095 31.24C114.441 31.24 113.188 30.8533 112.335 30.08C111.481 29.28 111.055 28.1467 111.055 26.68C111.055 26.04 111.135 25.3467 111.295 24.6L111.615 23.04C111.721 22.5867 111.775 22.0933 111.775 21.56C111.775 20.28 111.295 19.64 110.335 19.64C109.908 19.64 109.455 19.76 108.975 20C108.521 20.24 107.988 20.6133 107.375 21.12L105.295 31H99.5347L105.335 3.8L111.255 3L108.255 17.08L115.975 11H119.935L111.935 16.56C112.335 16.4533 112.775 16.4 113.255 16.4C114.695 16.4 115.788 16.84 116.535 17.72C117.281 18.6 117.655 19.72 117.655 21.08C117.655 21.64 117.601 22.1467 117.495 22.6L117.055 24.6C116.921 25.08 116.855 25.5067 116.855 25.88C116.855 26.8667 117.375 27.36 118.415 27.36C119.001 27.36 119.375 27.32 119.535 27.24C119.695 27.16 119.788 27.12 119.815 27.12C119.761 28 119.508 28.7467 119.055 29.36C118.628 29.9733 118.121 30.44 117.535 30.76C116.975 31.08 116.495 31.24 116.095 31.24Z" fill="#73799B"/>
</svg>
