<svg width="56" height="55" viewBox="0 0 56 55" fill="none" xmlns="http://www.w3.org/2000/svg">
<path d="M3.14881 34.9662C-1.0496 30.8427 -1.0496 24.1573 3.14881 20.0338L20.3981 3.09258C24.5965 -1.03086 31.4035 -1.03086 35.6019 3.09258L52.8512 20.0338C57.0496 24.1573 57.0496 30.8427 52.8512 34.9662L35.6019 51.9074C31.4035 56.0309 24.5965 56.0309 20.3981 51.9074L3.14881 34.9662Z" fill="#54E619"/>
<path d="M28 23L33.625 17M28 30.3334L36.125 21.6667M28 37.0001L37.375 27.0001" stroke="#040610" stroke-width="2"/>
<path d="M28 40.3334C33.5229 40.3334 38 35.4722 38 29.4757C38 23.5261 34.8084 16.5835 29.8286 14.1008C29.2483 13.8114 28.6241 13.6667 28 13.6667M28 40.3334C22.4772 40.3334 18 35.4722 18 29.4757C18 23.5261 21.1917 16.5835 26.1714 14.1008C26.7518 13.8114 27.3759 13.6667 28 13.6667M28 40.3334V13.6667" stroke="#040610" stroke-width="2"/>
</svg>
