<svg width="1001" height="308" viewBox="0 0 1001 308" fill="none" xmlns="http://www.w3.org/2000/svg">
<rect y="236" width="1001" height="33" rx="8" fill="#303346"/>
<path d="M720 236H993C997.418 236 1001 239.582 1001 244V261C1001 265.418 997.418 269 993 269H720V236Z" fill="#212333"/>
<path d="M483.12 244.8H491.94V246.27L485.27 258H482.93L489.47 246.67H483.12V244.8ZM495.047 254.84C495.094 254.98 495.174 255.14 495.287 255.32C495.4 255.5 495.554 255.677 495.747 255.85C495.94 256.017 496.18 256.157 496.467 256.27C496.754 256.383 497.097 256.44 497.497 256.44C498.297 256.44 498.924 256.183 499.377 255.67C499.83 255.15 500.054 254.47 500.047 253.63C500.04 252.837 499.83 252.227 499.417 251.8C499.004 251.367 498.45 251.15 497.757 251.15C497.324 251.15 496.944 251.227 496.617 251.38C496.297 251.533 496.037 251.72 495.837 251.94C495.637 252.16 495.497 252.363 495.417 252.55L493.617 251.92L494.757 244.8H501.587V246.67H496.557L495.997 250.28C496.03 250.22 496.14 250.123 496.327 249.99C496.52 249.85 496.784 249.72 497.117 249.6C497.457 249.473 497.864 249.41 498.337 249.41C498.997 249.41 499.617 249.56 500.197 249.86C500.777 250.153 501.25 250.603 501.617 251.21C501.984 251.81 502.167 252.58 502.167 253.52C502.174 254.46 501.987 255.283 501.607 255.99C501.234 256.697 500.7 257.25 500.007 257.65C499.32 258.043 498.507 258.24 497.567 258.24C496.874 258.24 496.274 258.153 495.767 257.98C495.26 257.8 494.834 257.577 494.487 257.31C494.14 257.043 493.864 256.767 493.657 256.48C493.45 256.187 493.304 255.927 493.217 255.7L495.047 254.84ZM513.951 244.8H515.431L507.391 258H505.911L513.951 244.8ZM503.901 247.71C503.901 247.183 504.031 246.71 504.291 246.29C504.558 245.863 504.921 245.527 505.381 245.28C505.848 245.027 506.375 244.9 506.961 244.9C507.541 244.9 508.058 245.027 508.511 245.28C508.971 245.527 509.335 245.863 509.601 246.29C509.868 246.71 510.001 247.183 510.001 247.71C510.001 248.223 509.871 248.693 509.611 249.12C509.351 249.547 508.995 249.887 508.541 250.14C508.088 250.387 507.561 250.51 506.961 250.51C506.355 250.51 505.821 250.387 505.361 250.14C504.901 249.887 504.541 249.547 504.281 249.12C504.028 248.693 503.901 248.223 503.901 247.71ZM505.421 247.71C505.421 248.177 505.561 248.55 505.841 248.83C506.121 249.103 506.491 249.24 506.951 249.24C507.391 249.24 507.755 249.107 508.041 248.84C508.328 248.567 508.471 248.19 508.471 247.71C508.471 247.25 508.325 246.877 508.031 246.59C507.745 246.303 507.385 246.16 506.951 246.16C506.505 246.16 506.138 246.303 505.851 246.59C505.565 246.877 505.421 247.25 505.421 247.71ZM511.331 255.1C511.331 254.567 511.461 254.09 511.721 253.67C511.988 253.243 512.351 252.907 512.811 252.66C513.271 252.413 513.798 252.29 514.391 252.29C514.971 252.29 515.488 252.413 515.941 252.66C516.401 252.907 516.765 253.243 517.031 253.67C517.298 254.09 517.431 254.567 517.431 255.1C517.431 255.607 517.301 256.073 517.041 256.5C516.781 256.927 516.421 257.267 515.961 257.52C515.508 257.773 514.985 257.9 514.391 257.9C513.785 257.9 513.251 257.773 512.791 257.52C512.331 257.267 511.971 256.927 511.711 256.5C511.458 256.073 511.331 255.607 511.331 255.1ZM512.851 255.1C512.851 255.567 512.991 255.94 513.271 256.22C513.551 256.493 513.921 256.63 514.381 256.63C514.821 256.63 515.185 256.493 515.471 256.22C515.758 255.947 515.901 255.573 515.901 255.1C515.901 254.633 515.755 254.257 515.461 253.97C515.175 253.683 514.815 253.54 514.381 253.54C513.935 253.54 513.568 253.683 513.281 253.97C512.995 254.257 512.851 254.633 512.851 255.1Z" fill="white"/>
<path d="M365.29 294.79H366.83V291.42H368.95V294.79H370.98V296.59H368.95V300.1C368.95 300.54 369.023 300.87 369.17 301.09C369.323 301.31 369.54 301.42 369.82 301.42C370.053 301.42 370.237 301.377 370.37 301.29C370.51 301.203 370.593 301.143 370.62 301.11L371.41 302.66C371.37 302.7 371.253 302.767 371.06 302.86C370.867 302.953 370.617 303.04 370.31 303.12C370.003 303.2 369.653 303.24 369.26 303.24C368.567 303.24 367.987 303.033 367.52 302.62C367.06 302.207 366.83 301.56 366.83 300.68V296.59H365.29V294.79ZM377.786 294.55C378.333 294.55 378.866 294.663 379.386 294.89C379.906 295.117 380.333 295.48 380.666 295.98C381.006 296.473 381.176 297.117 381.176 297.91V303H379.026V298.3C379.026 297.56 378.856 297.017 378.516 296.67C378.183 296.317 377.74 296.14 377.186 296.14C376.82 296.14 376.466 296.243 376.126 296.45C375.786 296.657 375.506 296.937 375.286 297.29C375.073 297.643 374.966 298.05 374.966 298.51V303H372.816V289.24H374.966V296.17C375.026 295.943 375.186 295.707 375.446 295.46C375.713 295.207 376.05 294.993 376.456 294.82C376.863 294.64 377.306 294.55 377.786 294.55ZM384.843 299.4C384.856 299.833 384.959 300.223 385.153 300.57C385.346 300.917 385.629 301.19 386.003 301.39C386.383 301.583 386.846 301.68 387.393 301.68C387.866 301.68 388.273 301.617 388.613 301.49C388.959 301.357 389.246 301.2 389.473 301.02C389.699 300.833 389.866 300.66 389.973 300.5L390.923 301.79C390.716 302.07 390.456 302.32 390.143 302.54C389.829 302.76 389.439 302.93 388.973 303.05C388.513 303.177 387.943 303.24 387.263 303.24C386.369 303.24 385.593 303.057 384.933 302.69C384.273 302.323 383.759 301.807 383.393 301.14C383.033 300.473 382.853 299.693 382.853 298.8C382.853 298 383.019 297.28 383.353 296.64C383.686 295.993 384.169 295.483 384.803 295.11C385.443 294.737 386.209 294.55 387.103 294.55C387.936 294.55 388.659 294.717 389.273 295.05C389.886 295.383 390.359 295.863 390.693 296.49C391.033 297.11 391.203 297.86 391.203 298.74C391.203 298.793 391.199 298.903 391.193 299.07C391.193 299.237 391.186 299.347 391.173 299.4H384.843ZM389.203 297.84C389.196 297.627 389.123 297.383 388.983 297.11C388.849 296.837 388.633 296.6 388.333 296.4C388.033 296.193 387.633 296.09 387.133 296.09C386.619 296.09 386.203 296.19 385.883 296.39C385.563 296.583 385.326 296.817 385.173 297.09C385.019 297.357 384.929 297.607 384.903 297.84H389.203ZM408.389 294.55C409.003 294.55 409.529 294.68 409.969 294.94C410.416 295.2 410.759 295.6 410.999 296.14C411.246 296.68 411.369 297.37 411.369 298.21V303H409.259V298.59C409.259 297.797 409.146 297.193 408.919 296.78C408.699 296.367 408.283 296.16 407.669 296.16C407.336 296.16 407.023 296.25 406.729 296.43C406.436 296.61 406.199 296.88 406.019 297.24C405.846 297.593 405.759 298.043 405.759 298.59V303H403.779V298.59C403.779 297.797 403.643 297.193 403.369 296.78C403.103 296.367 402.703 296.16 402.169 296.16C401.829 296.16 401.516 296.247 401.229 296.42C400.943 296.593 400.713 296.86 400.539 297.22C400.366 297.58 400.279 298.037 400.279 298.59V303H398.159V294.79H400.279V296.02C400.353 295.813 400.516 295.597 400.769 295.37C401.029 295.143 401.353 294.95 401.739 294.79C402.126 294.63 402.549 294.55 403.009 294.55C403.509 294.55 403.923 294.643 404.249 294.83C404.583 295.01 404.846 295.237 405.039 295.51C405.239 295.783 405.386 296.057 405.479 296.33C405.573 296.057 405.753 295.783 406.019 295.51C406.293 295.237 406.633 295.01 407.039 294.83C407.446 294.643 407.896 294.55 408.389 294.55ZM417.498 303.24C416.638 303.24 415.871 303.053 415.198 302.68C414.531 302.3 414.008 301.787 413.628 301.14C413.248 300.487 413.058 299.747 413.058 298.92C413.058 298.093 413.248 297.35 413.628 296.69C414.008 296.03 414.531 295.51 415.198 295.13C415.871 294.743 416.638 294.55 417.498 294.55C418.358 294.55 419.118 294.743 419.778 295.13C420.438 295.51 420.954 296.03 421.328 296.69C421.708 297.35 421.898 298.093 421.898 298.92C421.898 299.747 421.708 300.487 421.328 301.14C420.954 301.787 420.438 302.3 419.778 302.68C419.118 303.053 418.358 303.24 417.498 303.24ZM417.498 301.44C417.978 301.44 418.394 301.33 418.748 301.11C419.101 300.89 419.374 300.59 419.568 300.21C419.761 299.83 419.858 299.397 419.858 298.91C419.858 298.423 419.761 297.99 419.568 297.61C419.374 297.223 419.101 296.917 418.748 296.69C418.394 296.463 417.978 296.35 417.498 296.35C417.018 296.35 416.598 296.463 416.238 296.69C415.884 296.917 415.608 297.223 415.408 297.61C415.214 297.99 415.118 298.423 415.118 298.91C415.118 299.397 415.214 299.83 415.408 300.21C415.608 300.59 415.884 300.89 416.238 301.11C416.598 301.33 417.018 301.44 417.498 301.44ZM427.295 303.24C426.522 303.24 425.838 303.057 425.245 302.69C424.652 302.323 424.185 301.813 423.845 301.16C423.512 300.507 423.345 299.753 423.345 298.9C423.345 298.047 423.512 297.293 423.845 296.64C424.185 295.987 424.652 295.477 425.245 295.11C425.838 294.737 426.522 294.55 427.295 294.55C427.868 294.55 428.378 294.65 428.825 294.85C429.272 295.043 429.628 295.27 429.895 295.53C430.162 295.79 430.318 296.02 430.365 296.22V289.24H432.505V303H430.395V301.48C430.302 301.713 430.112 301.967 429.825 302.24C429.538 302.513 429.175 302.75 428.735 302.95C428.302 303.143 427.822 303.24 427.295 303.24ZM427.845 301.51C428.312 301.51 428.735 301.4 429.115 301.18C429.495 300.96 429.798 300.657 430.025 300.27C430.252 299.877 430.365 299.42 430.365 298.9C430.365 298.38 430.252 297.927 430.025 297.54C429.798 297.147 429.495 296.84 429.115 296.62C428.735 296.393 428.312 296.28 427.845 296.28C427.418 296.28 427.022 296.39 426.655 296.61C426.295 296.823 426.005 297.127 425.785 297.52C425.565 297.913 425.455 298.373 425.455 298.9C425.455 299.427 425.565 299.887 425.785 300.28C426.005 300.673 426.295 300.977 426.655 301.19C427.022 301.403 427.418 301.51 427.845 301.51ZM436.518 307.16H434.398V294.79H436.548V296.22C436.622 296.02 436.792 295.79 437.058 295.53C437.332 295.27 437.692 295.043 438.138 294.85C438.585 294.65 439.095 294.55 439.668 294.55C440.442 294.55 441.118 294.737 441.698 295.11C442.285 295.477 442.742 295.987 443.068 296.64C443.402 297.293 443.568 298.047 443.568 298.9C443.568 299.753 443.398 300.507 443.058 301.16C442.718 301.813 442.248 302.323 441.648 302.69C441.055 303.057 440.372 303.24 439.598 303.24C438.992 303.24 438.465 303.13 438.018 302.91C437.572 302.683 437.222 302.43 436.968 302.15C436.715 301.87 436.565 301.647 436.518 301.48V307.16ZM441.458 298.9C441.458 298.373 441.348 297.913 441.128 297.52C440.908 297.127 440.615 296.823 440.248 296.61C439.888 296.39 439.492 296.28 439.058 296.28C438.592 296.28 438.168 296.393 437.788 296.62C437.408 296.84 437.105 297.147 436.878 297.54C436.658 297.927 436.548 298.38 436.548 298.9C436.548 299.42 436.658 299.877 436.878 300.27C437.105 300.657 437.408 300.96 437.788 301.18C438.168 301.4 438.592 301.51 439.058 301.51C439.492 301.51 439.888 301.403 440.248 301.19C440.615 300.977 440.908 300.673 441.128 300.28C441.348 299.887 441.458 299.427 441.458 298.9ZM451.826 303V301.48C451.773 301.64 451.62 301.86 451.366 302.14C451.12 302.42 450.78 302.673 450.346 302.9C449.92 303.127 449.413 303.24 448.826 303.24C448.06 303.24 447.37 303.057 446.756 302.69C446.143 302.323 445.66 301.813 445.306 301.16C444.953 300.507 444.776 299.753 444.776 298.9C444.776 298.047 444.953 297.293 445.306 296.64C445.66 295.987 446.143 295.477 446.756 295.11C447.37 294.737 448.06 294.55 448.826 294.55C449.4 294.55 449.896 294.65 450.316 294.85C450.736 295.05 451.073 295.28 451.326 295.54C451.586 295.8 451.746 296.027 451.806 296.22V294.79H453.926V303H451.826ZM446.886 298.9C446.886 299.427 447.003 299.887 447.236 300.28C447.47 300.673 447.773 300.977 448.146 301.19C448.526 301.403 448.933 301.51 449.366 301.51C449.833 301.51 450.246 301.4 450.606 301.18C450.973 300.96 451.26 300.657 451.466 300.27C451.68 299.877 451.786 299.42 451.786 298.9C451.786 298.38 451.68 297.927 451.466 297.54C451.26 297.147 450.973 296.84 450.606 296.62C450.246 296.393 449.833 296.28 449.366 296.28C448.933 296.28 448.526 296.39 448.146 296.61C447.773 296.823 447.47 297.127 447.236 297.52C447.003 297.913 446.886 298.373 446.886 298.9ZM460.177 301.51C460.65 301.51 461.033 301.433 461.327 301.28C461.627 301.12 461.82 301.003 461.907 300.93L462.917 302.43C462.837 302.497 462.67 302.597 462.417 302.73C462.163 302.857 461.84 302.973 461.447 303.08C461.06 303.187 460.62 303.24 460.127 303.24C459.313 303.24 458.573 303.07 457.907 302.73C457.247 302.383 456.717 301.887 456.317 301.24C455.923 300.587 455.727 299.803 455.727 298.89C455.727 297.97 455.923 297.187 456.317 296.54C456.717 295.893 457.247 295.4 457.907 295.06C458.573 294.72 459.313 294.55 460.127 294.55C460.613 294.55 461.047 294.607 461.427 294.72C461.813 294.827 462.133 294.95 462.387 295.09C462.64 295.23 462.81 295.34 462.897 295.42L461.867 296.92C461.82 296.873 461.723 296.8 461.577 296.7C461.437 296.593 461.25 296.497 461.017 296.41C460.783 296.323 460.503 296.28 460.177 296.28C459.777 296.28 459.393 296.387 459.027 296.6C458.66 296.813 458.36 297.117 458.127 297.51C457.893 297.897 457.777 298.357 457.777 298.89C457.777 299.423 457.893 299.887 458.127 300.28C458.36 300.673 458.66 300.977 459.027 301.19C459.393 301.403 459.777 301.51 460.177 301.51ZM469.686 294.79H472.196L468.066 298.7L472.506 303H469.956L466.346 299.47V303H464.206V289.24H466.346V297.92L469.686 294.79ZM478.845 303V294.79H480.975V303H478.845ZM479.935 292.33C479.575 292.33 479.265 292.2 479.005 291.94C478.752 291.68 478.625 291.37 478.625 291.01C478.625 290.65 478.752 290.34 479.005 290.08C479.265 289.813 479.575 289.68 479.935 289.68C480.175 289.68 480.395 289.743 480.595 289.87C480.802 289.99 480.965 290.15 481.085 290.35C481.212 290.543 481.275 290.763 481.275 291.01C481.275 291.37 481.145 291.68 480.885 291.94C480.625 292.2 480.309 292.33 479.935 292.33ZM486.73 294.55C487.19 294.55 487.617 294.593 488.01 294.68C488.404 294.767 488.74 294.87 489.02 294.99C489.3 295.11 489.494 295.21 489.6 295.29L488.82 296.61C488.687 296.497 488.447 296.367 488.1 296.22C487.76 296.073 487.377 296 486.95 296C486.524 296 486.164 296.077 485.87 296.23C485.577 296.383 485.43 296.613 485.43 296.92C485.43 297.22 485.584 297.46 485.89 297.64C486.204 297.82 486.627 297.97 487.16 298.09C487.6 298.19 488.02 298.33 488.42 298.51C488.82 298.683 489.147 298.933 489.4 299.26C489.66 299.58 489.79 300.01 489.79 300.55C489.79 301.063 489.68 301.493 489.46 301.84C489.247 302.18 488.96 302.453 488.6 302.66C488.24 302.867 487.84 303.013 487.4 303.1C486.967 303.193 486.53 303.24 486.09 303.24C485.55 303.24 485.067 303.187 484.64 303.08C484.22 302.973 483.87 302.85 483.59 302.71C483.31 302.563 483.11 302.44 482.99 302.34L483.77 300.86C483.944 301.027 484.227 301.203 484.62 301.39C485.014 301.57 485.454 301.66 485.94 301.66C486.46 301.66 486.877 301.56 487.19 301.36C487.504 301.16 487.66 300.893 487.66 300.56C487.66 300.313 487.584 300.113 487.43 299.96C487.284 299.807 487.08 299.683 486.82 299.59C486.56 299.497 486.27 299.413 485.95 299.34C485.65 299.267 485.347 299.173 485.04 299.06C484.74 298.94 484.464 298.787 484.21 298.6C483.957 298.407 483.754 298.167 483.6 297.88C483.447 297.593 483.37 297.257 483.37 296.87C483.37 296.377 483.527 295.957 483.84 295.61C484.154 295.263 484.567 295 485.08 294.82C485.594 294.64 486.144 294.55 486.73 294.55ZM496.731 303V289.24H498.871V296.22C498.918 296.02 499.075 295.79 499.341 295.53C499.608 295.27 499.965 295.043 500.411 294.85C500.858 294.65 501.368 294.55 501.941 294.55C502.715 294.55 503.398 294.737 503.991 295.11C504.585 295.477 505.048 295.987 505.381 296.64C505.721 297.293 505.891 298.047 505.891 298.9C505.891 299.753 505.721 300.507 505.381 301.16C505.048 301.813 504.585 302.323 503.991 302.69C503.398 303.057 502.715 303.24 501.941 303.24C501.415 303.24 500.931 303.143 500.491 302.95C500.058 302.75 499.698 302.513 499.411 302.24C499.125 301.967 498.935 301.713 498.841 301.48V303H496.731ZM503.781 298.9C503.781 298.373 503.671 297.913 503.451 297.52C503.231 297.127 502.941 296.823 502.581 296.61C502.221 296.39 501.825 296.28 501.391 296.28C500.925 296.28 500.501 296.393 500.121 296.62C499.741 296.84 499.438 297.147 499.211 297.54C498.985 297.927 498.871 298.38 498.871 298.9C498.871 299.42 498.985 299.877 499.211 300.27C499.438 300.657 499.741 300.96 500.121 301.18C500.501 301.4 500.925 301.51 501.391 301.51C501.825 301.51 502.221 301.403 502.581 301.19C502.941 300.977 503.231 300.673 503.451 300.28C503.671 299.887 503.781 299.427 503.781 298.9ZM508.925 299.4C508.938 299.833 509.042 300.223 509.235 300.57C509.428 300.917 509.712 301.19 510.085 301.39C510.465 301.583 510.928 301.68 511.475 301.68C511.948 301.68 512.355 301.617 512.695 301.49C513.042 301.357 513.328 301.2 513.555 301.02C513.782 300.833 513.948 300.66 514.055 300.5L515.005 301.79C514.798 302.07 514.538 302.32 514.225 302.54C513.912 302.76 513.522 302.93 513.055 303.05C512.595 303.177 512.025 303.24 511.345 303.24C510.452 303.24 509.675 303.057 509.015 302.69C508.355 302.323 507.842 301.807 507.475 301.14C507.115 300.473 506.935 299.693 506.935 298.8C506.935 298 507.102 297.28 507.435 296.64C507.768 295.993 508.252 295.483 508.885 295.11C509.525 294.737 510.292 294.55 511.185 294.55C512.018 294.55 512.742 294.717 513.355 295.05C513.968 295.383 514.442 295.863 514.775 296.49C515.115 297.11 515.285 297.86 515.285 298.74C515.285 298.793 515.282 298.903 515.275 299.07C515.275 299.237 515.268 299.347 515.255 299.4H508.925ZM513.285 297.84C513.278 297.627 513.205 297.383 513.065 297.11C512.932 296.837 512.715 296.6 512.415 296.4C512.115 296.193 511.715 296.09 511.215 296.09C510.702 296.09 510.285 296.19 509.965 296.39C509.645 296.583 509.408 296.817 509.255 297.09C509.102 297.357 509.012 297.607 508.985 297.84H513.285ZM517.263 303V294.79H519.393V303H517.263ZM518.353 292.33C517.993 292.33 517.683 292.2 517.423 291.94C517.17 291.68 517.043 291.37 517.043 291.01C517.043 290.65 517.17 290.34 517.423 290.08C517.683 289.813 517.993 289.68 518.353 289.68C518.593 289.68 518.813 289.743 519.013 289.87C519.22 289.99 519.383 290.15 519.503 290.35C519.63 290.543 519.693 290.763 519.693 291.01C519.693 291.37 519.563 291.68 519.303 291.94C519.043 292.2 518.727 292.33 518.353 292.33ZM526.798 294.55C527.352 294.55 527.888 294.663 528.408 294.89C528.928 295.117 529.355 295.48 529.688 295.98C530.028 296.473 530.198 297.117 530.198 297.91V303H528.048V298.3C528.048 297.56 527.872 297.017 527.518 296.67C527.172 296.317 526.722 296.14 526.168 296.14C525.802 296.14 525.452 296.243 525.118 296.45C524.785 296.657 524.512 296.937 524.298 297.29C524.092 297.643 523.988 298.05 523.988 298.51V303H521.848V294.79H523.988V296.17C524.048 295.943 524.208 295.707 524.468 295.46C524.735 295.207 525.072 294.993 525.478 294.82C525.885 294.64 526.325 294.55 526.798 294.55ZM536.378 307.39C535.751 307.39 535.168 307.327 534.628 307.2C534.094 307.08 533.618 306.897 533.198 306.65C532.778 306.41 532.438 306.113 532.178 305.76L533.508 304.44C533.648 304.613 533.828 304.793 534.048 304.98C534.268 305.173 534.558 305.333 534.918 305.46C535.278 305.593 535.734 305.66 536.288 305.66C536.828 305.66 537.288 305.55 537.668 305.33C538.054 305.11 538.348 304.807 538.548 304.42C538.754 304.04 538.858 303.6 538.858 303.1V302.85H540.958V303.23C540.958 304.137 540.754 304.897 540.348 305.51C539.941 306.13 539.391 306.597 538.698 306.91C538.004 307.23 537.231 307.39 536.378 307.39ZM538.858 303V301.48C538.804 301.64 538.651 301.86 538.398 302.14C538.151 302.42 537.811 302.673 537.378 302.9C536.951 303.127 536.444 303.24 535.858 303.24C535.091 303.24 534.401 303.057 533.788 302.69C533.174 302.323 532.691 301.813 532.338 301.16C531.984 300.507 531.808 299.753 531.808 298.9C531.808 298.047 531.984 297.293 532.338 296.64C532.691 295.987 533.174 295.477 533.788 295.11C534.401 294.737 535.091 294.55 535.858 294.55C536.431 294.55 536.928 294.65 537.348 294.85C537.768 295.05 538.104 295.28 538.358 295.54C538.618 295.8 538.778 296.027 538.838 296.22V294.79H540.958V303H538.858ZM533.918 298.9C533.918 299.427 534.034 299.887 534.268 300.28C534.501 300.673 534.804 300.977 535.178 301.19C535.558 301.403 535.964 301.51 536.398 301.51C536.864 301.51 537.278 301.4 537.638 301.18C538.004 300.96 538.291 300.657 538.498 300.27C538.711 299.877 538.818 299.42 538.818 298.9C538.818 298.38 538.711 297.927 538.498 297.54C538.291 297.147 538.004 296.84 537.638 296.62C537.278 296.393 536.864 296.28 536.398 296.28C535.964 296.28 535.558 296.39 535.178 296.61C534.804 296.823 534.501 297.127 534.268 297.52C534.034 297.913 533.918 298.373 533.918 298.9ZM548.474 303V294.79H550.604V303H548.474ZM549.564 292.33C549.204 292.33 548.894 292.2 548.634 291.94C548.381 291.68 548.254 291.37 548.254 291.01C548.254 290.65 548.381 290.34 548.634 290.08C548.894 289.813 549.204 289.68 549.564 289.68C549.804 289.68 550.024 289.743 550.224 289.87C550.431 289.99 550.594 290.15 550.714 290.35C550.841 290.543 550.904 290.763 550.904 291.01C550.904 291.37 550.774 291.68 550.514 291.94C550.254 292.2 549.938 292.33 549.564 292.33ZM558.009 294.55C558.563 294.55 559.099 294.663 559.619 294.89C560.139 295.117 560.566 295.48 560.899 295.98C561.239 296.473 561.409 297.117 561.409 297.91V303H559.259V298.3C559.259 297.56 559.083 297.017 558.729 296.67C558.383 296.317 557.933 296.14 557.379 296.14C557.013 296.14 556.663 296.243 556.329 296.45C555.996 296.657 555.723 296.937 555.509 297.29C555.303 297.643 555.199 298.05 555.199 298.51V303H553.059V294.79H555.199V296.17C555.259 295.943 555.419 295.707 555.679 295.46C555.946 295.207 556.283 294.993 556.689 294.82C557.096 294.64 557.536 294.55 558.009 294.55ZM566.809 294.55C567.269 294.55 567.695 294.593 568.089 294.68C568.482 294.767 568.819 294.87 569.099 294.99C569.379 295.11 569.572 295.21 569.679 295.29L568.899 296.61C568.765 296.497 568.525 296.367 568.179 296.22C567.839 296.073 567.455 296 567.029 296C566.602 296 566.242 296.077 565.949 296.23C565.655 296.383 565.509 296.613 565.509 296.92C565.509 297.22 565.662 297.46 565.969 297.64C566.282 297.82 566.705 297.97 567.239 298.09C567.679 298.19 568.099 298.33 568.499 298.51C568.899 298.683 569.225 298.933 569.479 299.26C569.739 299.58 569.869 300.01 569.869 300.55C569.869 301.063 569.759 301.493 569.539 301.84C569.325 302.18 569.039 302.453 568.679 302.66C568.319 302.867 567.919 303.013 567.479 303.1C567.045 303.193 566.609 303.24 566.169 303.24C565.629 303.24 565.145 303.187 564.719 303.08C564.299 302.973 563.949 302.85 563.669 302.71C563.389 302.563 563.189 302.44 563.069 302.34L563.849 300.86C564.022 301.027 564.305 301.203 564.699 301.39C565.092 301.57 565.532 301.66 566.019 301.66C566.539 301.66 566.955 301.56 567.269 301.36C567.582 301.16 567.739 300.893 567.739 300.56C567.739 300.313 567.662 300.113 567.509 299.96C567.362 299.807 567.159 299.683 566.899 299.59C566.639 299.497 566.349 299.413 566.029 299.34C565.729 299.267 565.425 299.173 565.119 299.06C564.819 298.94 564.542 298.787 564.289 298.6C564.035 298.407 563.832 298.167 563.679 297.88C563.525 297.593 563.449 297.257 563.449 296.87C563.449 296.377 563.605 295.957 563.919 295.61C564.232 295.263 564.645 295 565.159 294.82C565.672 294.64 566.222 294.55 566.809 294.55ZM570.935 294.79H572.475V291.42H574.595V294.79H576.625V296.59H574.595V300.1C574.595 300.54 574.668 300.87 574.815 301.09C574.968 301.31 575.185 301.42 575.465 301.42C575.698 301.42 575.881 301.377 576.015 301.29C576.155 301.203 576.238 301.143 576.265 301.11L577.055 302.66C577.015 302.7 576.898 302.767 576.705 302.86C576.511 302.953 576.261 303.04 575.955 303.12C575.648 303.2 575.298 303.24 574.905 303.24C574.211 303.24 573.631 303.033 573.165 302.62C572.705 302.207 572.475 301.56 572.475 300.68V296.59H570.935V294.79ZM584.971 303V301.48C584.918 301.64 584.764 301.86 584.511 302.14C584.264 302.42 583.924 302.673 583.491 302.9C583.064 303.127 582.558 303.24 581.971 303.24C581.204 303.24 580.514 303.057 579.901 302.69C579.288 302.323 578.804 301.813 578.451 301.16C578.098 300.507 577.921 299.753 577.921 298.9C577.921 298.047 578.098 297.293 578.451 296.64C578.804 295.987 579.288 295.477 579.901 295.11C580.514 294.737 581.204 294.55 581.971 294.55C582.544 294.55 583.041 294.65 583.461 294.85C583.881 295.05 584.218 295.28 584.471 295.54C584.731 295.8 584.891 296.027 584.951 296.22V294.79H587.071V303H584.971ZM580.031 298.9C580.031 299.427 580.148 299.887 580.381 300.28C580.614 300.673 580.918 300.977 581.291 301.19C581.671 301.403 582.078 301.51 582.511 301.51C582.978 301.51 583.391 301.4 583.751 301.18C584.118 300.96 584.404 300.657 584.611 300.27C584.824 299.877 584.931 299.42 584.931 298.9C584.931 298.38 584.824 297.927 584.611 297.54C584.404 297.147 584.118 296.84 583.751 296.62C583.391 296.393 582.978 296.28 582.511 296.28C582.078 296.28 581.671 296.39 581.291 296.61C580.918 296.823 580.614 297.127 580.381 297.52C580.148 297.913 580.031 298.373 580.031 298.9ZM591.451 303H589.301V289.24H591.451V303ZM595.963 303H593.813V289.24H595.963V303ZM599.765 299.4C599.778 299.833 599.881 300.223 600.075 300.57C600.268 300.917 600.551 301.19 600.925 301.39C601.305 301.583 601.768 301.68 602.315 301.68C602.788 301.68 603.195 301.617 603.535 301.49C603.881 301.357 604.168 301.2 604.395 301.02C604.621 300.833 604.788 300.66 604.895 300.5L605.845 301.79C605.638 302.07 605.378 302.32 605.065 302.54C604.751 302.76 604.361 302.93 603.895 303.05C603.435 303.177 602.865 303.24 602.185 303.24C601.291 303.24 600.515 303.057 599.855 302.69C599.195 302.323 598.681 301.807 598.315 301.14C597.955 300.473 597.775 299.693 597.775 298.8C597.775 298 597.941 297.28 598.275 296.64C598.608 295.993 599.091 295.483 599.725 295.11C600.365 294.737 601.131 294.55 602.025 294.55C602.858 294.55 603.581 294.717 604.195 295.05C604.808 295.383 605.281 295.863 605.615 296.49C605.955 297.11 606.125 297.86 606.125 298.74C606.125 298.793 606.121 298.903 606.115 299.07C606.115 299.237 606.108 299.347 606.095 299.4H599.765ZM604.125 297.84C604.118 297.627 604.045 297.383 603.905 297.11C603.771 296.837 603.555 296.6 603.255 296.4C602.955 296.193 602.555 296.09 602.055 296.09C601.541 296.09 601.125 296.19 600.805 296.39C600.485 296.583 600.248 296.817 600.095 297.09C599.941 297.357 599.851 297.607 599.825 297.84H604.125ZM611.533 303.24C610.76 303.24 610.076 303.057 609.483 302.69C608.89 302.323 608.423 301.813 608.083 301.16C607.75 300.507 607.583 299.753 607.583 298.9C607.583 298.047 607.75 297.293 608.083 296.64C608.423 295.987 608.89 295.477 609.483 295.11C610.076 294.737 610.76 294.55 611.533 294.55C612.106 294.55 612.616 294.65 613.063 294.85C613.51 295.043 613.866 295.27 614.133 295.53C614.4 295.79 614.556 296.02 614.603 296.22V289.24H616.743V303H614.633V301.48C614.54 301.713 614.35 301.967 614.063 302.24C613.776 302.513 613.413 302.75 612.973 302.95C612.54 303.143 612.06 303.24 611.533 303.24ZM612.083 301.51C612.55 301.51 612.973 301.4 613.353 301.18C613.733 300.96 614.036 300.657 614.263 300.27C614.49 299.877 614.603 299.42 614.603 298.9C614.603 298.38 614.49 297.927 614.263 297.54C614.036 297.147 613.733 296.84 613.353 296.62C612.973 296.393 612.55 296.28 612.083 296.28C611.656 296.28 611.26 296.39 610.893 296.61C610.533 296.823 610.243 297.127 610.023 297.52C609.803 297.913 609.693 298.373 609.693 298.9C609.693 299.427 609.803 299.887 610.023 300.28C610.243 300.673 610.533 300.977 610.893 301.19C611.26 301.403 611.656 301.51 612.083 301.51ZM620.537 303.24C620.13 303.24 619.78 303.097 619.487 302.81C619.2 302.517 619.057 302.163 619.057 301.75C619.057 301.337 619.2 300.983 619.487 300.69C619.78 300.397 620.13 300.25 620.537 300.25C620.957 300.25 621.31 300.397 621.597 300.69C621.89 300.983 622.037 301.337 622.037 301.75C622.037 302.163 621.89 302.517 621.597 302.81C621.31 303.097 620.957 303.24 620.537 303.24ZM626.689 303.24C626.282 303.24 625.932 303.097 625.639 302.81C625.352 302.517 625.209 302.163 625.209 301.75C625.209 301.337 625.352 300.983 625.639 300.69C625.932 300.397 626.282 300.25 626.689 300.25C627.109 300.25 627.462 300.397 627.749 300.69C628.042 300.983 628.189 301.337 628.189 301.75C628.189 302.163 628.042 302.517 627.749 302.81C627.462 303.097 627.109 303.24 626.689 303.24ZM632.841 303.24C632.435 303.24 632.085 303.097 631.791 302.81C631.505 302.517 631.361 302.163 631.361 301.75C631.361 301.337 631.505 300.983 631.791 300.69C632.085 300.397 632.435 300.25 632.841 300.25C633.261 300.25 633.615 300.397 633.901 300.69C634.195 300.983 634.341 301.337 634.341 301.75C634.341 302.163 634.195 302.517 633.901 302.81C633.615 303.097 633.261 303.24 632.841 303.24Z" fill="white"/>
<path fill-rule="evenodd" clip-rule="evenodd" d="M222.309 0.945831C220.886 1.38283 218.636 2.44083 217.309 3.29683C212.674 6.28483 208.25 6.37383 204.451 3.55583C197.752 -1.41317 188.97 -0.206168 186.277 6.05483C183.863 11.6648 182.687 11.5038 182.212 5.50083C181.895 1.50083 181.895 1.50083 166.895 1.50083C151.895 1.50083 151.895 1.50083 151.031 7.25083C150.168 13.0008 150.168 13.0008 143.861 13.0008C136.591 13.0008 137.466 11.4868 134.904 28.5008C134.075 34.0008 132.1 46.8148 130.514 56.9768C127.475 76.4538 127.474 78.0008 130.502 78.0008C131.543 78.0008 132.395 78.4508 132.395 79.0008C132.395 79.5508 131.255 80.0008 129.863 80.0008C128.151 80.0008 127.059 80.7298 126.494 82.2508C125.032 86.1848 126.154 87.0008 133.021 87.0008C139.141 87.0008 139.412 87.1038 138.972 89.2508C136.779 99.9418 133.086 99.0008 177.252 99.0008C217.199 99.0008 217.199 99.0008 217.89 93.0448C218.581 87.0878 218.581 87.0878 225.238 86.7948C231.895 86.5008 231.895 86.5008 232.165 82.0008C232.313 79.5258 233.111 71.4738 233.937 64.1068C234.763 56.7398 235.317 50.6408 235.167 50.5528C235.018 50.4658 233.77 49.8858 232.395 49.2648C230.079 48.2188 230.051 48.1308 232.023 48.0688C235.367 47.9618 235.971 46.2938 237.298 33.5008C237.983 26.9008 238.796 19.5878 239.105 17.2508C239.667 13.0008 239.667 13.0008 232.964 13.0008C227.054 13.0008 226.32 12.7938 226.764 11.2508C229.201 2.79083 227.688 -0.708169 222.309 0.945831ZM734.931 7.75083C735.848 17.8008 738.737 20.7348 741.577 14.5008C743.215 10.9058 744.422 11.4198 743.325 15.2438C742.814 17.0278 742.395 18.5678 742.395 18.6648C742.395 18.7618 741.089 19.1288 739.492 19.4798C737.569 19.9018 736.67 20.6698 736.829 21.7548C737.18 24.1408 739.102 24.4228 742.014 22.5148C745.057 20.5208 745.974 21.0498 744.441 23.9148C743.702 25.2948 742.341 26.0008 740.419 26.0008C736.967 26.0008 735.988 27.2418 736.82 30.5578C737.396 32.8538 737.848 33.0008 744.357 33.0008C751.28 33.0008 751.28 33.0008 751.588 37.2508C751.895 41.5008 751.895 41.5008 757.145 41.8028C761.885 42.0758 762.395 42.3308 762.395 44.4278C762.395 45.7058 762.676 48.1568 763.02 49.8758C763.645 53.0008 763.645 53.0008 758.381 53.0008C753.116 53.0008 753.116 53.0008 753.709 58.0008C754.301 63.0008 754.301 63.0008 747.348 63.0008C739.137 63.0008 739.647 61.2228 741.895 82.0008C742.698 89.4258 743.364 96.0638 743.375 96.7508C743.39 97.7058 747.798 98.0008 762.024 98.0008C780.653 98.0008 780.653 98.0008 779.975 92.0008C779.296 86.0008 779.296 86.0008 784.345 86.0008C789.395 86.0008 789.395 86.0008 789.395 81.5008C789.395 77.0008 789.395 77.0008 794.788 77.0008C800.634 77.0008 801.395 77.7018 801.395 83.0828C801.395 85.9518 801.487 86.0008 806.876 86.0008C812.876 86.0008 812.482 85.5358 813.883 94.2508C814.486 98.0008 814.486 98.0008 824.78 98.0008C836.654 98.0008 837.565 97.2908 836.323 89.0008C835.146 81.1398 836.543 84.0898 839.992 96.7508C840.212 97.5598 842.289 98.0008 845.875 98.0008C851.419 98.0008 851.419 98.0008 850.789 93.7508C849.116 82.4648 849.182 82.5908 844.357 81.3988C839.895 80.2958 839.895 80.2958 844.247 79.5428C848.599 78.7908 848.599 78.7908 847.923 73.1458C846.65 62.5228 847.051 63.0008 839.415 63.0008C832.653 63.0008 832.653 63.0008 831.989 58.0008C831.326 53.0008 831.326 53.0008 826.361 53.0008C822.302 53.0008 821.393 52.6808 821.384 51.2508C821.378 50.2878 821.094 47.8138 820.753 45.7508C820.133 42.0008 820.133 42.0008 824.9 42.0008C829.667 42.0008 829.667 42.0008 829.05 37.5008C828.433 33.0008 828.433 33.0008 834.914 33.0008C842.646 33.0008 842.356 34.1988 839.395 14.5008C838.32 7.35083 837.431 1.16383 837.418 0.750832C837.405 0.337832 829.466 0.000831626 819.775 0.000831626C802.155 0.000831626 802.155 0.000831604 802.589 6.00083C803.023 12.0008 803.023 12.0008 798.209 12.0008C793.395 12.0008 793.395 12.0008 793.395 16.5008C793.395 21.0008 793.395 21.0008 787.956 21.0008C782.518 21.0008 782.518 21.0008 781.843 16.5008C781.168 12.0008 781.168 12.0008 775.781 12.0008C770.515 12.0008 770.395 11.9368 770.395 9.12583C770.395 -0.273169 770.957 0.000831626 751.685 0.000831626C734.224 0.000831626 734.224 0.000831604 734.931 7.75083ZM25.9216 3.25083C22.1086 20.0398 22.0696 19.8318 29.1446 20.2008C34.8946 20.5008 34.8946 20.5008 28.1446 22.8328C24.4326 24.1148 21.3906 25.2398 21.3856 25.3328C21.3816 25.4248 18.0346 41.6768 13.9486 61.4478C9.86364 81.2188 6.74364 97.7568 7.01664 98.1978C8.06164 99.8888 41.1246 99.1478 41.7876 97.4188C43.5266 92.8868 42.5486 91.0008 38.4596 91.0008C33.1486 91.0008 29.7056 89.5548 28.8886 86.9828C27.8756 83.7888 29.0746 83.3878 32.3666 85.8218C36.8156 89.1118 44.3946 88.9378 44.3946 85.5458C44.3946 83.4798 43.8006 82.9988 40.6446 82.5078C33.6666 81.4228 31.9186 79.9518 31.6886 74.9688C31.4826 70.5008 31.4826 70.5008 33.0416 74.0008C35.0036 78.4078 35.9076 78.9668 41.1096 78.9858C46.3016 79.0048 46.5936 78.5058 48.8526 65.7508C50.4856 56.5308 50.7136 56.0008 53.0366 56.0008C55.4486 56.0008 55.4816 56.1108 54.8146 62.0008C54.1366 68.0008 54.1366 68.0008 65.1356 68.0008C76.1346 68.0008 76.1346 68.0008 77.3146 62.0008C78.4386 56.2908 78.6376 56.0008 81.4446 56.0008C83.0676 56.0008 84.3926 56.1128 84.3906 56.2508C84.3896 56.3888 82.8146 65.6808 80.8906 76.8998C78.9676 88.1198 77.3946 97.6818 77.3946 98.1498C77.3946 100.181 96.8486 99.1038 98.1626 97.0008C99.7656 94.4338 101.395 94.4338 101.395 97.0008C101.395 98.7588 102.062 99.0008 106.895 99.0008C109.92 99.0008 112.395 98.8888 112.395 98.7508C112.396 98.6128 114.609 84.5508 117.314 67.5008C120.375 48.2108 121.88 36.1358 121.299 35.5358C120.785 35.0048 115.871 34.3898 110.38 34.1688C96.7226 33.6208 97.7376 32.0008 111.738 32.0008C123.082 32.0008 123.082 32.0008 125.244 18.2508C126.434 10.6888 127.404 3.70283 127.401 2.72683C127.395 1.08783 126.119 0.973831 110.645 1.22683C93.8946 1.50083 93.8946 1.50083 93.0376 7.20883C92.1796 12.9178 92.1796 12.9178 85.0436 13.2088C77.9076 13.5008 77.9076 13.5008 77.0746 18.7508C76.3006 23.6308 76.0456 24.0008 73.4526 24.0008C70.7086 24.0008 70.6766 23.9318 71.4856 19.7508C72.8306 12.7948 73.0046 13.0008 65.7966 13.0008C59.1986 13.0008 59.1986 13.0008 59.8946 7.00083C60.5906 1.00083 60.5906 1.00083 43.5116 1.00083C26.6186 1.00083 26.4276 1.02483 25.9216 3.25083ZM250.948 4.25083C250.004 9.95783 241.395 92.4558 241.395 95.7928C241.395 99.0008 241.395 99.0008 252.395 99.0008C264.146 99.0008 267.395 97.7278 267.395 93.1228C267.395 92.0908 268.032 90.7168 268.811 90.0708C270.343 88.7988 270.593 89.2598 271.9 95.7508C273.049 101.462 320.861 100.743 321.779 95.0008C322.419 91.0008 322.419 91.0008 327.73 91.0008C333.042 91.0008 333.042 91.0008 334.174 73.7508C335.394 55.1658 335.156 54.0008 330.145 54.0008C327.4 54.0008 328.947 52.2578 332.355 51.5098C334.913 50.9478 335.361 50.3238 335.817 46.6828C336.346 42.4648 338.395 14.5798 338.395 11.6048C338.395 10.3468 337.316 10.0008 333.395 10.0008C328.395 10.0008 328.395 10.0008 328.395 5.50083C328.395 1.00083 328.395 1.00083 289.94 1.00083C251.486 1.00083 251.486 1.00083 250.948 4.25083ZM350.377 2.25083C350.368 2.93883 349.484 16.3178 348.414 31.9828C346.145 65.2088 345.923 64.0798 355.117 66.1398C360.895 67.4338 360.895 67.4338 356.895 68.6408C354.695 69.3038 351.459 69.8818 349.704 69.9238C345.551 70.0238 345.757 69.3628 344.941 85.2508C344.234 99.0008 344.234 99.0008 352.226 99.0008C363.535 99.0008 364.936 97.2848 365.868 82.2918C366.679 69.2338 366.749 68.9258 368.257 71.7428C369.567 74.1898 370.012 91.7828 368.877 96.2508C368.178 99.0008 368.178 99.0008 374.637 99.0008C381.504 99.0008 382.395 96.3408 382.395 75.8468C382.395 71.0008 382.395 71.0008 407.268 71.0008C432.142 71.0008 432.142 71.0008 432.805 39.7508C433.17 22.5638 433.716 6.81383 434.02 4.75083C434.571 1.00083 434.571 1.00083 392.483 1.00083C359.489 1.00083 350.391 1.27083 350.377 2.25083ZM443.058 19.2428C440.265 99.4368 440.125 98.2048 451.993 98.0028C457.989 97.9008 466.607 98.1478 471.145 98.5518C479.395 99.2868 479.395 99.2868 479.395 85.6438C479.395 72.0008 479.395 72.0008 485.895 72.0008C492.395 72.0008 492.395 72.0008 492.395 85.5008C492.395 99.0008 492.395 99.0008 510.895 99.0008C529.395 99.0008 529.395 99.0008 529.395 90.9798C529.395 83.1578 529.326 82.9308 526.645 81.8738C525.132 81.2778 522.32 80.0878 520.395 79.2308C515.93 77.2418 499.496 76.3408 496.54 77.9228C495.36 78.5548 494.395 78.6568 494.395 78.1498C494.395 74.2948 509.632 73.0168 524.645 75.6138C528.395 76.2628 528.395 76.2628 528.395 38.6848C528.395 1.10783 528.395 1.10783 486.045 1.04583C443.694 0.983832 443.694 0.983831 443.058 19.2428ZM553.395 7.00083C553.395 13.0008 553.395 13.0008 546.395 13.0008C538.526 13.0008 538.514 13.0518 540.046 39.6478C540.689 50.7958 540.689 50.7958 543.792 51.7578C546.947 52.7358 546.808 52.9348 541.895 54.4698C540.644 54.8608 540.395 57.5938 540.395 70.9698C540.395 87.0008 540.395 87.0008 547.895 87.0008C555.395 87.0008 555.395 87.0008 555.395 93.0008C555.395 99.0008 555.395 99.0008 577.803 99.0008C600.21 99.0008 600.21 99.0008 601.492 94.0008C602.905 88.4848 604.81 87.5028 605.854 91.7508C607.559 98.6828 608.248 99.0008 621.565 99.0008C633.688 99.0008 633.688 99.0008 633.042 91.3498C632.686 87.1418 632.395 81.2918 632.395 78.3498C632.395 73.0008 632.395 73.0008 604.546 73.0008C573.958 73.0008 575.523 74.3948 575.369 47.0008C575.317 37.8028 573.591 36.6488 559.145 36.1508C546.549 35.7158 543.221 33.3148 555.145 33.2648C574.844 33.1808 575.653 33.0428 575.02 29.8768C574.445 27.0008 574.445 27.0008 601.92 27.0008C629.395 27.0008 629.395 27.0008 629.395 14.0008C629.395 1.00083 629.395 1.00083 591.395 1.00083C553.395 1.00083 553.395 1.00083 553.395 7.00083ZM638.063 12.2508C638.935 28.0208 638.727 27.6738 647.823 28.5258C656.614 29.3498 656.775 30.2228 648.463 31.9868C638.982 33.9988 639.361 32.3798 641.077 63.5008C642.656 92.1278 643.528 96.8388 646.808 94.4408C647.828 93.6948 649.217 90.7038 649.896 87.7928C651.129 82.5008 651.129 82.5008 651.903 86.4108C652.487 89.3598 652.247 91.1208 650.925 93.5758C648.171 98.6888 649.012 99.0008 665.558 99.0008C682.016 99.0008 681.391 100.006 678.767 77.7508C678.207 73.0008 678.207 73.0008 681.301 73.0008C684.123 73.0008 684.396 73.2868 684.406 76.2508C684.438 85.5828 685.229 87.0008 690.409 87.0008C695.691 87.0008 696.355 87.9168 696.381 95.2508C696.399 100.191 708.579 101.277 710.395 96.5008C711.611 93.3038 713.182 93.3038 713.984 96.5008C714.595 98.9328 714.853 99.0008 723.503 99.0008C733.884 99.0008 733.04 100.821 731.362 82.0538C729.611 62.4738 730.289 64.0008 723.35 64.0008C717.845 64.0008 717.394 63.8308 717.381 61.7508C717.346 55.9498 716.522 55.1118 710.541 54.7978C704.895 54.5008 704.895 54.5008 704.585 50.7508C704.33 47.6788 703.878 46.9888 702.085 46.9328C699.895 46.8658 699.895 46.8658 702.145 45.7808C703.382 45.1838 704.395 44.3138 704.395 43.8478C704.395 43.3818 706.929 43.0008 710.025 43.0008C715.655 43.0008 715.655 43.0008 715.148 38.5008C714.641 34.0008 714.641 34.0008 720.518 34.0008C725.379 34.0008 726.395 33.7078 726.395 32.3038C726.395 29.6888 724.393 7.90883 723.817 4.25083C723.304 1.00083 723.304 1.00083 706.35 1.00083C689.395 1.00083 689.395 1.00083 689.395 7.00083C689.395 13.0008 689.395 13.0008 684.895 13.0008C680.395 13.0008 680.395 13.0008 680.395 19.5008C680.395 25.7108 680.287 26.0008 677.974 26.0008C675.104 26.0008 674.805 24.8938 673.86 10.7508C673.208 1.00083 673.208 1.00083 667.052 1.00083C660.895 1.00183 660.895 1.00183 660.698 13.0118C660.398 31.2838 657.75 29.9778 657.483 11.4248C657.357 2.69383 655.347 1.00083 645.104 1.00083C637.442 1.00083 637.442 1.00083 638.063 12.2508ZM848.401 3.75083C848.404 5.26283 848.861 9.20083 849.416 12.5008C849.971 15.8008 852.894 35.3758 855.911 56.0008C858.927 76.6258 861.656 94.7378 861.975 96.2508C862.554 99.0008 862.554 99.0008 871.554 99.0008C880.554 99.0008 880.554 99.0008 879.895 96.0008C879.064 92.2178 880.135 92.2178 884.895 96.0008C891.283 101.077 897.828 100.409 897.133 94.7508C895.084 78.0668 893.94 69.9188 890.934 50.6168C887.052 25.6828 887.768 27.2178 879.628 26.3678C872.335 25.6048 872.396 24.5578 879.826 23.0148C886.4 21.6498 886.38 21.7038 884.611 10.2508C883.182 1.00083 883.182 1.00083 865.789 1.00083C848.395 1.00083 848.395 1.00083 848.401 3.75083ZM895.368 2.75083C895.353 3.71283 896.681 13.0508 898.318 23.5008C905.401 68.7108 909.685 95.3948 910.14 97.1338C910.588 98.8468 928.395 100.245 928.395 98.5658C928.395 98.3268 927.945 96.9458 927.394 95.4978C926.154 92.2358 929.088 92.7638 933.722 96.6378C937.305 99.6338 946.395 100.119 946.395 97.3148C946.395 94.2108 934.227 28.5108 933.512 27.7568C933.125 27.3478 929.95 26.7148 926.456 26.3498C919.35 25.6068 919.779 23.8348 927.359 22.6228C932.673 21.7728 932.812 21.2898 930.862 10.4588C929.159 1.00083 929.159 1.00083 912.277 1.00083C896.876 1.00083 895.393 1.15483 895.368 2.75083ZM941.395 2.86783C941.395 3.89483 942.947 12.7818 944.845 22.6178C946.742 32.4538 950.588 52.8758 953.392 68.0008C956.195 83.1258 958.723 96.2878 959.01 97.2508C959.452 98.7378 960.796 99.0008 967.962 99.0008C976.89 99.0008 976.98 98.9628 975.349 95.9148C973.357 92.1928 975.52 92.0048 980.098 95.4998C984.953 99.2068 994.387 100.692 994.401 97.7508C994.416 94.5788 980.898 29.7068 979.959 28.4398C979.341 27.6078 976.214 26.7298 972.5 26.3468C965.148 25.5868 965.839 23.7608 973.94 22.5468C979.182 21.7598 979.213 21.6128 976.759 9.25083C975.121 1.00083 975.121 1.00083 958.258 1.00083C942.463 1.00083 941.395 1.11883 941.395 2.86783ZM397.575 26.2508C397.863 28.2738 398.646 28.5758 405.337 29.2428C416.215 30.3278 416.74 32.0008 406.202 32.0008C396.385 32.0008 396.395 31.9928 396.395 40.5828C396.395 46.0008 396.395 46.0008 390.247 46.0008C384.099 46.0008 384.099 46.0008 384.741 37.7508C385.094 33.2128 385.386 28.2638 385.389 26.7508C385.397 22.8598 397.026 22.3818 397.575 26.2508ZM491.395 36.0508C491.395 48.1008 491.395 48.1008 485.645 47.8008C478.811 47.4438 478.822 47.4718 479.887 33.2608C480.582 24.0008 480.582 24.0008 485.988 24.0008C491.395 24.0008 491.395 24.0008 491.395 36.0508ZM202.395 29.2908C202.395 31.4378 199.932 51.2038 198.913 57.2358C198.076 62.1918 202.194 64.7328 212.302 65.4968C230.594 66.8798 226.267 68.4168 203.895 68.4828C198.44 68.4988 197.866 68.7058 197.575 70.7508C197.259 72.9808 197.107 73.0008 180.714 73.0008C164.172 73.0008 164.172 73.0008 164.843 69.4288C165.211 67.4638 165.903 61.0518 166.381 55.1788C168.787 25.5898 167.802 27.0008 186.047 27.0008C202.395 27.0008 202.395 27.0008 202.395 29.2908ZM301.579 29.6678C301.895 32.3338 301.895 32.3338 314.895 32.7588C322.045 32.9918 328.107 33.3918 328.366 33.6458C329.651 34.9098 325.074 35.9838 317.895 36.1038C301.63 36.3758 299.963 37.7878 299.006 52.1118C297.517 74.3838 298.129 73.0008 289.757 73.0008C282.395 73.0008 282.395 73.0008 282.389 69.7508C282.382 65.6088 285.447 29.9148 285.952 28.2508C286.832 25.3538 301.222 26.6588 301.579 29.6678Z" fill="white"/>
</svg>
