<svg width="20" height="20" viewBox="0 0 20 20" fill="none" xmlns="http://www.w3.org/2000/svg">
<path d="M15.0432 19.2007H14.9588V19.1535H15.186V19.2007H15.1022V19.4363H15.0432V19.2007ZM15.4964 19.213H15.495L15.4114 19.4363H15.3732L15.2901 19.213H15.289V19.4363H15.2335V19.1535H15.3153L15.3923 19.3538L15.4691 19.1535H15.5506V19.4363H15.4963V19.213H15.4964ZM7.48824 13.4183C7.48824 13.4183 6.90106 13.7598 7.90611 13.8754C9.1237 14.0143 9.74599 13.9943 11.0878 13.7404C11.0878 13.7404 11.4406 13.9616 11.9332 14.1532C8.92528 15.4423 5.12566 14.0785 7.48824 13.4183ZM7.12068 11.7361C7.12068 11.7361 6.46211 12.2236 7.4679 12.3276C8.76857 12.4618 9.79573 12.4728 11.5731 12.1305C11.5731 12.1305 11.819 12.3797 12.2055 12.516C8.56874 13.5795 4.51802 12.5999 7.12068 11.7361Z" fill="#73799B"/>
<path d="M10.2191 8.88252C10.9603 9.73583 10.0244 10.5037 10.0244 10.5037C10.0244 10.5037 11.9063 9.53219 11.042 8.31564C10.2348 7.18113 9.61578 6.61743 12.9669 4.67389C12.9669 4.67389 7.70673 5.98764 10.2191 8.88252Z" fill="#73799B"/>
<path d="M14.1976 14.6627C14.1976 14.6627 14.6321 15.0207 13.7191 15.2977C11.9828 15.8237 6.49271 15.9825 4.96757 15.3187C4.41933 15.0801 5.44744 14.7492 5.77085 14.6797C6.10813 14.6066 6.30088 14.6202 6.30088 14.6202C5.69117 14.1907 2.35999 15.4636 4.6088 15.8281C10.7416 16.8227 15.7884 15.3802 14.1976 14.6627ZM7.77068 9.99311C7.77068 9.99311 4.97805 10.6564 6.78174 10.8973C7.54331 10.9992 9.06149 10.9762 10.4756 10.8577C11.6313 10.7602 12.7918 10.5529 12.7918 10.5529C12.7918 10.5529 12.3843 10.7274 12.0895 10.9288C9.25361 11.6746 3.77525 11.3276 5.3524 10.5647C6.6862 9.91997 7.77068 9.99311 7.77068 9.99311ZM12.7803 12.7933C15.6631 11.2953 14.3302 9.85574 13.3999 10.0497C13.1718 10.0971 13.0702 10.1383 13.0702 10.1383C13.0702 10.1383 13.1548 10.0057 13.3165 9.94826C15.157 9.3012 16.5725 11.8567 12.7224 12.8688C12.7224 12.8689 12.767 12.829 12.7803 12.7933Z" fill="#73799B"/>
<path d="M11.0423 1.53552C11.0423 1.53552 12.6389 3.13259 9.52808 5.58844C7.03356 7.55844 8.95925 8.68169 9.52705 9.96504C8.07095 8.65129 7.00237 7.49479 7.71926 6.41842C8.77148 4.83842 11.6865 4.07237 11.0423 1.53552Z" fill="#73799B"/>
<rect x="0.5" y="0.5" width="18.1938" height="18.1938" rx="3.5" stroke="#73799B"/>
</svg>
