<svg width="434" height="122" viewBox="0 0 434 122" fill="none" xmlns="http://www.w3.org/2000/svg">
<rect y="52" width="434" height="10" rx="5" fill="#1F2331"/>
<rect y="52" width="179" height="10" rx="5" fill="#73799B"/>
<path d="M208 53V51.5H211V45.5H209.5V44H211V42.5H212.5V51.5H215.5V53H208ZM218.5 53V51.5H223V53H218.5ZM217 51.5V50H218.5V51.5H217ZM223 51.5V48.5H224.5V51.5H223ZM220 48.5V47H223V48.5H220ZM217 45.5V44H218.5V45.5H217ZM223 47V44H224.5V47H223ZM218.5 44V42.5H223V44H218.5Z" fill="white"/>
<rect x="1" y="71" width="48" height="48" stroke="#73799B" stroke-width="2"/>
<rect x="49" y="71" width="48" height="48" stroke="#73799B" stroke-width="2"/>
<rect x="96" y="70" width="48" height="50" stroke="#73799B" stroke-width="4"/>
<rect x="145" y="71" width="48" height="48" stroke="#73799B" stroke-width="2"/>
<rect x="193" y="71" width="48" height="48" stroke="#73799B" stroke-width="2"/>
<rect x="241" y="71" width="48" height="48" stroke="#73799B" stroke-width="2"/>
<rect x="289" y="71" width="48" height="48" stroke="#73799B" stroke-width="2"/>
<rect x="337" y="71" width="48" height="48" stroke="#73799B" stroke-width="2"/>
<rect x="385" y="71" width="48" height="48" stroke="#73799B" stroke-width="2"/>
<path d="M9.3125 111.688H7V114H9.3125V111.688Z" fill="#2B2E42"/>
<path d="M11.625 111.688H9.3125V114H11.625V111.688Z" fill="#2B2E42"/>
<path d="M13.9375 111.688H11.625V114H13.9375V111.688Z" fill="#2B2E42"/>
<path d="M9.3125 109.375H7V111.687H9.3125V109.375Z" fill="#2B2E42"/>
<path d="M9.3125 107.062H7V109.375H9.3125V107.062Z" fill="#2B2E42"/>
<path d="M13.9375 109.375H11.625V111.687H13.9375V109.375Z" fill="#2B2E42"/>
<path d="M13.9375 107.062H11.625V109.375H13.9375V107.062Z" fill="#465191"/>
<path d="M11.625 107.062H9.3125V109.375H11.625V107.062Z" fill="#2B2E42"/>
<path d="M11.625 109.375H9.3125V111.687H11.625V109.375Z" fill="#28345E"/>
<path d="M13.9375 104.75H11.625V107.062H13.9375V104.75Z" fill="#3E486E"/>
<path d="M16.25 104.75H13.9375V107.062H16.25V104.75Z" fill="#5A66AA"/>
<path d="M16.25 107.062H13.9375V109.375H16.25V107.062Z" fill="#293049"/>
<path d="M18.5625 104.75H16.25V107.062H18.5625V104.75Z" fill="#29304A"/>
<path d="M18.5625 102.438H16.25V104.75H18.5625V102.438Z" fill="#465191"/>
<path d="M16.25 102.438H13.9375V104.75H16.25V102.438Z" fill="#3E486E"/>
<path d="M20.875 102.438H18.5625V104.75H20.875V102.438Z" fill="#553D16"/>
<path d="M18.5625 100.125H16.25V102.437H18.5625V100.125Z" fill="#2B2E42"/>
<path d="M23.1875 104.75H20.875V107.062H23.1875V104.75Z" fill="#2B2E42"/>
<path d="M25.5 104.75H23.1875V107.062H25.5V104.75Z" fill="#2B2E42"/>
<path d="M27.8125 104.75H25.5V107.062H27.8125V104.75Z" fill="#3E486E"/>
<path d="M30.125 104.75H27.8125V107.062H30.125V104.75Z" fill="#2B2E42"/>
<path d="M27.8125 107.062H25.5V109.375H27.8125V107.062Z" fill="#2B2E42"/>
<path d="M30.125 107.062H27.8125V109.375H30.125V107.062Z" fill="#2B2E42"/>
<path d="M27.8125 102.438H25.5V104.75H27.8125V102.438Z" fill="#2B2E42"/>
<path d="M20.875 102.438H18.5625V104.75H20.875V102.438Z" fill="#3E486E"/>
<path d="M20.875 102.438H18.5625V104.75H20.875V102.438Z" fill="#553D16"/>
<path d="M20.875 102.438H18.5625V104.75H20.875V102.438Z" fill="#553D16"/>
<path d="M20.875 102.438H18.5625V104.75H20.875V102.438Z" fill="#553D16"/>
<path d="M20.875 102.438H18.5625V104.75H20.875V102.438Z" fill="#553D16"/>
<path d="M20.875 102.438H18.5625V104.75H20.875V102.438Z" fill="#553D16"/>
<path d="M20.875 102.438H18.5625V104.75H20.875V102.438Z" fill="#553D16"/>
<path d="M20.875 102.438H18.5625V104.75H20.875V102.438Z" fill="#553D16"/>
<path d="M20.875 102.438H18.5625V104.75H20.875V102.438Z" fill="#553D16"/>
<path d="M20.875 102.438H18.5625V104.75H20.875V102.438Z" fill="#28345E"/>
<path d="M20.875 102.438H18.5625V104.75H20.875V102.438Z" fill="#553D16"/>
<path d="M20.875 102.438H18.5625V104.75H20.875V102.438Z" fill="#553D16"/>
<path d="M20.875 102.438H18.5625V104.75H20.875V102.438Z" fill="#553D16"/>
<path d="M20.875 102.438H18.5625V104.75H20.875V102.438Z" fill="#553D16"/>
<path d="M20.875 102.438H18.5625V104.75H20.875V102.438Z" fill="#553D16"/>
<path d="M20.875 102.438H18.5625V104.75H20.875V102.438Z" fill="#553D16"/>
<path d="M20.875 102.438H18.5625V104.75H20.875V102.438Z" fill="#293049"/>
<path d="M25.5 100.125H23.1875V102.437H25.5V100.125Z" fill="#2B2E42"/>
<path d="M27.8125 97.8125H25.5V100.125H27.8125V97.8125Z" fill="#3E486E"/>
<path d="M30.125 95.5H27.8125V97.8125H30.125V95.5Z" fill="#3E486E"/>
<path d="M32.4375 93.1875H30.125V95.5H32.4375V93.1875Z" fill="#3E486E"/>
<path d="M34.75 90.875H32.4375V93.1875H34.75V90.875Z" fill="#3E486E"/>
<path d="M37.0625 88.5625H34.75V90.875H37.0625V88.5625Z" fill="#3E486E"/>
<path d="M39.375 86.25H37.0625V88.5625H39.375V86.25Z" fill="#3E486E"/>
<path d="M41.6875 83.9375H39.375V86.25H41.6875V83.9375Z" fill="#3E486E"/>
<path d="M44 81.625H41.6875V83.9375H44V81.625Z" fill="#3E486E"/>
<path d="M44 79.3125H41.6875V81.625H44V79.3125Z" fill="#3E486E"/>
<path d="M44 77H41.6875V79.3125H44V77Z" fill="#3E486E"/>
<path d="M41.6875 77H39.375V79.3125H41.6875V77Z" fill="#3E486E"/>
<path d="M39.375 77H37.0625V79.3125H39.375V77Z" fill="#3E486E"/>
<path d="M37.0625 79.3125H34.75V81.625H37.0625V79.3125Z" fill="#3E486E"/>
<path d="M34.75 81.625H32.4375V83.9375H34.75V81.625Z" fill="#3E486E"/>
<path d="M32.4375 83.9375H30.125V86.25H32.4375V83.9375Z" fill="#3E486E"/>
<path d="M30.125 86.25H27.8125V88.5625H30.125V86.25Z" fill="#3E486E"/>
<path d="M27.8125 88.5625H25.5V90.875H27.8125V88.5625Z" fill="#3E486E"/>
<path d="M25.5 90.875H23.1875V93.1875H25.5V90.875Z" fill="#3E486E"/>
<path d="M23.1875 93.1875H20.875V95.5H23.1875V93.1875Z" fill="#3E486E"/>
<path d="M18.5625 93.1875H16.25V95.5H18.5625V93.1875Z" fill="#2B2E42"/>
<path d="M20.875 95.5H18.5625V97.8125H20.875V95.5Z" fill="#2B2E42"/>
<path d="M16.25 90.875H13.9375V93.1875H16.25V90.875Z" fill="#2B2E42"/>
<path d="M13.9375 90.875H11.625V93.1875H13.9375V90.875Z" fill="#2B2E42"/>
<path d="M13.9375 93.1875H11.625V95.5H13.9375V93.1875Z" fill="#2B2E42"/>
<path d="M16.25 95.5H13.9375V97.8125H16.25V95.5Z" fill="#2B2E42"/>
<path d="M16.25 97.8125H13.9375V100.125H16.25V97.8125Z" fill="#2B2E42"/>
<path d="M18.5625 97.8125H16.25V100.125H18.5625V97.8125Z" fill="#28345E"/>
<path d="M20.875 97.8125H18.5625V100.125H20.875V97.8125Z" fill="#2B2E42"/>
<path d="M23.1875 97.8125H20.875V100.125H23.1875V97.8125Z" fill="#5B638E"/>
<path d="M20.875 100.125H18.5625V102.437H20.875V100.125Z" fill="#28345E"/>
<path d="M23.1875 100.125H20.875V102.437H23.1875V100.125Z" fill="#2B2E42"/>
<path d="M18.5625 95.5H16.25V97.8125H18.5625V95.5Z" fill="#28345E"/>
<path d="M16.25 93.1875H13.9375V95.5H16.25V93.1875Z" fill="#3E486E"/>
<path d="M23.1875 95.5H20.875V97.8125H23.1875V95.5Z" fill="#73799B"/>
<path d="M25.5 95.5H23.1875V97.8125H25.5V95.5Z" fill="#5B638E"/>
<path d="M25.5 97.8125H23.1875V100.125H25.5V97.8125Z" fill="#73799B"/>
<path d="M27.8125 95.5H25.5V97.8125H27.8125V95.5Z" fill="#73799B"/>
<path d="M25.5 93.1875H23.1875V95.5H25.5V93.1875Z" fill="#73799B"/>
<path d="M27.8125 93.1875H25.5V95.5H27.8125V93.1875Z" fill="#5B638E"/>
<path d="M30.125 93.1875H27.8125V95.5H30.125V93.1875Z" fill="#73799B"/>
<path d="M30.125 90.875H27.8125V93.1875H30.125V90.875Z" fill="#5B638E"/>
<path d="M27.8125 90.875H25.5V93.1875H27.8125V90.875Z" fill="#73799B"/>
<path d="M32.4375 90.875H30.125V93.1875H32.4375V90.875Z" fill="#73799B"/>
<path d="M34.75 88.5625H32.4375V90.875H34.75V88.5625Z" fill="#73799B"/>
<path d="M30.125 88.5625H27.8125V90.875H30.125V88.5625Z" fill="#73799B"/>
<path d="M32.4375 88.5625H30.125V90.875H32.4375V88.5625Z" fill="#5B638E"/>
<path d="M37.0625 86.25H34.75V88.5625H37.0625V86.25Z" fill="#73799B"/>
<path d="M32.4375 86.25H30.125V88.5625H32.4375V86.25Z" fill="#73799B"/>
<path d="M34.75 86.25H32.4375V88.5625H34.75V86.25Z" fill="#5B638E"/>
<path d="M39.375 83.9375H37.0625V86.25H39.375V83.9375Z" fill="#73799B"/>
<path d="M34.75 83.9375H32.4375V86.25H34.75V83.9375Z" fill="#73799B"/>
<path d="M37.0625 83.9375H34.75V86.25H37.0625V83.9375Z" fill="#5B638E"/>
<path d="M41.6875 81.625H39.375V83.9375H41.6875V81.625Z" fill="#73799B"/>
<path d="M37.0625 81.625H34.75V83.9375H37.0625V81.625Z" fill="#73799B"/>
<path d="M39.375 81.625H37.0625V83.9375H39.375V81.625Z" fill="#5B638E"/>
<path d="M39.375 79.3125H37.0625V81.625H39.375V79.3125Z" fill="#73799B"/>
<path d="M41.6875 79.3125H39.375V81.625H41.6875V79.3125Z" fill="#5B638E"/>
<path d="M23.1875 102.438H20.875V104.75H23.1875V102.438Z" fill="#28345E"/>
<path d="M25.5 102.438H23.1875V104.75H25.5V102.438Z" fill="#3E486E"/>
<path d="M0 30.6667H2.33333V37.6667H0V30.6667Z" fill="#73799B"/>
<path d="M2.33333 28.3333H4.66667V30.6667H2.33333V28.3333Z" fill="#73799B"/>
<path d="M4.66667 26H9.33333V28.3333H4.66667V26Z" fill="#73799B"/>
<path d="M9.33333 28.3333H11.6667V30.6667H9.33333V28.3333Z" fill="#73799B"/>
<path d="M11.6667 26H16.3333V28.3333H11.6667V26Z" fill="#73799B"/>
<path d="M16.3333 28.3333H18.6667V30.6667H16.3333V28.3333Z" fill="#73799B"/>
<path d="M18.6667 30.6667H21V37.6667H18.6667V30.6667Z" fill="#73799B"/>
<path d="M2.33333 37.6667H4.66667V40H2.33333V37.6667Z" fill="#73799B"/>
<path d="M4.66667 40H7V42.3333H4.66667V40Z" fill="#73799B"/>
<path d="M7 42.3333H9.33333V44.6667H7V42.3333Z" fill="#73799B"/>
<path d="M9.33333 44.6667H11.6667V47H9.33333V44.6667Z" fill="#73799B"/>
<path d="M11.6667 42.3333H14V44.6667H11.6667V42.3333Z" fill="#73799B"/>
<path d="M14 40H16.3333V42.3333H14V40Z" fill="#73799B"/>
<path d="M16.3333 37.6667H18.6667V40H16.3333V37.6667Z" fill="#73799B"/>
<path d="M19 30.6667H21.3333V37.6667H19V30.6667Z" fill="#73799B"/>
<path d="M21.3333 28.3333H23.6667V30.6667H21.3333V28.3333Z" fill="#73799B"/>
<path d="M23.6667 26H28.3333V28.3333H23.6667V26Z" fill="#73799B"/>
<path d="M28.3333 28.3333H30.6667V30.6667H28.3333V28.3333Z" fill="#73799B"/>
<path d="M30.6667 26H35.3333V28.3333H30.6667V26Z" fill="#73799B"/>
<path d="M35.3333 28.3333H37.6667V30.6667H35.3333V28.3333Z" fill="#73799B"/>
<path d="M37.6667 30.6667H40V37.6667H37.6667V30.6667Z" fill="#73799B"/>
<path d="M21.3333 37.6667H23.6667V40H21.3333V37.6667Z" fill="#73799B"/>
<path d="M23.6667 40H26V42.3333H23.6667V40Z" fill="#73799B"/>
<path d="M26 42.3333H28.3333V44.6667H26V42.3333Z" fill="#73799B"/>
<path d="M28.3333 44.6667H30.6667V47H28.3333V44.6667Z" fill="#73799B"/>
<path d="M30.6667 42.3333H33V44.6667H30.6667V42.3333Z" fill="#73799B"/>
<path d="M33 40H35.3333V42.3333H33V40Z" fill="#73799B"/>
<path d="M35.3333 37.6667H37.6667V40H35.3333V37.6667Z" fill="#73799B"/>
<path d="M37 30.6667H39.3333V37.6667H37V30.6667Z" fill="#73799B"/>
<path d="M39.3333 28.3333H41.6667V30.6667H39.3333V28.3333Z" fill="#73799B"/>
<path d="M41.6667 26H46.3333V28.3333H41.6667V26Z" fill="#73799B"/>
<path d="M46.3333 28.3333H48.6667V30.6667H46.3333V28.3333Z" fill="#73799B"/>
<path d="M48.6667 26H53.3333V28.3333H48.6667V26Z" fill="#73799B"/>
<path d="M53.3333 28.3333H55.6667V30.6667H53.3333V28.3333Z" fill="#73799B"/>
<path d="M55.6667 30.6667H58V37.6667H55.6667V30.6667Z" fill="#73799B"/>
<path d="M39.3333 37.6667H41.6667V40H39.3333V37.6667Z" fill="#73799B"/>
<path d="M41.6667 40H44V42.3333H41.6667V40Z" fill="#73799B"/>
<path d="M44 42.3333H46.3333V44.6667H44V42.3333Z" fill="#73799B"/>
<path d="M46.3333 44.6667H48.6667V47H46.3333V44.6667Z" fill="#73799B"/>
<path d="M48.6667 42.3333H51V44.6667H48.6667V42.3333Z" fill="#73799B"/>
<path d="M51 40H53.3333V42.3333H51V40Z" fill="#73799B"/>
<path d="M53.3333 37.6667H55.6667V40H53.3333V37.6667Z" fill="#73799B"/>
<path d="M56 30.6667H58.3333V37.6667H56V30.6667Z" fill="#73799B"/>
<path d="M58.3333 28.3333H60.6667V30.6667H58.3333V28.3333Z" fill="#73799B"/>
<path d="M60.6667 26H65.3333V28.3333H60.6667V26Z" fill="#73799B"/>
<path d="M65.3333 28.3333H67.6667V30.6667H65.3333V28.3333Z" fill="#73799B"/>
<path d="M67.6667 26H72.3333V28.3333H67.6667V26Z" fill="#73799B"/>
<path d="M72.3333 28.3333H74.6667V30.6667H72.3333V28.3333Z" fill="#73799B"/>
<path d="M74.6667 30.6667H77V37.6667H74.6667V30.6667Z" fill="#73799B"/>
<path d="M58.3333 37.6667H60.6667V40H58.3333V37.6667Z" fill="#73799B"/>
<path d="M60.6667 40H63V42.3333H60.6667V40Z" fill="#73799B"/>
<path d="M63 42.3333H65.3333V44.6667H63V42.3333Z" fill="#73799B"/>
<path d="M65.3333 44.6667H67.6667V47H65.3333V44.6667Z" fill="#73799B"/>
<path d="M67.6667 42.3333H70V44.6667H67.6667V42.3333Z" fill="#73799B"/>
<path d="M70 40H72.3333V42.3333H70V40Z" fill="#73799B"/>
<path d="M72.3333 37.6667H74.6667V40H72.3333V37.6667Z" fill="#73799B"/>
<path d="M75 30.6667H77.3333V37.6667H75V30.6667Z" fill="#73799B"/>
<path d="M77.3333 28.3333H79.6667V30.6667H77.3333V28.3333Z" fill="#73799B"/>
<path d="M79.6667 26H84.3333V28.3333H79.6667V26Z" fill="#73799B"/>
<path d="M84.3333 28.3333H86.6667V30.6667H84.3333V28.3333Z" fill="#73799B"/>
<path d="M86.6667 26H91.3333V28.3333H86.6667V26Z" fill="#73799B"/>
<path d="M91.3333 28.3333H93.6667V30.6667H91.3333V28.3333Z" fill="#73799B"/>
<path d="M93.6667 30.6667H96V37.6667H93.6667V30.6667Z" fill="#73799B"/>
<path d="M77.3333 37.6667H79.6667V40H77.3333V37.6667Z" fill="#73799B"/>
<path d="M79.6667 40H82V42.3333H79.6667V40Z" fill="#73799B"/>
<path d="M82 42.3333H84.3333V44.6667H82V42.3333Z" fill="#73799B"/>
<path d="M84.3333 44.6667H86.6667V47H84.3333V44.6667Z" fill="#73799B"/>
<path d="M86.6667 42.3333H89V44.6667H86.6667V42.3333Z" fill="#73799B"/>
<path d="M89 40H91.3333V42.3333H89V40Z" fill="#73799B"/>
<path d="M91.3333 37.6667H93.6667V40H91.3333V37.6667Z" fill="#73799B"/>
<path d="M93 30.6667H95.3333V37.6667H93V30.6667Z" fill="#73799B"/>
<path d="M95.3333 28.3333H97.6667V30.6667H95.3333V28.3333Z" fill="#73799B"/>
<path d="M97.6667 26H102.333V28.3333H97.6667V26Z" fill="#73799B"/>
<path d="M102.333 28.3333H104.667V30.6667H102.333V28.3333Z" fill="#73799B"/>
<path d="M104.667 26H109.333V28.3333H104.667V26Z" fill="#73799B"/>
<path d="M109.333 28.3333H111.667V30.6667H109.333V28.3333Z" fill="#73799B"/>
<path d="M111.667 30.6667H114V37.6667H111.667V30.6667Z" fill="#73799B"/>
<path d="M95.3333 37.6667H97.6667V40H95.3333V37.6667Z" fill="#73799B"/>
<path d="M97.6667 40H100V42.3333H97.6667V40Z" fill="#73799B"/>
<path d="M100 42.3333H102.333V44.6667H100V42.3333Z" fill="#73799B"/>
<path d="M102.333 44.6667H104.667V47H102.333V44.6667Z" fill="#73799B"/>
<path d="M104.667 42.3333H107V44.6667H104.667V42.3333Z" fill="#73799B"/>
<path d="M107 40H109.333V42.3333H107V40Z" fill="#73799B"/>
<path d="M109.333 37.6667H111.667V40H109.333V37.6667Z" fill="#73799B"/>
<path d="M112 30.6667H114.333V37.6667H112V30.6667Z" fill="#73799B"/>
<path d="M114.333 28.3333H116.667V30.6667H114.333V28.3333Z" fill="#73799B"/>
<path d="M116.667 26H121.333V28.3333H116.667V26Z" fill="#73799B"/>
<path d="M121.333 28.3333H123.667V30.6667H121.333V28.3333Z" fill="#73799B"/>
<path d="M123.667 26H128.333V28.3333H123.667V26Z" fill="#73799B"/>
<path d="M128.333 28.3333H130.667V30.6667H128.333V28.3333Z" fill="#73799B"/>
<path d="M130.667 30.6667H133V37.6667H130.667V30.6667Z" fill="#73799B"/>
<path d="M114.333 37.6667H116.667V40H114.333V37.6667Z" fill="#73799B"/>
<path d="M116.667 40H119V42.3333H116.667V40Z" fill="#73799B"/>
<path d="M119 42.3333H121.333V44.6667H119V42.3333Z" fill="#73799B"/>
<path d="M121.333 44.6667H123.667V47H121.333V44.6667Z" fill="#73799B"/>
<path d="M123.667 42.3333H126V44.6667H123.667V42.3333Z" fill="#73799B"/>
<path d="M126 40H128.333V42.3333H126V40Z" fill="#73799B"/>
<path d="M128.333 37.6667H130.667V40H128.333V37.6667Z" fill="#73799B"/>
<path d="M131 30.6667H133.333V37.6667H131V30.6667Z" fill="#73799B"/>
<path d="M133.333 28.3333H135.667V30.6667H133.333V28.3333Z" fill="#73799B"/>
<path d="M135.667 26H140.333V28.3333H135.667V26Z" fill="#73799B"/>
<path d="M140.333 28.3333H142.667V30.6667H140.333V28.3333Z" fill="#73799B"/>
<path d="M142.667 26H147.333V28.3333H142.667V26Z" fill="#73799B"/>
<path d="M147.333 28.3333H149.667V30.6667H147.333V28.3333Z" fill="#73799B"/>
<path d="M149.667 30.6667H152V37.6667H149.667V30.6667Z" fill="#73799B"/>
<path d="M133.333 37.6667H135.667V40H133.333V37.6667Z" fill="#73799B"/>
<path d="M135.667 40H138V42.3333H135.667V40Z" fill="#73799B"/>
<path d="M138 42.3333H140.333V44.6667H138V42.3333Z" fill="#73799B"/>
<path d="M140.333 44.6667H142.667V47H140.333V44.6667Z" fill="#73799B"/>
<path d="M142.667 42.3333H145V44.6667H142.667V42.3333Z" fill="#73799B"/>
<path d="M145 40H147.333V42.3333H145V40Z" fill="#73799B"/>
<path d="M147.333 37.6667H149.667V40H147.333V37.6667Z" fill="#73799B"/>
<path d="M149 30.6667H151.333V37.6667H149V30.6667Z" fill="#73799B"/>
<path d="M151.333 28.3333H153.667V30.6667H151.333V28.3333Z" fill="#73799B"/>
<path d="M153.667 26H158.333V28.3333H153.667V26Z" fill="#73799B"/>
<path d="M158.333 28.3333H160.667V30.6667H158.333V28.3333Z" fill="#73799B"/>
<path d="M160.667 26H165.333V28.3333H160.667V26Z" fill="#73799B"/>
<path d="M165.333 28.3333H167.667V30.6667H165.333V28.3333Z" fill="#73799B"/>
<path d="M167.667 30.6667H170V37.6667H167.667V30.6667Z" fill="#73799B"/>
<path d="M151.333 37.6667H153.667V40H151.333V37.6667Z" fill="#73799B"/>
<path d="M153.667 40H156V42.3333H153.667V40Z" fill="#73799B"/>
<path d="M156 42.3333H158.333V44.6667H156V42.3333Z" fill="#73799B"/>
<path d="M158.333 44.6667H160.667V47H158.333V44.6667Z" fill="#73799B"/>
<path d="M160.667 42.3333H163V44.6667H160.667V42.3333Z" fill="#73799B"/>
<path d="M163 40H165.333V42.3333H163V40Z" fill="#73799B"/>
<path d="M165.333 37.6667H167.667V40H165.333V37.6667Z" fill="#73799B"/>
<path d="M168 30.6667H170.333V37.6667H168V30.6667Z" fill="#73799B"/>
<path d="M170.333 28.3333H172.667V30.6667H170.333V28.3333Z" fill="#73799B"/>
<path d="M172.667 26H177.333V28.3333H172.667V26Z" fill="#73799B"/>
<path d="M177.333 28.3333H179.667V30.6667H177.333V28.3333Z" fill="#73799B"/>
<path d="M179.667 26H184.333V28.3333H179.667V26Z" fill="#73799B"/>
<path d="M184.333 28.3333H186.667V30.6667H184.333V28.3333Z" fill="#73799B"/>
<path d="M186.667 30.6667H189V37.6667H186.667V30.6667Z" fill="#73799B"/>
<path d="M170.333 37.6667H172.667V40H170.333V37.6667Z" fill="#73799B"/>
<path d="M172.667 40H175V42.3333H172.667V40Z" fill="#73799B"/>
<path d="M175 42.3333H177.333V44.6667H175V42.3333Z" fill="#73799B"/>
<path d="M177.333 44.6667H179.667V47H177.333V44.6667Z" fill="#73799B"/>
<path d="M179.667 42.3333H182V44.6667H179.667V42.3333Z" fill="#73799B"/>
<path d="M182 40H184.333V42.3333H182V40Z" fill="#73799B"/>
<path d="M184.333 37.6667H186.667V40H184.333V37.6667Z" fill="#73799B"/>
<path d="M0 2.33333H2.33333V0H7V2.33333H9.33333V4.66667H11.6667V2.33333H14V0H18.6667V2.33333H21V9.33333H18.6667V18.6667H16.3333V21H4.66667V18.6667H2.33333V9.33333H0V2.33333Z" fill="#73799B"/>
<path d="M19 2.33333H21.3333V0H26V2.33333H28.3333V4.66667H30.6667V2.33333H33V0H37.6667V2.33333H40V9.33333H37.6667V18.6667H35.3333V21H23.6667V18.6667H21.3333V9.33333H19V2.33333Z" fill="#73799B"/>
<path d="M38 2.33333H40.3333V0H45V2.33333H47.3333V4.66667H49.6667V2.33333H52V0H56.6667V2.33333H59V9.33333H56.6667V18.6667H54.3333V21H42.6667V18.6667H40.3333V9.33333H38V2.33333Z" fill="#73799B"/>
<path d="M76 2.33333H78.3333V0H83V2.33333H85.3333V4.66667H87.6667V2.33333H90V0H94.6667V2.33333H97V9.33333H94.6667V18.6667H92.3333V21H80.6667V18.6667H78.3333V9.33333H76V2.33333Z" fill="#1F2331"/>
<path d="M95 2.33333H97.3333V0H102V2.33333H104.333V4.66667H106.667V2.33333H109V0H113.667V2.33333H116V9.33333H113.667V18.6667H111.333V21H99.6667V18.6667H97.3333V9.33333H95V2.33333Z" fill="#1F2331"/>
<path d="M114 2.33333H116.333V0H121V2.33333H123.333V4.66667H125.667V2.33333H128V0H132.667V2.33333H135V9.33333H132.667V18.6667H130.333V21H118.667V18.6667H116.333V9.33333H114V2.33333Z" fill="#1F2331"/>
<path d="M133 2.33333H135.333V0H140V2.33333H142.333V4.66667H144.667V2.33333H147V0H151.667V2.33333H154V9.33333H151.667V18.6667H149.333V21H137.667V18.6667H135.333V9.33333H133V2.33333Z" fill="#1F2331"/>
<path d="M152 2.33333H154.333V0H159V2.33333H161.333V4.66667H163.667V2.33333H166V0H170.667V2.33333H173V9.33333H170.667V18.6667H168.333V21H156.667V18.6667H154.333V9.33333H152V2.33333Z" fill="#1F2331"/>
<path d="M171 2.33333H173.333V0H178V2.33333H180.333V4.66667H182.667V2.33333H185V0H189.667V2.33333H192V9.33333H189.667V18.6667H187.333V21H175.667V18.6667H173.333V9.33333H171V2.33333Z" fill="#1F2331"/>
<path d="M57 2.33333H59.3333V0H64V2.33333H66.3333V4.66667H68.6667V2.33333H71V0H75.6667V2.33333H78V9.33333H75.6667V18.6667H73.3333V21H61.6667V18.6667H59.3333V9.33333H57V2.33333Z" fill="#73799B"/>
<path d="M413 30.6667H415.333V35.3333H413V30.6667Z" fill="#73799B"/>
<path d="M415.333 28.3333H417.667V30.6667H415.333V28.3333Z" fill="#73799B"/>
<path d="M417.667 26H422.333V28.3333H417.667V26Z" fill="#73799B"/>
<path d="M422.333 28.3333H424.667V30.6667H422.333V28.3333Z" fill="#73799B"/>
<path d="M424.667 30.6667H427V33H424.667V30.6667Z" fill="#73799B"/>
<path d="M415.333 35.3333H417.667V37.6667H415.333V35.3333Z" fill="#73799B"/>
<path d="M417.667 37.6667H420V40H417.667V37.6667Z" fill="#73799B"/>
<path d="M420 40H427V42.3333H420V40Z" fill="#73799B"/>
<path d="M427 33H429.333V40H427V33Z" fill="#73799B"/>
<path d="M427 42.3333H429.333V47H427V42.3333Z" fill="#73799B"/>
<path d="M429.333 40H434V42.3333H429.333V40Z" fill="#73799B"/>
<path d="M431.667 42.3333H434V44.6667H431.667V42.3333Z" fill="#73799B"/>
<path d="M429.333 44.6667H431.667V47H429.333V44.6667Z" fill="#73799B"/>
<path d="M394 30.6667H396.333V35.3333H394V30.6667Z" fill="#73799B"/>
<path d="M396.333 28.3333H398.667V30.6667H396.333V28.3333Z" fill="#73799B"/>
<path d="M398.667 26H403.333V28.3333H398.667V26Z" fill="#73799B"/>
<path d="M403.333 28.3333H405.667V30.6667H403.333V28.3333Z" fill="#73799B"/>
<path d="M405.667 30.6667H408V33H405.667V30.6667Z" fill="#73799B"/>
<path d="M396.333 35.3333H398.667V37.6667H396.333V35.3333Z" fill="#73799B"/>
<path d="M398.667 37.6667H401V40H398.667V37.6667Z" fill="#73799B"/>
<path d="M401 40H408V42.3333H401V40Z" fill="#73799B"/>
<path d="M408 33H410.333V40H408V33Z" fill="#73799B"/>
<path d="M408 42.3333H410.333V47H408V42.3333Z" fill="#73799B"/>
<path d="M410.333 40H415V42.3333H410.333V40Z" fill="#73799B"/>
<path d="M412.667 42.3333H415V44.6667H412.667V42.3333Z" fill="#73799B"/>
<path d="M410.333 44.6667H412.667V47H410.333V44.6667Z" fill="#73799B"/>
<path d="M374 30.6667H376.333V35.3333H374V30.6667Z" fill="#73799B"/>
<path d="M376.333 28.3333H378.667V30.6667H376.333V28.3333Z" fill="#73799B"/>
<path d="M378.667 26H383.333V28.3333H378.667V26Z" fill="#73799B"/>
<path d="M383.333 28.3333H385.667V30.6667H383.333V28.3333Z" fill="#73799B"/>
<path d="M385.667 30.6667H388V33H385.667V30.6667Z" fill="#73799B"/>
<path d="M376.333 35.3333H378.667V37.6667H376.333V35.3333Z" fill="#73799B"/>
<path d="M378.667 37.6667H381V40H378.667V37.6667Z" fill="#73799B"/>
<path d="M381 40H388V42.3333H381V40Z" fill="#73799B"/>
<path d="M388 33H390.333V40H388V33Z" fill="#73799B"/>
<path d="M388 42.3333H390.333V47H388V42.3333Z" fill="#73799B"/>
<path d="M390.333 40H395V42.3333H390.333V40Z" fill="#73799B"/>
<path d="M392.667 42.3333H395V44.6667H392.667V42.3333Z" fill="#73799B"/>
<path d="M390.333 44.6667H392.667V47H390.333V44.6667Z" fill="#73799B"/>
<path d="M355 30.6667H357.333V35.3333H355V30.6667Z" fill="#73799B"/>
<path d="M357.333 28.3333H359.667V30.6667H357.333V28.3333Z" fill="#73799B"/>
<path d="M359.667 26H364.333V28.3333H359.667V26Z" fill="#73799B"/>
<path d="M364.333 28.3333H366.667V30.6667H364.333V28.3333Z" fill="#73799B"/>
<path d="M366.667 30.6667H369V33H366.667V30.6667Z" fill="#73799B"/>
<path d="M357.333 35.3333H359.667V37.6667H357.333V35.3333Z" fill="#73799B"/>
<path d="M359.667 37.6667H362V40H359.667V37.6667Z" fill="#73799B"/>
<path d="M362 40H369V42.3333H362V40Z" fill="#73799B"/>
<path d="M369 33H371.333V40H369V33Z" fill="#73799B"/>
<path d="M369 42.3333H371.333V47H369V42.3333Z" fill="#73799B"/>
<path d="M371.333 40H376V42.3333H371.333V40Z" fill="#73799B"/>
<path d="M373.667 42.3333H376V44.6667H373.667V42.3333Z" fill="#73799B"/>
<path d="M371.333 44.6667H373.667V47H371.333V44.6667Z" fill="#73799B"/>
<path d="M336 30.6667H338.333V35.3333H336V30.6667Z" fill="#73799B"/>
<path d="M338.333 28.3333H340.667V30.6667H338.333V28.3333Z" fill="#73799B"/>
<path d="M340.667 26H345.333V28.3333H340.667V26Z" fill="#73799B"/>
<path d="M345.333 28.3333H347.667V30.6667H345.333V28.3333Z" fill="#73799B"/>
<path d="M347.667 30.6667H350V33H347.667V30.6667Z" fill="#73799B"/>
<path d="M338.333 35.3333H340.667V37.6667H338.333V35.3333Z" fill="#73799B"/>
<path d="M340.667 37.6667H343V40H340.667V37.6667Z" fill="#73799B"/>
<path d="M343 40H350V42.3333H343V40Z" fill="#73799B"/>
<path d="M350 33H352.333V40H350V33Z" fill="#73799B"/>
<path d="M350 42.3333H352.333V47H350V42.3333Z" fill="#73799B"/>
<path d="M352.333 40H357V42.3333H352.333V40Z" fill="#73799B"/>
<path d="M354.667 42.3333H357V44.6667H354.667V42.3333Z" fill="#73799B"/>
<path d="M352.333 44.6667H354.667V47H352.333V44.6667Z" fill="#73799B"/>
<path d="M317 30.6667H319.333V35.3333H317V30.6667Z" fill="#73799B"/>
<path d="M319.333 28.3333H321.667V30.6667H319.333V28.3333Z" fill="#73799B"/>
<path d="M321.667 26H326.333V28.3333H321.667V26Z" fill="#73799B"/>
<path d="M326.333 28.3333H328.667V30.6667H326.333V28.3333Z" fill="#73799B"/>
<path d="M328.667 30.6667H331V33H328.667V30.6667Z" fill="#73799B"/>
<path d="M319.333 35.3333H321.667V37.6667H319.333V35.3333Z" fill="#73799B"/>
<path d="M321.667 37.6667H324V40H321.667V37.6667Z" fill="#73799B"/>
<path d="M324 40H331V42.3333H324V40Z" fill="#73799B"/>
<path d="M331 33H333.333V40H331V33Z" fill="#73799B"/>
<path d="M331 42.3333H333.333V47H331V42.3333Z" fill="#73799B"/>
<path d="M333.333 40H338V42.3333H333.333V40Z" fill="#73799B"/>
<path d="M335.667 42.3333H338V44.6667H335.667V42.3333Z" fill="#73799B"/>
<path d="M333.333 44.6667H335.667V47H333.333V44.6667Z" fill="#73799B"/>
<path d="M297 30.6667H299.333V35.3333H297V30.6667Z" fill="#73799B"/>
<path d="M299.333 28.3333H301.667V30.6667H299.333V28.3333Z" fill="#73799B"/>
<path d="M301.667 26H306.333V28.3333H301.667V26Z" fill="#73799B"/>
<path d="M306.333 28.3333H308.667V30.6667H306.333V28.3333Z" fill="#73799B"/>
<path d="M308.667 30.6667H311V33H308.667V30.6667Z" fill="#73799B"/>
<path d="M299.333 35.3333H301.667V37.6667H299.333V35.3333Z" fill="#73799B"/>
<path d="M301.667 37.6667H304V40H301.667V37.6667Z" fill="#73799B"/>
<path d="M304 40H311V42.3333H304V40Z" fill="#73799B"/>
<path d="M311 33H313.333V40H311V33Z" fill="#73799B"/>
<path d="M311 42.3333H313.333V47H311V42.3333Z" fill="#73799B"/>
<path d="M313.333 40H318V42.3333H313.333V40Z" fill="#73799B"/>
<path d="M315.667 42.3333H318V44.6667H315.667V42.3333Z" fill="#73799B"/>
<path d="M313.333 44.6667H315.667V47H313.333V44.6667Z" fill="#73799B"/>
<path d="M278 30.6667H280.333V35.3333H278V30.6667Z" fill="#73799B"/>
<path d="M280.333 28.3333H282.667V30.6667H280.333V28.3333Z" fill="#73799B"/>
<path d="M282.667 26H287.333V28.3333H282.667V26Z" fill="#73799B"/>
<path d="M287.333 28.3333H289.667V30.6667H287.333V28.3333Z" fill="#73799B"/>
<path d="M289.667 30.6667H292V33H289.667V30.6667Z" fill="#73799B"/>
<path d="M280.333 35.3333H282.667V37.6667H280.333V35.3333Z" fill="#73799B"/>
<path d="M282.667 37.6667H285V40H282.667V37.6667Z" fill="#73799B"/>
<path d="M285 40H292V42.3333H285V40Z" fill="#73799B"/>
<path d="M292 33H294.333V40H292V33Z" fill="#73799B"/>
<path d="M292 42.3333H294.333V47H292V42.3333Z" fill="#73799B"/>
<path d="M294.333 40H299V42.3333H294.333V40Z" fill="#73799B"/>
<path d="M296.667 42.3333H299V44.6667H296.667V42.3333Z" fill="#73799B"/>
<path d="M294.333 44.6667H296.667V47H294.333V44.6667Z" fill="#73799B"/>
<path d="M259 30.6667H261.333V35.3333H259V30.6667Z" fill="#73799B"/>
<path d="M261.333 28.3333H263.667V30.6667H261.333V28.3333Z" fill="#73799B"/>
<path d="M263.667 26H268.333V28.3333H263.667V26Z" fill="#73799B"/>
<path d="M268.333 28.3333H270.667V30.6667H268.333V28.3333Z" fill="#73799B"/>
<path d="M270.667 30.6667H273V33H270.667V30.6667Z" fill="#73799B"/>
<path d="M261.333 35.3333H263.667V37.6667H261.333V35.3333Z" fill="#73799B"/>
<path d="M263.667 37.6667H266V40H263.667V37.6667Z" fill="#73799B"/>
<path d="M266 40H273V42.3333H266V40Z" fill="#73799B"/>
<path d="M273 33H275.333V40H273V33Z" fill="#73799B"/>
<path d="M273 42.3333H275.333V47H273V42.3333Z" fill="#73799B"/>
<path d="M275.333 40H280V42.3333H275.333V40Z" fill="#73799B"/>
<path d="M277.667 42.3333H280V44.6667H277.667V42.3333Z" fill="#73799B"/>
<path d="M275.333 44.6667H277.667V47H275.333V44.6667Z" fill="#73799B"/>
<path d="M240 30.6667H242.333V35.3333H240V30.6667Z" fill="#73799B"/>
<path d="M242.333 28.3333H244.667V30.6667H242.333V28.3333Z" fill="#73799B"/>
<path d="M244.667 26H249.333V28.3333H244.667V26Z" fill="#73799B"/>
<path d="M249.333 28.3333H251.667V30.6667H249.333V28.3333Z" fill="#73799B"/>
<path d="M251.667 30.6667H254V33H251.667V30.6667Z" fill="#73799B"/>
<path d="M242.333 35.3333H244.667V37.6667H242.333V35.3333Z" fill="#73799B"/>
<path d="M244.667 37.6667H247V40H244.667V37.6667Z" fill="#73799B"/>
<path d="M247 40H254V42.3333H247V40Z" fill="#73799B"/>
<path d="M254 33H256.333V40H254V33Z" fill="#73799B"/>
<path d="M254 42.3333H256.333V47H254V42.3333Z" fill="#73799B"/>
<path d="M256.333 40H261V42.3333H256.333V40Z" fill="#73799B"/>
<path d="M258.667 42.3333H261V44.6667H258.667V42.3333Z" fill="#73799B"/>
<path d="M256.333 44.6667H258.667V47H256.333V44.6667Z" fill="#73799B"/>
</svg>
