<svg width="659" height="800" viewBox="0 0 659 800" fill="none" xmlns="http://www.w3.org/2000/svg">
<g clip-path="url(#clip0_456_1508)">
<path d="M789.667 414.533L776.133 422.533L699.133 467.7V486.3L662.9 508.533V545.533L626.667 567.667V662.9L789.667 567.167V432.367V414.533ZM771.567 446.533V556.467L644.8 630.933V578.167L681.033 555.967V518.967L717.233 496.767V478.4L771.567 446.533ZM645.9 184.733L608.3 211.133V369.333L612.933 372L646.4 391.233L680.733 371.133V205.067L645.9 184.733ZM646.767 206.533L662.6 215.8V360.433L646.267 369.967L626.367 358.5V220.833L646.767 206.533ZM207.167 0L65.8333 83.0333V234.333L70.3666 237L167.267 293.933V367.433L171.733 370.1L207.1 391.333L246.967 367.433V293.867L335.7 241.7V77.5667L207.167 0ZM207.067 21.4333L317.6 88.1V231L207.1 295.933L83.9999 223.6V93.7333L207.067 21.4333ZM228.867 304.5V356.833L207.1 369.833L185.4 356.833V304.5L207.1 317.267L228.867 304.5ZM527.1 373.633L264.433 524.967V572.767L293.4 589.433V626.333L400.333 689.033L626.667 552.3V513.433L662.9 491.233V452.9L527.1 373.633ZM527.033 394.9L644.8 463.6V480.767L608.6 502.933V541.733L400.233 667.633L311.567 615.633V578.633L282.567 561.967V535.8L527.033 394.9ZM427.7 93.9C426.021 93.8478 424.364 94.2881 422.933 95.1667L335.733 146.6V167.933L427.5 113.8L545.133 182.7L401.233 267.133C399.851 267.96 398.706 269.13 397.91 270.531C397.114 271.931 396.694 273.513 396.691 275.124C396.687 276.735 397.101 278.319 397.891 279.722C398.681 281.126 399.821 282.301 401.2 283.133L508.867 347.133L273.6 482.767L38.0333 343.6L144.767 280.6L126.633 269.933L15.3999 335.6C14.0194 336.43 12.877 337.602 12.0839 339.004C11.2908 340.406 10.874 341.989 10.874 343.6C10.874 345.211 11.2908 346.794 12.0839 348.196C12.877 349.598 14.0194 350.77 15.3999 351.6L269 501.4C271.767 503.033 275.167 503.067 278 501.4L531.533 355.333C532.934 354.516 534.098 353.349 534.91 351.945C535.723 350.541 536.155 348.95 536.165 347.328C536.175 345.707 535.763 344.11 534.968 342.697C534.173 341.283 533.024 340.101 531.633 339.267L423.8 275.2L567.8 190.7C569.18 189.87 570.323 188.698 571.116 187.296C571.909 185.894 572.326 184.311 572.326 182.7C572.326 181.089 571.909 179.506 571.116 178.104C570.323 176.702 569.18 175.53 567.8 174.7L432 95.1C430.666 94.3656 429.186 93.9332 427.667 93.8333L427.7 93.9ZM572.367 182.833C572.365 184.431 571.946 186 571.151 187.386C570.355 188.772 569.212 189.926 567.833 190.733L554.267 198.733V214.333L437.1 283.067L455.167 293.8L567.833 227.7C569.217 226.874 570.363 225.702 571.158 224.299C571.953 222.897 572.369 221.312 572.367 219.7V182.833ZM101.433 455.167V491.833L65.2333 469.667V602.267L278.967 729.6V671.2L248.167 652.7V615.667L210.133 593.467V519.533L101.433 455.167ZM119.567 487.267L192 530.133V604.133L230.033 626.367V663.333L260.867 681.8V697.367L83.3333 591.667V502.3L119.567 524.5V508.167V487.267ZM396 111L335.7 146.5L335.733 146.6L396.033 111.033L396 111ZM126.333 269.833L10.2999 338.233V570.867L399.667 800L789.033 565.267V341.933L680.7 278.3V299.633L770.933 352.633V554.7L399.567 778.567L28.3333 560.167V359.267L15.3666 351.6C13.986 350.77 12.877 349.598 12.0839 348.196C11.2908 346.794 10.8407 345.211 10.8407 343.6C10.8407 341.989 11.2908 340.406 12.0839 339.004C12.877 337.602 13.986 336.43 15.3666 335.6L126.633 269.933L126.333 269.833ZM789.667 414.533L776.133 422.533L699.133 467.7V486.3L662.9 508.533V545.533L626.667 567.667V662.9L789.667 567.167V432.367V414.533ZM771.567 446.533V556.467L644.8 630.933V578.167L681.033 555.967V518.967L717.233 496.767V478.4L771.567 446.533ZM645.9 184.733L608.267 211.133V369.333L612.933 372L646.4 391.233L680.733 371.133V205.067L645.9 184.733ZM646.767 206.533L662.6 215.8V360.433L646.267 369.967L626.367 358.5V220.833L646.767 206.533ZM207.167 0L65.8333 83.0333V234.333L70.3666 237L167.333 293.9V367.4L171.8 370.067L207.133 391.3L247.033 367.4V293.833L335.767 241.7V77.5667L207.167 0ZM207.067 21.4333L317.633 88.1V231L207.133 295.933L83.9999 223.6V93.7333L207.067 21.4333ZM228.867 304.5V356.833L207.133 369.833L185.433 356.833V304.5L207.133 317.267L228.867 304.5ZM527.133 373.633L264.433 524.967V572.767L293.433 589.433V626.333L400.333 689.033L626.7 552.3V513.433L662.933 491.233V452.9L527.133 373.633ZM527.067 394.9L644.8 463.6V480.767L608.6 502.933V541.733L400.267 667.633L311.567 615.633V578.633L282.567 561.967V535.8L527.067 394.9ZM427.7 93.9C426.021 93.8478 424.398 94.2881 422.967 95.1667L335.767 146.6V167.933L427.533 113.8L545.133 182.7L401.233 267.133C399.851 267.96 398.706 269.13 397.91 270.531C397.114 271.931 396.694 273.513 396.691 275.124C396.687 276.735 397.101 278.319 397.891 279.722C398.681 281.126 399.821 282.301 401.2 283.133L508.9 347.133L273.6 482.767L38.0333 343.6L144.767 280.6L126.633 269.933L15.3999 335.6C14.0194 336.43 12.9103 337.602 12.1172 339.004C11.3242 340.406 10.874 341.989 10.874 343.6C10.874 345.211 11.3242 346.794 12.1172 348.196C12.9103 349.598 14.0194 350.77 15.3999 351.6L269 501.333C271.8 503 275.2 503.033 278 501.4L531.567 355.3C532.968 354.483 534.132 353.315 534.944 351.912C535.756 350.508 536.189 348.917 536.199 347.295C536.209 345.673 535.796 344.077 535.001 342.663C534.207 341.25 533.057 340.068 531.667 339.233L423.833 275.167L567.833 190.667C569.221 189.839 570.371 188.665 571.169 187.26C571.967 185.855 572.387 184.266 572.387 182.65C572.387 181.034 571.967 179.445 571.169 178.04C570.371 176.635 569.221 175.461 567.833 174.633L432 95.1333C430.667 94.3969 429.187 93.931 427.667 93.8333L427.7 93.9ZM572.4 182.833C572.392 184.425 571.945 186.007 571.151 187.386C570.356 188.766 569.24 189.895 567.867 190.7L554.3 198.7V214.367L437.133 283.067L455.2 293.8L567.833 227.7C569.217 226.874 570.363 225.702 571.158 224.299C571.953 222.897 572.402 221.312 572.4 219.7V182.833ZM572.4 215.1V219.7C572.4 223.033 570.667 226.033 567.867 227.667L562.667 230.733L608.333 257.4V236.067L572.4 215.1ZM680.8 278.333V299.667L771.633 352.667V369.733L705.5 409.567L646.7 443.9L536.167 378.933V347.267C536.167 344 534.467 340.933 531.633 339.267L455.167 293.8L437.067 304.467L518.067 352.6V384.267C518.067 387.6 519.8 390.667 522.633 392.333L642.167 462.567C644.933 464.233 648.367 464.233 651.167 462.6L714.533 425.6H714.667L771.633 391.267V421.333L771.667 422.2C771.733 422.867 771.9 423.467 772.033 424C772.133 424.233 772.267 424.667 772.4 424.9C772.567 425.133 772.633 425.4 772.8 425.767L773.267 426.533C774.033 427.533 774.867 428.367 775.9 429.033L776.633 429.533L777.5 429.9C777.774 430.026 778.067 430.105 778.367 430.133C780.126 430.61 781.989 430.528 783.7 429.9L784.567 429.533C785.067 429.3 785.7 428.9 786.133 428.633C786.367 428.4 786.633 428.3 786.867 428C787.1 427.767 787.233 427.5 787.467 427.4L788.1 426.633C788.233 426.4 788.467 426.133 788.6 425.867C788.952 425.365 789.201 424.799 789.333 424.2C789.433 423.933 789.467 423.533 789.567 423.3L789.7 422.4C789.727 422.112 789.738 421.823 789.733 421.533V347.467C789.733 344.133 788.033 341.067 785.2 339.4L680.8 278.333ZM101.433 455.167V491.833L65.2333 469.667V602.267L279 729.567L278.967 671.2L248.167 652.7V615.667L210.167 593.433V519.5L101.433 455.167ZM119.6 487.267L192 530.133V604.133L230.033 626.367V663.267L260.867 681.767V697.367L83.3333 591.667V502.3L119.6 524.5V508.167V487.267ZM396 111L335.7 146.5L335.733 146.6L396.067 111.033L396 111ZM126.4 269.833L10.2999 338.233L10.2666 570.833L399.733 800L789.1 565.233V341.933L680.767 278.3V299.633L771 352.633V554.7L399.633 778.567L28.3999 560.167V359.233L15.4333 351.567C14.0527 350.737 12.9103 349.564 12.1172 348.162C11.3242 346.761 10.9073 345.177 10.9073 343.567C10.9073 341.956 11.3242 340.406 12.1172 339.004C12.9103 337.602 14.0527 336.396 15.4333 335.567L126.667 270L126.4 269.833Z" fill="#0F1220"/>
</g>
<defs>
<clipPath id="clip0_456_1508">
<rect width="800" height="800" fill="white"/>
</clipPath>
</defs>
</svg>
