<svg width="230" height="30" viewBox="0 0 230 30" fill="none" xmlns="http://www.w3.org/2000/svg">
<path d="M29 29.04C26.6267 29.04 25.44 28.7733 25.44 28.24L24.6 12.2L19.72 28.44C19.6133 28.76 18.7067 28.92 17 28.92C15.2933 28.92 14.4133 28.7733 14.36 28.48L9.32 12.04L8.76 28C8.73333 28.4 8.22667 28.68 7.24 28.84C6.25333 28.9733 5.42667 29.04 4.76 29.04C4.12 29.04 3.49333 29 2.88 28.92C1.6 28.7333 0.973333 28.4 1 27.92L1.92 1.92C1.92 1.28 3.54667 0.959999 6.8 0.959999C7.76 0.959999 8.93333 1.04 10.32 1.2C11.7067 1.33333 12.48 1.61333 12.64 2.04L17.12 14.64L21.04 2C21.28 1.30667 23.12 0.959999 26.56 0.959999C27.5467 0.959999 28.72 1.04 30.08 1.2C31.4667 1.33333 32.16 1.58666 32.16 1.96L33.32 28.2C33.32 28.4933 32.8 28.7067 31.76 28.84C30.72 28.9733 29.8 29.04 29 29.04ZM45.8491 28.96C45.8491 29.1467 44.6357 29.24 42.2091 29.24C39.7824 29.1867 38.5691 29.08 38.5691 28.92V15.64H37.4891C37.0624 15.64 36.7157 15.3867 36.4491 14.88C36.2091 14.3467 36.0891 13.6933 36.0891 12.92C36.0891 10.04 36.9424 8.6 38.6491 8.6C39.8491 8.6 40.8491 8.97333 41.6491 9.72C42.4491 10.44 42.8491 11.2667 42.8491 12.2C43.4091 11.1067 44.1557 10.24 45.0891 9.6C46.0491 8.93333 47.0224 8.6 48.0091 8.6C49.5557 8.6 50.4891 9 50.8091 9.8C50.8891 10.0133 50.9291 10.3333 50.9291 10.76C50.9291 11.16 50.7957 11.8933 50.5291 12.96C50.2891 14.0267 50.0357 14.8 49.7691 15.28C49.5024 15.76 49.3424 16 49.2891 16C49.2357 16 48.9824 15.9067 48.5291 15.72C48.1024 15.5067 47.7157 15.4 47.3691 15.4C46.3557 15.4 45.8491 16.2 45.8491 17.8V28.96ZM81.1484 29.04C78.7751 29.04 77.5884 28.7733 77.5884 28.24L76.7484 12.2L71.8684 28.44C71.7618 28.76 70.8551 28.92 69.1484 28.92C67.4418 28.92 66.5618 28.7733 66.5084 28.48L61.4684 12.04L60.9084 28C60.8818 28.4 60.3751 28.68 59.3884 28.84C58.4018 28.9733 57.5751 29.04 56.9084 29.04C56.2684 29.04 55.6418 29 55.0284 28.92C53.7484 28.7333 53.1218 28.4 53.1484 27.92L54.0684 1.92C54.0684 1.28 55.6951 0.959999 58.9484 0.959999C59.9084 0.959999 61.0818 1.04 62.4684 1.2C63.8551 1.33333 64.6284 1.61333 64.7884 2.04L69.2684 14.64L73.1884 2C73.4284 1.30667 75.2684 0.959999 78.7084 0.959999C79.6951 0.959999 80.8684 1.04 82.2284 1.2C83.6151 1.33333 84.3084 1.58666 84.3084 1.96L85.4684 28.2C85.4684 28.4933 84.9484 28.7067 83.9084 28.84C82.8684 28.9733 81.9484 29.04 81.1484 29.04ZM96.5575 28.76C96.5575 28.9733 95.3308 29.08 92.8775 29.08C90.4508 29.08 89.2375 28.9867 89.2375 28.8V9.16C89.2375 8.97333 90.4508 8.88 92.8775 8.88C95.3308 8.88 96.5575 8.96 96.5575 9.12V28.76ZM96.5575 6.76C96.5575 6.94667 95.3308 7.04 92.8775 7.04C90.4508 7.04 89.2375 6.96 89.2375 6.8V1.04C89.2375 0.773331 90.4508 0.639998 92.8775 0.639998C95.3308 0.639998 96.5575 0.719999 96.5575 0.88V6.76ZM101.015 21.8C103.175 23.1067 104.882 23.76 106.135 23.76C106.935 23.76 107.335 23.48 107.335 22.92C107.335 22.52 106.642 22 105.255 21.36C101.922 20 100.255 17.7733 100.255 14.68C100.255 12.7067 100.975 11.2 102.415 10.16C103.855 9.12 105.575 8.6 107.575 8.6C109.602 8.6 111.308 8.81333 112.695 9.24C114.108 9.66667 114.815 10.2267 114.815 10.92C114.815 11.5067 114.522 12.28 113.935 13.24C113.375 14.2 112.988 14.72 112.775 14.8C111.628 14.16 110.388 13.84 109.055 13.84C108.335 13.84 107.975 14.0933 107.975 14.6C107.975 14.92 108.108 15.2 108.375 15.44C108.668 15.6533 109.188 15.9333 109.935 16.28C110.682 16.6 111.295 16.8933 111.775 17.16C112.282 17.4267 112.842 17.8 113.455 18.28C114.735 19.2933 115.375 20.6133 115.375 22.24C115.375 24.3733 114.668 26.1067 113.255 27.44C111.842 28.7467 109.708 29.4 106.855 29.4C104.962 29.4 103.242 29.08 101.695 28.44C100.148 27.8 99.375 26.92 99.375 25.8C99.375 25.0533 99.5483 24.2667 99.895 23.44C100.268 22.6133 100.642 22.0667 101.015 21.8ZM124.863 28.72C124.863 28.96 123.743 29.08 121.503 29.08C119.289 29.08 118.183 28.8933 118.183 28.52V1.12C118.183 0.933331 118.596 0.799998 119.423 0.719999C120.249 0.639999 120.943 0.599998 121.503 0.599998C123.743 0.599998 124.863 0.839999 124.863 1.32V9.32C126.356 8.86667 127.489 8.64 128.263 8.64C130.289 8.64 131.889 9.18667 133.063 10.28C134.236 11.3467 134.823 13.3467 134.823 16.28V28.68C134.823 28.92 133.783 29.04 131.703 29.04C129.356 28.96 128.183 28.8267 128.183 28.64V16.88C128.183 15.5733 127.756 14.92 126.903 14.92C126.316 14.92 125.636 15.2 124.863 15.76V28.72ZM140.742 14.48C139.995 13.1467 139.622 12.0667 139.622 11.24C139.622 10.3867 139.849 9.84 140.302 9.6C141.822 8.93333 143.902 8.6 146.542 8.6C149.209 8.6 151.089 9.22666 152.182 10.48C153.275 11.7067 153.822 13.5333 153.822 15.96V22.28H155.182C155.635 22.28 155.982 22.5467 156.222 23.08C156.489 23.6133 156.622 24.3467 156.622 25.28C156.622 26.2133 156.382 27.1333 155.902 28.04C155.449 28.9467 154.822 29.4 154.022 29.4C152.582 29.4 151.422 29.0133 150.542 28.24C150.142 27.92 149.835 27.5333 149.622 27.08C148.395 28.6267 146.489 29.4 143.902 29.4C141.955 29.4 140.315 28.7067 138.982 27.32C137.649 25.9333 136.982 24.2933 136.982 22.4C136.982 18.0533 139.582 15.88 144.782 15.88H146.982V15.48C146.982 14.7867 146.862 14.3467 146.622 14.16C146.409 13.9467 145.889 13.84 145.062 13.84C144.049 13.84 142.609 14.0533 140.742 14.48ZM143.942 21.84C143.942 22.4267 144.102 22.88 144.422 23.2C144.742 23.4933 145.142 23.64 145.622 23.64C146.129 23.64 146.582 23.44 146.982 23.04V19.96H145.862C144.582 19.96 143.942 20.5867 143.942 21.84ZM170.526 0.639998C172.473 0.639998 174.179 0.919998 175.646 1.48C177.139 2.01333 177.886 2.74667 177.886 3.68C177.886 4.61333 177.526 5.77333 176.806 7.16C176.113 8.52 175.526 9.2 175.046 9.2C174.913 9.2 174.753 9.13333 174.566 9C174.406 8.84 174.006 8.68 173.366 8.52C172.753 8.33333 172.219 8.24 171.766 8.24C170.219 8.24 168.966 8.78667 168.006 9.88C167.073 10.9733 166.606 12.6533 166.606 14.92C166.606 17.16 167.086 18.8267 168.046 19.92C169.033 21.0133 170.273 21.56 171.766 21.56C172.379 21.56 173.059 21.48 173.806 21.32C174.579 21.1333 175.126 20.88 175.446 20.56C175.499 20.5067 175.606 20.48 175.766 20.48C175.926 20.48 176.219 20.7867 176.646 21.4C177.099 21.9867 177.513 22.7733 177.886 23.76C178.259 24.72 178.446 25.4667 178.446 26C178.446 27.04 177.646 27.8667 176.046 28.48C174.446 29.0933 172.553 29.4 170.366 29.4C166.846 29.4 163.953 28.16 161.686 25.68C159.419 23.2 158.286 19.7067 158.286 15.2C158.286 10.6667 159.446 7.10666 161.766 4.52C164.113 1.93333 167.033 0.639998 170.526 0.639998ZM183.028 26.64C181.374 24.8 180.548 22.2533 180.548 19C180.548 15.7467 181.374 13.2 183.028 11.36C184.708 9.52 186.961 8.6 189.788 8.6C192.614 8.6 194.854 9.52 196.508 11.36C198.161 13.2 198.988 15.7467 198.988 19C198.988 22.2533 198.161 24.8 196.508 26.64C194.854 28.48 192.614 29.4 189.788 29.4C186.961 29.4 184.708 28.48 183.028 26.64ZM189.788 15.28C188.294 15.28 187.548 16.5067 187.548 18.96C187.548 21.4133 188.294 22.64 189.788 22.64C191.308 22.64 192.068 21.4133 192.068 18.96C192.068 16.5067 191.308 15.28 189.788 15.28ZM203.536 26.64C201.882 24.8 201.056 22.2533 201.056 19C201.056 15.7467 201.882 13.2 203.536 11.36C205.216 9.52 207.469 8.6 210.296 8.6C213.122 8.6 215.362 9.52 217.016 11.36C218.669 13.2 219.496 15.7467 219.496 19C219.496 22.2533 218.669 24.8 217.016 26.64C215.362 28.48 213.122 29.4 210.296 29.4C207.469 29.4 205.216 28.48 203.536 26.64ZM210.296 15.28C208.802 15.28 208.056 16.5067 208.056 18.96C208.056 21.4133 208.802 22.64 210.296 22.64C211.816 22.64 212.576 21.4133 212.576 18.96C212.576 16.5067 211.816 15.28 210.296 15.28ZM229.603 28.68C229.603 28.92 228.243 29.04 225.523 29.04C223.39 29.0133 222.323 28.9067 222.323 28.72V1.48C222.323 1.08 223.617 0.88 226.203 0.88C228.47 0.959999 229.603 1.09333 229.603 1.28V28.68Z" fill="#73799B"/>
</svg>
