<svg width="135" height="22" viewBox="0 0 135 22" fill="none" xmlns="http://www.w3.org/2000/svg">
<rect width="135" height="22" rx="11" fill="#141621"/>
<circle cx="12" cy="11" r="6" fill="#303346"/>
<path d="M25.893 7.18C25.5667 7.18 25.2788 7.24233 25.0295 7.367C24.7838 7.49167 24.5785 7.63833 24.4135 7.807C24.2522 7.97567 24.1293 8.12783 24.045 8.2635C23.9607 8.39917 23.9148 8.47433 23.9075 8.489L23.3465 8.2525C23.3538 8.22683 23.3887 8.15533 23.451 8.038C23.5133 7.92067 23.6087 7.78317 23.737 7.6255C23.8653 7.46417 24.0285 7.3065 24.2265 7.1525C24.4245 6.99483 24.661 6.86467 24.936 6.762C25.2147 6.65933 25.5337 6.608 25.893 6.608C26.2413 6.608 26.5475 6.65567 26.8115 6.751C27.0755 6.84267 27.2992 6.98017 27.4825 7.1635C27.6658 7.34317 27.8052 7.56683 27.9005 7.8345C27.9958 8.10217 28.0435 8.41017 28.0435 8.7585C28.0435 9.06283 27.9647 9.38367 27.807 9.721C27.653 10.0547 27.4513 10.3883 27.202 10.722C26.9527 11.052 26.685 11.3673 26.399 11.668C26.113 11.9687 25.8343 12.2418 25.563 12.4875C25.2917 12.7332 25.057 12.9385 24.859 13.1035C24.661 13.2648 24.529 13.3712 24.463 13.4225H27.983V14H23.462V13.472C23.6013 13.3583 23.792 13.2025 24.034 13.0045C24.2797 12.8028 24.551 12.57 24.848 12.306C25.1487 12.042 25.4475 11.7597 25.7445 11.459C26.0415 11.1583 26.3165 10.8522 26.5695 10.5405C26.8225 10.2252 27.0242 9.91533 27.1745 9.611C27.3285 9.30667 27.4055 9.0225 27.4055 8.7585C27.4055 8.17183 27.2735 7.763 27.0095 7.532C26.7492 7.29733 26.377 7.18 25.893 7.18ZM32.798 6.74V11.8935H33.623V12.471H32.798V14H32.1765V12.471H29.091V11.932L32.1765 6.74H32.798ZM32.1765 11.8935V7.851L29.784 11.8935H32.1765ZM35.4879 12.845C35.6896 12.845 35.8601 12.9165 35.9994 13.0595C36.1424 13.1988 36.2139 13.3803 36.2139 13.604C36.2139 13.8497 36.1644 14.0788 36.0654 14.2915C35.9701 14.5042 35.8436 14.693 35.6859 14.858C35.5283 15.0267 35.3559 15.1605 35.1689 15.2595L34.8444 14.9515C34.9508 14.9002 35.0626 14.8323 35.1799 14.748C35.3009 14.6637 35.4091 14.5647 35.5044 14.451C35.5998 14.341 35.6603 14.22 35.6859 14.088C35.6053 14.1283 35.5154 14.1485 35.4164 14.1485C35.2441 14.1448 35.0993 14.0807 34.9819 13.956C34.8646 13.8313 34.8059 13.6883 34.8059 13.527C34.8059 13.3913 34.8353 13.2722 34.8939 13.1695C34.9526 13.0668 35.0333 12.988 35.1359 12.933C35.2423 12.8743 35.3596 12.845 35.4879 12.845ZM39.965 14.132C39.5177 14.132 39.1235 14.0385 38.7825 13.8515C38.4415 13.6608 38.1738 13.406 37.9795 13.087C37.7852 12.768 37.688 12.4142 37.688 12.0255C37.688 11.6552 37.7522 11.3417 37.8805 11.085C38.0125 10.8283 38.1848 10.6193 38.3975 10.458C38.6102 10.293 38.8412 10.1683 39.0905 10.084C38.9108 10.0107 38.7385 9.90433 38.5735 9.765C38.4085 9.62567 38.271 9.44783 38.161 9.2315C38.0547 9.0115 38.0015 8.7475 38.0015 8.4395C38.0015 8.08017 38.0877 7.763 38.26 7.488C38.4323 7.213 38.667 6.9985 38.964 6.8445C39.261 6.68683 39.5928 6.608 39.9595 6.608C40.3298 6.608 40.6617 6.68683 40.955 6.8445C41.2483 6.9985 41.4793 7.213 41.648 7.488C41.8203 7.763 41.9065 8.08017 41.9065 8.4395C41.9065 8.9015 41.7965 9.26083 41.5765 9.5175C41.3602 9.77417 41.1108 9.963 40.8285 10.084C41.0778 10.1683 41.3088 10.293 41.5215 10.458C41.7342 10.6193 41.9065 10.8283 42.0385 11.085C42.1705 11.3417 42.2365 11.6552 42.2365 12.0255C42.2365 12.4142 42.1393 12.768 41.945 13.087C41.7543 13.406 41.4885 13.6608 41.1475 13.8515C40.8065 14.0385 40.4123 14.132 39.965 14.132ZM39.9595 13.5545C40.2602 13.5545 40.5315 13.4848 40.7735 13.3455C41.0192 13.2062 41.2135 13.0173 41.3565 12.779C41.5032 12.5407 41.5765 12.273 41.5765 11.976C41.5765 11.6753 41.5032 11.4058 41.3565 11.1675C41.2135 10.9292 41.0192 10.7403 40.7735 10.601C40.5315 10.4617 40.2602 10.392 39.9595 10.392C39.6588 10.392 39.3857 10.4617 39.14 10.601C38.8943 10.7403 38.7 10.9292 38.557 11.1675C38.414 11.4058 38.3425 11.6753 38.3425 11.976C38.3425 12.273 38.414 12.5407 38.557 12.779C38.7 13.0173 38.8943 13.2062 39.14 13.3455C39.3857 13.4848 39.6588 13.5545 39.9595 13.5545ZM39.965 9.853C40.2107 9.853 40.4343 9.7925 40.636 9.6715C40.8413 9.54683 41.0045 9.38183 41.1255 9.1765C41.2465 8.97117 41.307 8.74567 41.307 8.5C41.307 8.25067 41.2465 8.02517 41.1255 7.8235C41.0045 7.61817 40.8413 7.455 40.636 7.334C40.4343 7.213 40.2088 7.1525 39.9595 7.1525C39.7138 7.1525 39.4865 7.213 39.2775 7.334C39.0722 7.455 38.909 7.61817 38.788 7.8235C38.667 8.02517 38.6065 8.25067 38.6065 8.5C38.6065 8.74567 38.667 8.97117 38.788 9.1765C38.909 9.38183 39.0722 9.54683 39.2775 9.6715C39.4865 9.7925 39.7157 9.853 39.965 9.853ZM45.9377 14.132C45.4903 14.132 45.0962 14.0385 44.7552 13.8515C44.4142 13.6608 44.1465 13.406 43.9522 13.087C43.7578 12.768 43.6607 12.4142 43.6607 12.0255C43.6607 11.6552 43.7248 11.3417 43.8532 11.085C43.9852 10.8283 44.1575 10.6193 44.3702 10.458C44.5828 10.293 44.8138 10.1683 45.0632 10.084C44.8835 10.0107 44.7112 9.90433 44.5462 9.765C44.3812 9.62567 44.2437 9.44783 44.1337 9.2315C44.0273 9.0115 43.9742 8.7475 43.9742 8.4395C43.9742 8.08017 44.0603 7.763 44.2327 7.488C44.405 7.213 44.6397 6.9985 44.9367 6.8445C45.2337 6.68683 45.5655 6.608 45.9322 6.608C46.3025 6.608 46.6343 6.68683 46.9277 6.8445C47.221 6.9985 47.452 7.213 47.6207 7.488C47.793 7.763 47.8792 8.08017 47.8792 8.4395C47.8792 8.9015 47.7692 9.26083 47.5492 9.5175C47.3328 9.77417 47.0835 9.963 46.8012 10.084C47.0505 10.1683 47.2815 10.293 47.4942 10.458C47.7068 10.6193 47.8792 10.8283 48.0112 11.085C48.1432 11.3417 48.2092 11.6552 48.2092 12.0255C48.2092 12.4142 48.112 12.768 47.9177 13.087C47.727 13.406 47.4612 13.6608 47.1202 13.8515C46.7792 14.0385 46.385 14.132 45.9377 14.132ZM45.9322 13.5545C46.2328 13.5545 46.5042 13.4848 46.7462 13.3455C46.9918 13.2062 47.1862 13.0173 47.3292 12.779C47.4758 12.5407 47.5492 12.273 47.5492 11.976C47.5492 11.6753 47.4758 11.4058 47.3292 11.1675C47.1862 10.9292 46.9918 10.7403 46.7462 10.601C46.5042 10.4617 46.2328 10.392 45.9322 10.392C45.6315 10.392 45.3583 10.4617 45.1127 10.601C44.867 10.7403 44.6727 10.9292 44.5297 11.1675C44.3867 11.4058 44.3152 11.6753 44.3152 11.976C44.3152 12.273 44.3867 12.5407 44.5297 12.779C44.6727 13.0173 44.867 13.2062 45.1127 13.3455C45.3583 13.4848 45.6315 13.5545 45.9322 13.5545ZM45.9377 9.853C46.1833 9.853 46.407 9.7925 46.6087 9.6715C46.814 9.54683 46.9772 9.38183 47.0982 9.1765C47.2192 8.97117 47.2797 8.74567 47.2797 8.5C47.2797 8.25067 47.2192 8.02517 47.0982 7.8235C46.9772 7.61817 46.814 7.455 46.6087 7.334C46.407 7.213 46.1815 7.1525 45.9322 7.1525C45.6865 7.1525 45.4592 7.213 45.2502 7.334C45.0448 7.455 44.8817 7.61817 44.7607 7.8235C44.6397 8.02517 44.5792 8.25067 44.5792 8.5C44.5792 8.74567 44.6397 8.97117 44.7607 9.1765C44.8817 9.38183 45.0448 9.54683 45.2502 9.6715C45.4592 9.7925 45.6883 9.853 45.9377 9.853ZM50.7443 14L53.2028 10.9695C53.1075 11.0758 52.9425 11.1785 52.7078 11.2775C52.4732 11.3728 52.1908 11.4205 51.8608 11.4205C51.4392 11.4205 51.0505 11.3178 50.6948 11.1125C50.3428 10.9035 50.0605 10.6193 49.8478 10.26C49.6352 9.897 49.5288 9.4845 49.5288 9.0225C49.5288 8.55683 49.6425 8.1425 49.8698 7.7795C50.0972 7.4165 50.3978 7.1305 50.7718 6.9215C51.1458 6.7125 51.5602 6.608 52.0148 6.608C52.4768 6.608 52.893 6.71433 53.2633 6.927C53.6337 7.136 53.927 7.42933 54.1433 7.807C54.3597 8.18467 54.4678 8.621 54.4678 9.116C54.4678 9.622 54.378 10.0547 54.1983 10.414C54.0223 10.7697 53.8097 11.1033 53.5603 11.415L51.5033 14H50.7443ZM51.9873 10.876C52.332 10.876 52.6437 10.7935 52.9223 10.6285C53.2047 10.4635 53.4302 10.2398 53.5988 9.9575C53.7675 9.67517 53.8518 9.3635 53.8518 9.0225C53.8518 8.67783 53.7675 8.36617 53.5988 8.0875C53.4302 7.80517 53.2047 7.57967 52.9223 7.411C52.6437 7.24233 52.332 7.158 51.9873 7.158C51.6463 7.158 51.3347 7.24233 51.0523 7.411C50.7737 7.57967 50.55 7.80517 50.3813 8.0875C50.2163 8.36617 50.1338 8.67783 50.1338 9.0225C50.1338 9.3635 50.2163 9.67517 50.3813 9.9575C50.55 10.2398 50.7737 10.4635 51.0523 10.6285C51.3347 10.7935 51.6463 10.876 51.9873 10.876ZM64.3913 6.74V14H63.7753V8.313L63.8138 7.7025L63.6543 8.3515L61.6578 13.67H61.0473L59.0508 8.3515L58.8968 7.7025L58.9353 8.313V14H58.3193V6.74H59.0783L61.2948 12.834L61.3553 13.109L61.4103 12.834L63.6378 6.74H64.3913ZM66.2802 11.8165C66.2839 12.1318 66.3462 12.427 66.4672 12.702C66.5919 12.977 66.7789 13.1988 67.0282 13.3675C67.2775 13.5362 67.591 13.6205 67.9687 13.6205C68.2767 13.6205 68.5334 13.571 68.7387 13.472C68.9477 13.3693 69.1127 13.252 69.2337 13.12C69.3584 12.9843 69.4464 12.8633 69.4977 12.757L69.8882 13.142C69.7525 13.351 69.5949 13.5307 69.4152 13.681C69.2392 13.8277 69.0302 13.9395 68.7882 14.0165C68.5499 14.0935 68.2657 14.132 67.9357 14.132C67.4554 14.132 67.0447 14.0257 66.7037 13.813C66.3664 13.5967 66.1079 13.3033 65.9282 12.933C65.7522 12.5627 65.6642 12.1465 65.6642 11.6845C65.6642 11.2445 65.7522 10.8485 65.9282 10.4965C66.1042 10.1445 66.3572 9.86583 66.6872 9.6605C67.0209 9.45517 67.4224 9.3525 67.8917 9.3525C68.317 9.3525 68.6855 9.446 68.9972 9.633C69.3125 9.82 69.5564 10.0803 69.7287 10.414C69.9047 10.744 69.9927 11.129 69.9927 11.569C69.9927 11.602 69.9909 11.6442 69.9872 11.6955C69.9872 11.7468 69.9854 11.7872 69.9817 11.8165H66.2802ZM69.3657 11.294C69.362 11.096 69.3125 10.887 69.2172 10.667C69.1255 10.4433 68.9734 10.2545 68.7607 10.1005C68.5517 9.94283 68.2639 9.864 67.8972 9.864C67.5159 9.864 67.2115 9.941 66.9842 10.095C66.7605 10.2453 66.5974 10.4305 66.4947 10.6505C66.392 10.8705 66.3297 11.085 66.3077 11.294H69.3657ZM76.1835 9.3525C76.5171 9.3525 76.7976 9.42583 77.025 9.5725C77.2523 9.71917 77.4228 9.94283 77.5365 10.2435C77.6538 10.5405 77.7125 10.92 77.7125 11.382V14H77.091V11.547C77.091 10.9787 77.014 10.5607 76.86 10.293C76.706 10.0253 76.431 9.8915 76.035 9.8915C75.8333 9.8915 75.6335 9.94833 75.4355 10.062C75.2411 10.172 75.0798 10.348 74.9515 10.59C74.8231 10.832 74.759 11.151 74.759 11.547V14H74.1595V11.547C74.1595 10.9787 74.0605 10.5607 73.8625 10.293C73.6645 10.0253 73.4041 9.8915 73.0815 9.8915C72.8761 9.8915 72.6763 9.94467 72.482 10.051C72.2913 10.1573 72.1336 10.3333 72.009 10.579C71.888 10.821 71.8275 11.1437 71.8275 11.547V14H71.206V9.4845H71.8275V10.1995C71.8641 10.0858 71.9466 9.963 72.075 9.831C72.207 9.699 72.3756 9.58717 72.581 9.4955C72.7863 9.40017 73.021 9.3525 73.285 9.3525C73.5636 9.3525 73.7946 9.41483 73.978 9.5395C74.1613 9.66417 74.3043 9.81267 74.407 9.985C74.5096 10.1573 74.5738 10.315 74.5995 10.458C74.6545 10.2857 74.7535 10.1152 74.8965 9.9465C75.0395 9.77783 75.221 9.63667 75.441 9.523C75.661 9.40933 75.9085 9.3525 76.1835 9.3525ZM79.1746 14V6.432H79.8126V10.4195C79.8309 10.2985 79.9171 10.1555 80.0711 9.9905C80.2251 9.82183 80.4359 9.67333 80.7036 9.545C80.9713 9.41667 81.2811 9.3525 81.6331 9.3525C82.0438 9.3525 82.4123 9.44783 82.7386 9.6385C83.0686 9.82917 83.3308 10.1042 83.5251 10.4635C83.7194 10.8192 83.8166 11.2463 83.8166 11.745C83.8166 12.2437 83.7194 12.6727 83.5251 13.032C83.3308 13.3877 83.0686 13.6608 82.7386 13.8515C82.4123 14.0385 82.0438 14.132 81.6331 14.132C81.2884 14.132 80.9823 14.066 80.7146 13.934C80.4469 13.802 80.2324 13.6517 80.0711 13.483C79.9098 13.3143 79.8181 13.1713 79.7961 13.054V14H79.1746ZM83.1841 11.745C83.1841 11.3637 83.1071 11.0355 82.9531 10.7605C82.8028 10.4855 82.6029 10.2747 82.3536 10.128C82.1079 9.97767 81.8403 9.9025 81.5506 9.9025C81.2353 9.9025 80.9456 9.9795 80.6816 10.1335C80.4176 10.2838 80.2068 10.4965 80.0491 10.7715C79.8914 11.0465 79.8126 11.371 79.8126 11.745C79.8126 12.119 79.8914 12.4435 80.0491 12.7185C80.2068 12.9935 80.4176 13.2062 80.6816 13.3565C80.9456 13.5068 81.2353 13.582 81.5506 13.582C81.8403 13.582 82.1079 13.5087 82.3536 13.362C82.6029 13.2153 82.8028 13.0045 82.9531 12.7295C83.1071 12.4545 83.1841 12.1263 83.1841 11.745ZM85.0575 11.8165C85.0612 12.1318 85.1235 12.427 85.2445 12.702C85.3692 12.977 85.5562 13.1988 85.8055 13.3675C86.0549 13.5362 86.3684 13.6205 86.746 13.6205C87.054 13.6205 87.3107 13.571 87.516 13.472C87.725 13.3693 87.89 13.252 88.011 13.12C88.1357 12.9843 88.2237 12.8633 88.275 12.757L88.6655 13.142C88.5299 13.351 88.3722 13.5307 88.1925 13.681C88.0165 13.8277 87.8075 13.9395 87.5655 14.0165C87.3272 14.0935 87.043 14.132 86.713 14.132C86.2327 14.132 85.822 14.0257 85.481 13.813C85.1437 13.5967 84.8852 13.3033 84.7055 12.933C84.5295 12.5627 84.4415 12.1465 84.4415 11.6845C84.4415 11.2445 84.5295 10.8485 84.7055 10.4965C84.8815 10.1445 85.1345 9.86583 85.4645 9.6605C85.7982 9.45517 86.1997 9.3525 86.669 9.3525C87.0944 9.3525 87.4629 9.446 87.7745 9.633C88.0899 9.82 88.3337 10.0803 88.506 10.414C88.682 10.744 88.77 11.129 88.77 11.569C88.77 11.602 88.7682 11.6442 88.7645 11.6955C88.7645 11.7468 88.7627 11.7872 88.759 11.8165H85.0575ZM88.143 11.294C88.1394 11.096 88.0899 10.887 87.9945 10.667C87.9029 10.4433 87.7507 10.2545 87.538 10.1005C87.329 9.94283 87.0412 9.864 86.6745 9.864C86.2932 9.864 85.9889 9.941 85.7615 10.095C85.5379 10.2453 85.3747 10.4305 85.272 10.6505C85.1694 10.8705 85.107 11.085 85.085 11.294H88.143ZM90.5773 14H89.9613V9.4845H90.5773V10.2985H90.5498C90.5645 10.2032 90.6305 10.0822 90.7478 9.9355C90.8688 9.78517 91.032 9.65133 91.2373 9.534C91.4426 9.413 91.6846 9.3525 91.9633 9.3525C92.176 9.3525 92.3575 9.38 92.5078 9.435C92.6618 9.48633 92.7681 9.5395 92.8268 9.5945L92.5518 10.128C92.5041 10.0803 92.4143 10.0327 92.2823 9.985C92.154 9.93733 91.9981 9.9135 91.8148 9.9135C91.5618 9.9135 91.3418 9.99783 91.1548 10.1665C90.9715 10.3352 90.8285 10.5368 90.7258 10.7715C90.6268 11.0025 90.5773 11.2152 90.5773 11.4095V14ZM94.9805 9.3525C95.1895 9.3525 95.3856 9.37633 95.569 9.424C95.756 9.468 95.9191 9.52483 96.0585 9.5945C96.1978 9.6605 96.3023 9.721 96.372 9.776L96.0695 10.2105C95.9925 10.1372 95.8586 10.0602 95.668 9.9795C95.4773 9.89517 95.2628 9.853 95.0245 9.853C94.7311 9.853 94.48 9.9135 94.271 10.0345C94.0656 10.1555 93.963 10.3315 93.963 10.5625C93.963 10.7862 94.0675 10.964 94.2765 11.096C94.4855 11.228 94.7605 11.3362 95.1015 11.4205C95.3618 11.4865 95.5983 11.569 95.811 11.668C96.0273 11.767 96.1996 11.9027 96.328 12.075C96.4563 12.2437 96.5205 12.4692 96.5205 12.7515C96.5205 12.9935 96.471 13.2025 96.372 13.3785C96.273 13.5508 96.1373 13.692 95.965 13.802C95.7963 13.912 95.6038 13.9945 95.3875 14.0495C95.1711 14.1045 94.9438 14.132 94.7055 14.132C94.4598 14.132 94.2325 14.1045 94.0235 14.0495C93.8145 13.9945 93.6348 13.9285 93.4845 13.8515C93.3378 13.7745 93.226 13.703 93.149 13.637L93.4625 13.1475C93.5578 13.2465 93.7136 13.3492 93.93 13.4555C94.15 13.5582 94.4066 13.6095 94.7 13.6095C95.041 13.6095 95.3215 13.5307 95.5415 13.373C95.7651 13.2153 95.877 13.0082 95.877 12.7515C95.877 12.5645 95.8238 12.4142 95.7175 12.3005C95.6111 12.1868 95.4718 12.097 95.2995 12.031C95.1271 11.9613 94.9438 11.9027 94.7495 11.855C94.5625 11.8073 94.3828 11.7505 94.2105 11.6845C94.0418 11.6148 93.8915 11.5287 93.7595 11.426C93.6275 11.3233 93.523 11.2005 93.446 11.0575C93.3726 10.9108 93.336 10.7403 93.336 10.546C93.336 10.304 93.4111 10.095 93.5615 9.919C93.7118 9.73933 93.9116 9.6 94.161 9.501C94.414 9.402 94.6871 9.3525 94.9805 9.3525Z" fill="white"/>
</svg>
