<svg width="122" height="22" viewBox="0 0 122 22" fill="none" xmlns="http://www.w3.org/2000/svg">
<rect width="122" height="22" rx="11" fill="#141621"/>
<circle cx="12" cy="11" r="6" fill="#14DFDA"/>
<path d="M25.893 7.18C25.5667 7.18 25.2788 7.24233 25.0295 7.367C24.7838 7.49167 24.5785 7.63833 24.4135 7.807C24.2522 7.97567 24.1293 8.12783 24.045 8.2635C23.9607 8.39917 23.9148 8.47433 23.9075 8.489L23.3465 8.2525C23.3538 8.22683 23.3887 8.15533 23.451 8.038C23.5133 7.92067 23.6087 7.78317 23.737 7.6255C23.8653 7.46417 24.0285 7.3065 24.2265 7.1525C24.4245 6.99483 24.661 6.86467 24.936 6.762C25.2147 6.65933 25.5337 6.608 25.893 6.608C26.2413 6.608 26.5475 6.65567 26.8115 6.751C27.0755 6.84267 27.2992 6.98017 27.4825 7.1635C27.6658 7.34317 27.8052 7.56683 27.9005 7.8345C27.9958 8.10217 28.0435 8.41017 28.0435 8.7585C28.0435 9.06283 27.9647 9.38367 27.807 9.721C27.653 10.0547 27.4513 10.3883 27.202 10.722C26.9527 11.052 26.685 11.3673 26.399 11.668C26.113 11.9687 25.8343 12.2418 25.563 12.4875C25.2917 12.7332 25.057 12.9385 24.859 13.1035C24.661 13.2648 24.529 13.3712 24.463 13.4225H27.983V14H23.462V13.472C23.6013 13.3583 23.792 13.2025 24.034 13.0045C24.2797 12.8028 24.551 12.57 24.848 12.306C25.1487 12.042 25.4475 11.7597 25.7445 11.459C26.0415 11.1583 26.3165 10.8522 26.5695 10.5405C26.8225 10.2252 27.0242 9.91533 27.1745 9.611C27.3285 9.30667 27.4055 9.0225 27.4055 8.7585C27.4055 8.17183 27.2735 7.763 27.0095 7.532C26.7492 7.29733 26.377 7.18 25.893 7.18ZM30.235 12.845C30.4367 12.845 30.6072 12.9165 30.7465 13.0595C30.8895 13.1988 30.961 13.3803 30.961 13.604C30.961 13.8497 30.9115 14.0788 30.8125 14.2915C30.7172 14.5042 30.5907 14.693 30.433 14.858C30.2753 15.0267 30.103 15.1605 29.916 15.2595L29.5915 14.9515C29.6978 14.9002 29.8097 14.8323 29.927 14.748C30.048 14.6637 30.1562 14.5647 30.2515 14.451C30.3468 14.341 30.4073 14.22 30.433 14.088C30.3523 14.1283 30.2625 14.1485 30.1635 14.1485C29.9912 14.1448 29.8463 14.0807 29.729 13.956C29.6117 13.8313 29.553 13.6883 29.553 13.527C29.553 13.3913 29.5823 13.2722 29.641 13.1695C29.6997 13.0668 29.7803 12.988 29.883 12.933C29.9893 12.8743 30.1067 12.845 30.235 12.845ZM34.7121 14.132C34.2647 14.132 33.8706 14.0385 33.5296 13.8515C33.1886 13.6608 32.9209 13.406 32.7266 13.087C32.5322 12.768 32.4351 12.4142 32.4351 12.0255C32.4351 11.6552 32.4992 11.3417 32.6276 11.085C32.7596 10.8283 32.9319 10.6193 33.1446 10.458C33.3572 10.293 33.5882 10.1683 33.8376 10.084C33.6579 10.0107 33.4856 9.90433 33.3206 9.765C33.1556 9.62567 33.0181 9.44783 32.9081 9.2315C32.8017 9.0115 32.7486 8.7475 32.7486 8.4395C32.7486 8.08017 32.8347 7.763 33.0071 7.488C33.1794 7.213 33.4141 6.9985 33.7111 6.8445C34.0081 6.68683 34.3399 6.608 34.7066 6.608C35.0769 6.608 35.4087 6.68683 35.7021 6.8445C35.9954 6.9985 36.2264 7.213 36.3951 7.488C36.5674 7.763 36.6536 8.08017 36.6536 8.4395C36.6536 8.9015 36.5436 9.26083 36.3236 9.5175C36.1072 9.77417 35.8579 9.963 35.5756 10.084C35.8249 10.1683 36.0559 10.293 36.2686 10.458C36.4812 10.6193 36.6536 10.8283 36.7856 11.085C36.9176 11.3417 36.9836 11.6552 36.9836 12.0255C36.9836 12.4142 36.8864 12.768 36.6921 13.087C36.5014 13.406 36.2356 13.6608 35.8946 13.8515C35.5536 14.0385 35.1594 14.132 34.7121 14.132ZM34.7066 13.5545C35.0072 13.5545 35.2786 13.4848 35.5206 13.3455C35.7662 13.2062 35.9606 13.0173 36.1036 12.779C36.2502 12.5407 36.3236 12.273 36.3236 11.976C36.3236 11.6753 36.2502 11.4058 36.1036 11.1675C35.9606 10.9292 35.7662 10.7403 35.5206 10.601C35.2786 10.4617 35.0072 10.392 34.7066 10.392C34.4059 10.392 34.1327 10.4617 33.8871 10.601C33.6414 10.7403 33.4471 10.9292 33.3041 11.1675C33.1611 11.4058 33.0896 11.6753 33.0896 11.976C33.0896 12.273 33.1611 12.5407 33.3041 12.779C33.4471 13.0173 33.6414 13.2062 33.8871 13.3455C34.1327 13.4848 34.4059 13.5545 34.7066 13.5545ZM34.7121 9.853C34.9577 9.853 35.1814 9.7925 35.3831 9.6715C35.5884 9.54683 35.7516 9.38183 35.8726 9.1765C35.9936 8.97117 36.0541 8.74567 36.0541 8.5C36.0541 8.25067 35.9936 8.02517 35.8726 7.8235C35.7516 7.61817 35.5884 7.455 35.3831 7.334C35.1814 7.213 34.9559 7.1525 34.7066 7.1525C34.4609 7.1525 34.2336 7.213 34.0246 7.334C33.8192 7.455 33.6561 7.61817 33.5351 7.8235C33.4141 8.02517 33.3536 8.25067 33.3536 8.5C33.3536 8.74567 33.4141 8.97117 33.5351 9.1765C33.6561 9.38183 33.8192 9.54683 34.0246 9.6715C34.2336 9.7925 34.4627 9.853 34.7121 9.853ZM40.6847 14.132C40.2374 14.132 39.8432 14.0385 39.5022 13.8515C39.1612 13.6608 38.8936 13.406 38.6992 13.087C38.5049 12.768 38.4077 12.4142 38.4077 12.0255C38.4077 11.6552 38.4719 11.3417 38.6002 11.085C38.7322 10.8283 38.9046 10.6193 39.1172 10.458C39.3299 10.293 39.5609 10.1683 39.8102 10.084C39.6306 10.0107 39.4582 9.90433 39.2932 9.765C39.1282 9.62567 38.9907 9.44783 38.8807 9.2315C38.7744 9.0115 38.7212 8.7475 38.7212 8.4395C38.7212 8.08017 38.8074 7.763 38.9797 7.488C39.1521 7.213 39.3867 6.9985 39.6837 6.8445C39.9807 6.68683 40.3126 6.608 40.6792 6.608C41.0496 6.608 41.3814 6.68683 41.6747 6.8445C41.9681 6.9985 42.1991 7.213 42.3677 7.488C42.5401 7.763 42.6262 8.08017 42.6262 8.4395C42.6262 8.9015 42.5162 9.26083 42.2962 9.5175C42.0799 9.77417 41.8306 9.963 41.5482 10.084C41.7976 10.1683 42.0286 10.293 42.2412 10.458C42.4539 10.6193 42.6262 10.8283 42.7582 11.085C42.8902 11.3417 42.9562 11.6552 42.9562 12.0255C42.9562 12.4142 42.8591 12.768 42.6647 13.087C42.4741 13.406 42.2082 13.6608 41.8672 13.8515C41.5262 14.0385 41.1321 14.132 40.6847 14.132ZM40.6792 13.5545C40.9799 13.5545 41.2512 13.4848 41.4932 13.3455C41.7389 13.2062 41.9332 13.0173 42.0762 12.779C42.2229 12.5407 42.2962 12.273 42.2962 11.976C42.2962 11.6753 42.2229 11.4058 42.0762 11.1675C41.9332 10.9292 41.7389 10.7403 41.4932 10.601C41.2512 10.4617 40.9799 10.392 40.6792 10.392C40.3786 10.392 40.1054 10.4617 39.8597 10.601C39.6141 10.7403 39.4197 10.9292 39.2767 11.1675C39.1337 11.4058 39.0622 11.6753 39.0622 11.976C39.0622 12.273 39.1337 12.5407 39.2767 12.779C39.4197 13.0173 39.6141 13.2062 39.8597 13.3455C40.1054 13.4848 40.3786 13.5545 40.6792 13.5545ZM40.6847 9.853C40.9304 9.853 41.1541 9.7925 41.3557 9.6715C41.5611 9.54683 41.7242 9.38183 41.8452 9.1765C41.9662 8.97117 42.0267 8.74567 42.0267 8.5C42.0267 8.25067 41.9662 8.02517 41.8452 7.8235C41.7242 7.61817 41.5611 7.455 41.3557 7.334C41.1541 7.213 40.9286 7.1525 40.6792 7.1525C40.4336 7.1525 40.2062 7.213 39.9972 7.334C39.7919 7.455 39.6287 7.61817 39.5077 7.8235C39.3867 8.02517 39.3262 8.25067 39.3262 8.5C39.3262 8.74567 39.3867 8.97117 39.5077 9.1765C39.6287 9.38183 39.7919 9.54683 39.9972 9.6715C40.2062 9.7925 40.4354 9.853 40.6847 9.853ZM45.4914 14L47.9499 10.9695C47.8546 11.0758 47.6896 11.1785 47.4549 11.2775C47.2202 11.3728 46.9379 11.4205 46.6079 11.4205C46.1862 11.4205 45.7976 11.3178 45.4419 11.1125C45.0899 10.9035 44.8076 10.6193 44.5949 10.26C44.3822 9.897 44.2759 9.4845 44.2759 9.0225C44.2759 8.55683 44.3896 8.1425 44.6169 7.7795C44.8442 7.4165 45.1449 7.1305 45.5189 6.9215C45.8929 6.7125 46.3072 6.608 46.7619 6.608C47.2239 6.608 47.6401 6.71433 48.0104 6.927C48.3807 7.136 48.6741 7.42933 48.8904 7.807C49.1067 8.18467 49.2149 8.621 49.2149 9.116C49.2149 9.622 49.1251 10.0547 48.9454 10.414C48.7694 10.7697 48.5567 11.1033 48.3074 11.415L46.2504 14H45.4914ZM46.7344 10.876C47.0791 10.876 47.3907 10.7935 47.6694 10.6285C47.9517 10.4635 48.1772 10.2398 48.3459 9.9575C48.5146 9.67517 48.5989 9.3635 48.5989 9.0225C48.5989 8.67783 48.5146 8.36617 48.3459 8.0875C48.1772 7.80517 47.9517 7.57967 47.6694 7.411C47.3907 7.24233 47.0791 7.158 46.7344 7.158C46.3934 7.158 46.0817 7.24233 45.7994 7.411C45.5207 7.57967 45.2971 7.80517 45.1284 8.0875C44.9634 8.36617 44.8809 8.67783 44.8809 9.0225C44.8809 9.3635 44.9634 9.67517 45.1284 9.9575C45.2971 10.2398 45.5207 10.4635 45.7994 10.6285C46.0817 10.7935 46.3934 10.876 46.7344 10.876ZM53.3139 10.3645C53.3139 10.9622 53.4385 11.5012 53.6879 11.9815C53.9409 12.4582 54.2874 12.8358 54.7274 13.1145C55.1674 13.3932 55.6697 13.5325 56.2344 13.5325C56.8027 13.5325 57.305 13.3932 57.7414 13.1145C58.1777 12.8358 58.5205 12.4582 58.7699 11.9815C59.0192 11.5012 59.1439 10.9622 59.1439 10.3645C59.1439 9.76683 59.0192 9.22967 58.7699 8.753C58.5205 8.27633 58.1777 7.9005 57.7414 7.6255C57.305 7.34683 56.8027 7.2075 56.2344 7.2075C55.6697 7.2075 55.1674 7.34683 54.7274 7.6255C54.2874 7.9005 53.9409 8.27633 53.6879 8.753C53.4385 9.22967 53.3139 9.76683 53.3139 10.3645ZM52.6759 10.3645C52.6759 9.8365 52.7657 9.34517 52.9454 8.8905C53.125 8.43217 53.3744 8.0325 53.6934 7.6915C54.016 7.3505 54.3937 7.08467 54.8264 6.894C55.259 6.70333 55.7284 6.608 56.2344 6.608C56.744 6.608 57.2134 6.70333 57.6424 6.894C58.0714 7.08467 58.4454 7.3505 58.7644 7.6915C59.087 8.0325 59.3364 8.43217 59.5124 8.8905C59.6884 9.34517 59.7764 9.8365 59.7764 10.3645C59.7764 10.8962 59.6884 11.3912 59.5124 11.8495C59.34 12.3042 59.0925 12.7038 58.7699 13.0485C58.4509 13.3895 58.075 13.6553 57.6424 13.846C57.2134 14.0367 56.744 14.132 56.2344 14.132C55.721 14.132 55.248 14.0367 54.8154 13.846C54.3827 13.6553 54.0069 13.3895 53.6879 13.0485C53.3689 12.7038 53.1195 12.3042 52.9399 11.8495C52.7639 11.3912 52.6759 10.8962 52.6759 10.3645ZM63.1521 9.3525C63.4381 9.3525 63.7168 9.41483 63.9881 9.5395C64.2595 9.6605 64.4831 9.85483 64.6591 10.1225C64.8351 10.3865 64.9231 10.7293 64.9231 11.151V14H64.2851V11.2995C64.2851 10.7972 64.1678 10.436 63.9331 10.216C63.6985 9.99233 63.3978 9.8805 63.0311 9.8805C62.7891 9.8805 62.5545 9.95017 62.3271 10.0895C62.1035 10.2288 61.9183 10.4195 61.7716 10.6615C61.6286 10.9035 61.5571 11.1748 61.5571 11.4755V14H60.9301V9.4845H61.5571V10.3535C61.5828 10.2252 61.669 10.084 61.8156 9.93C61.966 9.77233 62.1566 9.63667 62.3876 9.523C62.6223 9.40933 62.8771 9.3525 63.1521 9.3525ZM66.9932 14H66.3552V6.432H66.9932V14ZM68.6291 14V9.4845H69.2506V14H68.6291ZM68.9481 7.653C68.8161 7.653 68.7025 7.60717 68.6071 7.5155C68.5155 7.42017 68.4696 7.3065 68.4696 7.1745C68.4696 7.03883 68.5173 6.92517 68.6126 6.8335C68.708 6.73817 68.8198 6.6905 68.9481 6.6905C69.0361 6.6905 69.1168 6.7125 69.1901 6.7565C69.2671 6.8005 69.3276 6.85917 69.3716 6.9325C69.4193 7.00217 69.4431 7.08283 69.4431 7.1745C69.4431 7.3065 69.3936 7.42017 69.2946 7.5155C69.1993 7.60717 69.0838 7.653 68.9481 7.653ZM73.1209 9.3525C73.4069 9.3525 73.6856 9.41483 73.9569 9.5395C74.2282 9.6605 74.4519 9.85483 74.6279 10.1225C74.8039 10.3865 74.8919 10.7293 74.8919 11.151V14H74.2539V11.2995C74.2539 10.7972 74.1366 10.436 73.9019 10.216C73.6672 9.99233 73.3666 9.8805 72.9999 9.8805C72.7579 9.8805 72.5232 9.95017 72.2959 10.0895C72.0722 10.2288 71.8871 10.4195 71.7404 10.6615C71.5974 10.9035 71.5259 11.1748 71.5259 11.4755V14H70.8989V9.4845H71.5259V10.3535C71.5516 10.2252 71.6377 10.084 71.7844 9.93C71.9347 9.77233 72.1254 9.63667 72.3564 9.523C72.5911 9.40933 72.8459 9.3525 73.1209 9.3525ZM76.5605 11.8165C76.5641 12.1318 76.6265 12.427 76.7475 12.702C76.8721 12.977 77.0591 13.1988 77.3085 13.3675C77.5578 13.5362 77.8713 13.6205 78.249 13.6205C78.557 13.6205 78.8136 13.571 79.019 13.472C79.228 13.3693 79.393 13.252 79.514 13.12C79.6386 12.9843 79.7266 12.8633 79.778 12.757L80.1685 13.142C80.0328 13.351 79.8751 13.5307 79.6955 13.681C79.5195 13.8277 79.3105 13.9395 79.0685 14.0165C78.8301 14.0935 78.546 14.132 78.216 14.132C77.7356 14.132 77.325 14.0257 76.984 13.813C76.6466 13.5967 76.3881 13.3033 76.2085 12.933C76.0325 12.5627 75.9445 12.1465 75.9445 11.6845C75.9445 11.2445 76.0325 10.8485 76.2085 10.4965C76.3845 10.1445 76.6375 9.86583 76.9675 9.6605C77.3011 9.45517 77.7026 9.3525 78.172 9.3525C78.5973 9.3525 78.9658 9.446 79.2775 9.633C79.5928 9.82 79.8366 10.0803 80.009 10.414C80.185 10.744 80.273 11.129 80.273 11.569C80.273 11.602 80.2711 11.6442 80.2675 11.6955C80.2675 11.7468 80.2656 11.7872 80.262 11.8165H76.5605ZM79.646 11.294C79.6423 11.096 79.5928 10.887 79.4975 10.667C79.4058 10.4433 79.2536 10.2545 79.041 10.1005C78.832 9.94283 78.5441 9.864 78.1775 9.864C77.7961 9.864 77.4918 9.941 77.2645 10.095C77.0408 10.2453 76.8776 10.4305 76.775 10.6505C76.6723 10.8705 76.61 11.085 76.588 11.294H79.646Z" fill="white"/>
</svg>
