<svg width="56" height="55" viewBox="0 0 56 55" fill="none" xmlns="http://www.w3.org/2000/svg">
<path d="M3.14881 34.9662C-1.0496 30.8427 -1.0496 24.1573 3.14881 20.0338L20.3981 3.09258C24.5965 -1.03086 31.4035 -1.03086 35.6019 3.09258L52.8512 20.0338C57.0496 24.1573 57.0496 30.8427 52.8512 34.9662L35.6019 51.9074C31.4035 56.0309 24.5965 56.0309 20.3981 51.9074L3.14881 34.9662Z" fill="#7B19D5"/>
<path fill-rule="evenodd" clip-rule="evenodd" d="M30.5124 11.1317C30.7825 10.9967 31.0925 10.9642 31.3847 11.0402C31.677 11.1163 31.9316 11.2957 32.1013 11.545L37.7847 19.8978C37.9686 20.1682 38.0386 20.5001 37.9795 20.8216L34.293 40.8118C34.2696 40.9386 34.2266 41.061 34.1655 41.1746L32.9993 43.3442C32.8609 43.6017 32.636 43.8024 32.3641 43.911C32.0922 44.0196 31.7907 44.0291 31.5125 43.9379L23.0042 41.1485C22.8378 41.0939 22.6848 41.005 22.5551 40.8874C22.4254 40.7698 22.3221 40.6262 22.2518 40.466L16.1048 26.4668C16.0331 26.3036 15.9975 26.1269 16.0001 25.9488C16.0028 25.7706 16.0438 25.5951 16.1204 25.4342L20.3701 16.4974C20.4893 16.2466 20.6891 16.0429 20.9377 15.9186L30.5124 11.1317ZM20.7917 21.4124L18.6158 25.9879L21.6738 32.9523L21.0229 23.2495L20.7917 21.4124ZM23.9299 29.3491L24.5804 39.0467L29.4808 40.6534L23.9299 29.3491ZM31.9158 39.9597L35.3711 21.2236L30.3571 18.2509L23.8223 23.4777L31.9158 39.9597ZM23.2225 20.7693L29.1087 16.0616L29.3982 14.4711L22.8422 17.7488L23.2225 20.7693ZM31.7515 15.4587L31.6323 16.1135L32.579 16.6747L31.7515 15.4587Z" fill="#040610"/>
</svg>
