<svg width="85" height="32" viewBox="0 0 85 32" fill="none" xmlns="http://www.w3.org/2000/svg">
<path d="M3.12 31.28C2.29333 31.28 1.6 31.04 1.04 30.56C0.506667 30.1067 0.24 29.4533 0.24 28.6C0.24 28.3867 0.293333 28.0667 0.4 27.64C0.533333 27.1867 0.693333 26.7733 0.88 26.4C1.09333 26 1.32 25.8 1.56 25.8C1.72 25.8 1.8 25.9067 1.8 26.12C1.8 26.36 1.66667 26.6667 1.4 27.04C1.13333 27.3867 1 27.84 1 28.4C1 28.9067 1.14667 29.2933 1.44 29.56C1.73333 29.8267 2.12 29.96 2.6 29.96C3.82667 29.96 5.17333 29.6933 6.64 29.16C8.13333 28.6267 9.6 27.92 11.04 27.04C12.48 26.16 13.76 25.1867 14.88 24.12C16.0267 23.0267 16.8533 21.92 17.36 20.8C17.5467 20.4267 17.64 20.08 17.64 19.76C17.64 19.1733 17.3867 18.8133 16.88 18.68C16.3733 18.52 15.9067 18.44 15.48 18.44C13.8533 18.44 12.1467 18.5333 10.36 18.72C8.57333 18.9067 6.78667 19 5 19C4.17333 19 3.37333 18.88 2.6 18.64C1.85333 18.4 1.22667 18 0.72 17.44C0.24 16.88 1.19209e-07 16.12 1.19209e-07 15.16C1.19209e-07 13.9867 0.373334 12.8133 1.12 11.64C1.86667 10.4667 2.8 9.36 3.92 8.32C5.06667 7.28 6.25333 6.37333 7.48 5.6C8.73333 4.8 9.84 4.2 10.8 3.8C11.7333 3.42666 12.6533 3.12 13.56 2.88C14.4933 2.64 15.4533 2.52 16.44 2.52H17C17.9867 2.52 18.96 2.66666 19.92 2.96C20.88 3.25333 21.68 3.74667 22.32 4.44C22.96 5.10667 23.28 6.01333 23.28 7.16C23.28 7.37333 23.24 7.73333 23.16 8.24C23.1067 8.72 23 9.17333 22.84 9.6C22.68 10 22.4533 10.2 22.16 10.2C22.0267 10.2 21.96 10.12 21.96 9.96C21.96 9.61333 22.0267 9.26667 22.16 8.92C22.2933 8.57333 22.36 8.22667 22.36 7.88C22.36 6.92 22.08 6.13333 21.52 5.52C20.96 4.90667 20.2667 4.45333 19.44 4.16C18.6133 3.86667 17.7733 3.72 16.92 3.72C15.8533 3.72 14.6533 3.92 13.32 4.32C11.9867 4.72 10.6533 5.28 9.32 6C7.98667 6.72 6.74667 7.57333 5.6 8.56C4.48 9.52 3.57333 10.56 2.88 11.68C2.18667 12.8 1.84 13.96 1.84 15.16C1.84 15.7467 2.01333 16.2533 2.36 16.68C2.73333 17.08 3.18667 17.3867 3.72 17.6C4.28 17.8133 4.81333 17.92 5.32 17.92C7.10667 17.92 8.86667 17.7867 10.6 17.52C12.36 17.2267 14.1067 17.08 15.84 17.08C16.3467 17.08 16.8533 17.1467 17.36 17.28C17.8667 17.3867 18.28 17.6133 18.6 17.96C18.9467 18.28 19.12 18.7467 19.12 19.36C19.12 20.48 18.7333 21.6133 17.96 22.76C17.1867 23.88 16.1867 24.96 14.96 26C13.7333 27.0133 12.3867 27.92 10.92 28.72C9.48 29.52 8.06667 30.1467 6.68 30.6C5.32 31.0533 4.13333 31.28 3.12 31.28ZM24.0291 28.72C23.7091 28.72 23.4691 28.4933 23.3091 28.04C23.1491 27.56 23.0291 27 22.9491 26.36C22.8691 25.6933 22.8157 25.08 22.7891 24.52C22.7891 23.9333 22.7891 23.5467 22.7891 23.36C22.7891 21.7333 22.8557 20 22.9891 18.16C23.1491 16.2933 23.3891 14.4133 23.7091 12.52C24.0557 10.6 24.5091 8.77333 25.0691 7.04C25.6291 5.28 26.3224 3.69333 27.1491 2.28C27.3357 1.96 27.6157 1.8 27.9891 1.8C28.1491 1.8 28.2957 1.85333 28.4291 1.96C28.5624 2.04 28.6291 2.17333 28.6291 2.36C28.6291 2.52 28.5757 2.70667 28.4691 2.92C27.6957 4.70667 26.9624 6.45333 26.2691 8.16C25.5757 9.84 25.0157 11.64 24.5891 13.56C24.0291 16.12 23.7491 18.72 23.7491 21.36C23.7491 22.64 23.8291 23.9067 23.9891 25.16C24.1224 24.7333 24.3891 24.08 24.7891 23.2C25.1891 22.32 25.6557 21.3467 26.1891 20.28C26.7491 19.2133 27.3357 18.1867 27.9491 17.2C28.5891 16.2133 29.2024 15.4133 29.7891 14.8C30.3757 14.16 30.8957 13.84 31.3491 13.84C31.8291 13.84 32.1357 14.08 32.2691 14.56C32.4291 15.0133 32.5091 15.4267 32.5091 15.8C32.5091 16.8667 32.4291 17.9333 32.2691 19C32.1091 20.0667 32.0291 21.1467 32.0291 22.24C32.0291 22.3467 32.0424 22.64 32.0691 23.12C32.0957 23.5733 32.1491 24.0133 32.2291 24.44C32.3357 24.8667 32.4691 25.08 32.6291 25.08C32.8691 25.08 33.1091 24.9333 33.3491 24.64C33.5891 24.32 33.8024 23.9733 33.9891 23.6C34.2024 23.2 34.3891 22.8533 34.5491 22.56C34.7091 22.24 34.8291 22.08 34.9091 22.08C34.9891 22.08 35.0424 22.1467 35.0691 22.28C35.0957 22.3867 35.1091 22.4667 35.1091 22.52C35.1091 22.8667 34.9757 23.3467 34.7091 23.96C34.4691 24.5467 34.1491 25.0933 33.7491 25.6C33.3491 26.08 32.9491 26.32 32.5491 26.32C32.1757 26.32 31.8691 26.16 31.6291 25.84C31.4157 25.52 31.2557 25.1333 31.1491 24.68C31.0424 24.2267 30.9624 23.7867 30.9091 23.36C30.8824 22.9333 30.8691 22.6 30.8691 22.36C30.8691 21.4 30.9091 20.44 30.9891 19.48C31.0957 18.52 31.1491 17.56 31.1491 16.6V16.28C31.1491 16.12 31.1357 15.9733 31.1091 15.84C31.0824 15.68 31.0157 15.6 30.9091 15.6C30.7491 15.6 30.5224 15.7867 30.2291 16.16C29.9357 16.5067 29.7357 16.7467 29.6291 16.88C28.9091 17.7867 28.2157 18.8667 27.5491 20.12C26.9091 21.3733 26.3491 22.6667 25.8691 24C25.3891 25.3067 25.0424 26.5333 24.8291 27.68C24.8024 27.8933 24.7224 28.12 24.5891 28.36C24.4824 28.6 24.2957 28.72 24.0291 28.72ZM39.2656 13.28C39.079 13.28 38.9056 13.24 38.7456 13.16C38.5856 13.0533 38.5056 12.9067 38.5056 12.72C38.5056 12.5067 38.599 12.1867 38.7856 11.76C38.9723 11.3067 39.2123 10.8533 39.5056 10.4C39.799 9.94667 40.1056 9.56 40.4256 9.24C40.7723 8.92 41.079 8.76 41.3456 8.76C41.559 8.76 41.6656 8.89333 41.6656 9.16C41.6656 9.48 41.4923 9.73333 41.1456 9.92C40.9323 10.0533 40.7456 10.3067 40.5856 10.68C40.4523 11.0533 40.3323 11.44 40.2256 11.84C40.1456 12.24 40.0656 12.56 39.9856 12.8C39.9056 13.12 39.6656 13.28 39.2656 13.28ZM38.4656 28.6C37.8523 28.6 37.399 28.3467 37.1056 27.84C36.8123 27.3067 36.6256 26.7067 36.5456 26.04C36.4656 25.3467 36.4256 24.7867 36.4256 24.36C36.4256 24.0933 36.4523 23.6 36.5056 22.88C36.5856 22.16 36.679 21.36 36.7856 20.48C36.919 19.5733 37.0656 18.6933 37.2256 17.84C37.4123 16.9867 37.6256 16.28 37.8656 15.72C38.1056 15.16 38.359 14.88 38.6256 14.88C38.839 14.88 39.0256 14.9467 39.1856 15.08C39.3456 15.2133 39.4256 15.3867 39.4256 15.6C39.4256 15.92 39.3323 16.4267 39.1456 17.12C38.959 17.8133 38.7323 18.6 38.4656 19.48C38.2256 20.36 37.999 21.2533 37.7856 22.16C37.599 23.04 37.5056 23.84 37.5056 24.56C37.5056 24.7467 37.519 25.0667 37.5456 25.52C37.599 25.9733 37.6923 26.4 37.8256 26.8C37.959 27.1733 38.1723 27.36 38.4656 27.36C38.8656 27.36 39.3056 27.0667 39.7856 26.48C40.2656 25.8933 40.7456 25.1733 41.2256 24.32C41.7323 23.44 42.199 22.5733 42.6256 21.72C43.0523 20.84 43.4123 20.1067 43.7056 19.52C43.999 18.9333 44.199 18.64 44.3056 18.64C44.439 18.64 44.519 18.6933 44.5456 18.8C44.599 18.88 44.6256 18.9733 44.6256 19.08C44.6256 19.4267 44.479 19.9867 44.1856 20.76C43.8923 21.5067 43.5056 22.3333 43.0256 23.24C42.5456 24.12 42.0256 24.9733 41.4656 25.8C40.9056 26.6 40.359 27.2667 39.8256 27.8C39.2923 28.3333 38.839 28.6 38.4656 28.6ZM45.1266 30.24C44.8066 30.24 44.5532 29.9467 44.3666 29.36C44.2066 28.7733 44.0732 28.08 43.9666 27.28C43.8866 26.4533 43.8332 25.68 43.8066 24.96C43.8066 24.24 43.8066 23.7467 43.8066 23.48C43.8066 21.5333 43.9666 19.4533 44.2866 17.24C44.6332 15 45.1266 12.8 45.7666 10.64C46.4066 8.48 47.1666 6.53333 48.0466 4.8C48.2332 4.45333 48.4999 3.97333 48.8466 3.36C49.2199 2.74667 49.6332 2.2 50.0866 1.72C50.5399 1.21333 50.9799 0.959999 51.4066 0.959999C51.7799 0.959999 52.0466 1.09333 52.2066 1.36C52.3932 1.6 52.4866 1.89333 52.4866 2.24C52.4866 2.72 52.2732 2.96 51.8466 2.96C51.6599 2.96 51.4599 2.92 51.2466 2.84C51.0332 2.94667 50.7799 3.18667 50.4866 3.56C50.2199 3.90667 49.9666 4.26667 49.7266 4.64C49.4866 5.01333 49.2999 5.32 49.1666 5.56C47.8332 8.17333 46.7932 10.9867 46.0466 14C45.2999 17.0133 44.9266 20 44.9266 22.96C44.9266 23.28 44.9266 23.6133 44.9266 23.96C44.9266 24.28 44.9399 24.6133 44.9666 24.96C45.0732 24.48 45.2866 23.8 45.6066 22.92C45.9532 22.0133 46.3666 21.0533 46.8466 20.04C47.3266 19 47.8466 18.0133 48.4066 17.08C48.9932 16.1467 49.5799 15.3867 50.1666 14.8C50.7799 14.1867 51.3666 13.88 51.9266 13.88C52.3799 13.88 52.6999 14.04 52.8866 14.36C53.0999 14.6533 53.2332 15.0133 53.2866 15.44C53.3399 15.8667 53.3666 16.24 53.3666 16.56C53.3666 17.0933 53.2866 17.8267 53.1266 18.76C52.9666 19.6933 52.7266 20.6933 52.4066 21.76C52.1132 22.8 51.7399 23.8 51.2866 24.76C50.8332 25.6933 50.3132 26.4667 49.7266 27.08C49.1399 27.6933 48.4999 28 47.8066 28C47.3799 28 47.0199 27.88 46.7266 27.64C46.4599 27.4 46.2466 27.0933 46.0866 26.72C45.9799 27.2267 45.8999 27.6667 45.8466 28.04C45.8199 28.3867 45.8066 28.8267 45.8066 29.36C45.8066 29.5467 45.7532 29.7333 45.6466 29.92C45.5399 30.1333 45.3666 30.24 45.1266 30.24ZM47.4466 27C48.0066 27 48.5266 26.72 49.0066 26.16C49.5132 25.5733 49.9532 24.84 50.3266 23.96C50.7266 23.08 51.0599 22.16 51.3266 21.2C51.5932 20.2133 51.7932 19.3067 51.9266 18.48C52.0866 17.6267 52.1666 16.9733 52.1666 16.52V16.36C52.1666 16.12 52.1399 15.8933 52.0866 15.68C52.0332 15.4667 51.8732 15.36 51.6066 15.36C51.2599 15.36 50.8732 15.6267 50.4466 16.16C50.0199 16.6933 49.5799 17.3733 49.1266 18.2C48.6732 19 48.2599 19.84 47.8866 20.72C47.5132 21.5733 47.2066 22.3733 46.9666 23.12C46.7266 23.84 46.6066 24.36 46.6066 24.68C46.6066 24.8667 46.6066 25.1467 46.6066 25.52C46.6332 25.8933 46.6999 26.24 46.8066 26.56C46.9399 26.8533 47.1532 27 47.4466 27ZM56.4797 30.12C56.0264 30.12 55.693 29.8933 55.4797 29.44C55.2664 29.0133 55.133 28.52 55.0797 27.96C55.0264 27.4 54.9997 26.9733 54.9997 26.68C54.9997 25.6667 55.093 24.6 55.2797 23.48C55.4664 22.3333 55.7064 21.2667 55.9997 20.28C56.133 19.8267 56.373 19.1733 56.7197 18.32C57.0664 17.44 57.4797 16.5467 57.9597 15.64C58.4664 14.7333 58.9997 13.9733 59.5597 13.36C60.1464 12.72 60.733 12.4 61.3197 12.4C61.773 12.4 62.2664 12.6 62.7997 13C63.333 13.4 63.5997 13.84 63.5997 14.32C63.5997 14.5067 63.533 14.6667 63.3997 14.8C63.4264 14.7733 63.493 14.76 63.5997 14.76C64.1064 14.76 64.3597 15.0267 64.3597 15.56C64.3597 16.1733 64.2664 16.9067 64.0797 17.76C63.9197 18.6133 63.7464 19.52 63.5597 20.48C63.373 21.4133 63.2797 22.32 63.2797 23.2C63.2797 23.52 63.3064 23.9067 63.3597 24.36C63.413 24.7867 63.533 25.1733 63.7197 25.52C63.933 25.8667 64.2664 26.04 64.7197 26.04C65.1464 26.04 65.5997 25.8133 66.0797 25.36C66.5597 24.9067 67.0264 24.3467 67.4797 23.68C67.933 23.0133 68.3597 22.3467 68.7597 21.68C69.1597 21.0133 69.493 20.4533 69.7597 20C70.053 19.5467 70.253 19.32 70.3597 19.32C70.5464 19.32 70.6397 19.44 70.6397 19.68C70.6397 20 70.493 20.4667 70.1997 21.08C69.933 21.6667 69.573 22.32 69.1197 23.04C68.6664 23.7333 68.1597 24.4133 67.5997 25.08C67.0664 25.72 66.5197 26.2533 65.9597 26.68C65.4264 27.08 64.9464 27.28 64.5197 27.28C63.8264 27.28 63.293 27 62.9197 26.44C62.573 25.8533 62.333 25.16 62.1997 24.36C62.093 23.56 62.0397 22.8133 62.0397 22.12C62.0397 21.88 62.0397 21.6533 62.0397 21.44C62.0397 21.2267 62.053 21.04 62.0797 20.88C61.9197 21.2533 61.693 21.8133 61.3997 22.56C61.1064 23.28 60.7597 24.08 60.3597 24.96C59.9864 25.8133 59.573 26.64 59.1197 27.44C58.693 28.2133 58.253 28.8533 57.7997 29.36C57.3464 29.8667 56.9064 30.12 56.4797 30.12ZM56.7997 28.44C57.1464 28.44 57.533 28.12 57.9597 27.48C58.3864 26.84 58.8264 26.0267 59.2797 25.04C59.7597 24.0267 60.213 22.9467 60.6397 21.8C61.0664 20.6533 61.453 19.5733 61.7997 18.56C62.173 17.52 62.4797 16.6667 62.7197 16C62.9597 15.3067 63.1197 14.9333 63.1997 14.88L62.9597 14.92C62.773 14.92 62.6264 14.8267 62.5197 14.64C62.413 14.4267 62.2797 14.2267 62.1197 14.04C61.9597 13.8533 61.693 13.76 61.3197 13.76C60.8397 13.76 60.373 14.04 59.9197 14.6C59.4664 15.16 59.0264 15.84 58.5997 16.64C58.1997 17.4133 57.853 18.1733 57.5597 18.92C57.293 19.6667 57.1064 20.2267 56.9997 20.6C56.4664 22.44 56.1997 24.3333 56.1997 26.28C56.1997 26.3867 56.1997 26.6267 56.1997 27C56.2264 27.3467 56.2797 27.68 56.3597 28C56.4664 28.2933 56.613 28.44 56.7997 28.44ZM72.1562 13.28C71.9696 13.28 71.7963 13.24 71.6363 13.16C71.4763 13.0533 71.3963 12.9067 71.3963 12.72C71.3963 12.5067 71.4896 12.1867 71.6763 11.76C71.8629 11.3067 72.1029 10.8533 72.3963 10.4C72.6896 9.94667 72.9963 9.56 73.3163 9.24C73.6629 8.92 73.9696 8.76 74.2363 8.76C74.4496 8.76 74.5563 8.89333 74.5563 9.16C74.5563 9.48 74.3829 9.73333 74.0363 9.92C73.8229 10.0533 73.6363 10.3067 73.4763 10.68C73.3429 11.0533 73.2229 11.44 73.1163 11.84C73.0363 12.24 72.9563 12.56 72.8763 12.8C72.7963 13.12 72.5563 13.28 72.1562 13.28ZM71.3563 28.6C70.7429 28.6 70.2896 28.3467 69.9963 27.84C69.7029 27.3067 69.5163 26.7067 69.4363 26.04C69.3563 25.3467 69.3163 24.7867 69.3163 24.36C69.3163 24.0933 69.3429 23.6 69.3963 22.88C69.4763 22.16 69.5696 21.36 69.6763 20.48C69.8096 19.5733 69.9563 18.6933 70.1163 17.84C70.3029 16.9867 70.5163 16.28 70.7563 15.72C70.9963 15.16 71.2496 14.88 71.5163 14.88C71.7296 14.88 71.9163 14.9467 72.0763 15.08C72.2363 15.2133 72.3163 15.3867 72.3163 15.6C72.3163 15.92 72.2229 16.4267 72.0363 17.12C71.8496 17.8133 71.6229 18.6 71.3563 19.48C71.1163 20.36 70.8896 21.2533 70.6763 22.16C70.4896 23.04 70.3963 23.84 70.3963 24.56C70.3963 24.7467 70.4096 25.0667 70.4363 25.52C70.4896 25.9733 70.5829 26.4 70.7163 26.8C70.8496 27.1733 71.0629 27.36 71.3563 27.36C71.7563 27.36 72.1963 27.0667 72.6763 26.48C73.1563 25.8933 73.6363 25.1733 74.1163 24.32C74.6229 23.44 75.0896 22.5733 75.5163 21.72C75.9429 20.84 76.3029 20.1067 76.5963 19.52C76.8896 18.9333 77.0896 18.64 77.1963 18.64C77.3296 18.64 77.4096 18.6933 77.4362 18.8C77.4896 18.88 77.5163 18.9733 77.5163 19.08C77.5163 19.4267 77.3696 19.9867 77.0763 20.76C76.7829 21.5067 76.3963 22.3333 75.9163 23.24C75.4363 24.12 74.9163 24.9733 74.3563 25.8C73.7963 26.6 73.2496 27.2667 72.7163 27.8C72.1829 28.3333 71.7296 28.6 71.3563 28.6ZM79.6172 13.28C79.4305 13.28 79.2572 13.24 79.0972 13.16C78.9372 13.0533 78.8572 12.9067 78.8572 12.72C78.8572 12.5067 78.9505 12.1867 79.1372 11.76C79.3239 11.3067 79.5639 10.8533 79.8572 10.4C80.1505 9.94667 80.4572 9.56 80.7772 9.24C81.1239 8.92 81.4305 8.76 81.6972 8.76C81.9105 8.76 82.0172 8.89333 82.0172 9.16C82.0172 9.48 81.8439 9.73333 81.4972 9.92C81.2839 10.0533 81.0972 10.3067 80.9372 10.68C80.8039 11.0533 80.6839 11.44 80.5772 11.84C80.4972 12.24 80.4172 12.56 80.3372 12.8C80.2572 13.12 80.0172 13.28 79.6172 13.28ZM78.8172 28.6C78.2039 28.6 77.7505 28.3467 77.4572 27.84C77.1639 27.3067 76.9772 26.7067 76.8972 26.04C76.8172 25.3467 76.7772 24.7867 76.7772 24.36C76.7772 24.0933 76.8039 23.6 76.8572 22.88C76.9372 22.16 77.0305 21.36 77.1372 20.48C77.2705 19.5733 77.4172 18.6933 77.5772 17.84C77.7639 16.9867 77.9772 16.28 78.2172 15.72C78.4572 15.16 78.7105 14.88 78.9772 14.88C79.1905 14.88 79.3772 14.9467 79.5372 15.08C79.6972 15.2133 79.7772 15.3867 79.7772 15.6C79.7772 15.92 79.6839 16.4267 79.4972 17.12C79.3105 17.8133 79.0839 18.6 78.8172 19.48C78.5772 20.36 78.3505 21.2533 78.1372 22.16C77.9505 23.04 77.8572 23.84 77.8572 24.56C77.8572 24.7467 77.8705 25.0667 77.8972 25.52C77.9505 25.9733 78.0439 26.4 78.1772 26.8C78.3105 27.1733 78.5239 27.36 78.8172 27.36C79.2172 27.36 79.6572 27.0667 80.1372 26.48C80.6172 25.8933 81.0972 25.1733 81.5772 24.32C82.0839 23.44 82.5505 22.5733 82.9772 21.72C83.4039 20.84 83.7639 20.1067 84.0572 19.52C84.3505 18.9333 84.5505 18.64 84.6572 18.64C84.7905 18.64 84.8705 18.6933 84.8972 18.8C84.9505 18.88 84.9772 18.9733 84.9772 19.08C84.9772 19.4267 84.8305 19.9867 84.5372 20.76C84.2439 21.5067 83.8572 22.3333 83.3772 23.24C82.8972 24.12 82.3772 24.9733 81.8172 25.8C81.2572 26.6 80.7105 27.2667 80.1772 27.8C79.6439 28.3333 79.1905 28.6 78.8172 28.6Z" fill="#73799B"/>
</svg>
