<svg width="706" height="725" viewBox="0 0 706 725" fill="none" xmlns="http://www.w3.org/2000/svg">
<path fill-rule="evenodd" clip-rule="evenodd" d="M623.174 384.722L677.531 363.099L591.039 145.671L536.682 167.294L623.174 384.722ZM639.242 504.248L612.063 515.059L633.686 569.416L688.043 547.793C718.076 535.847 732.724 501.846 720.777 471.813L699.154 417.456L644.797 439.079L655.609 466.258C661.577 481.26 654.244 498.28 639.242 504.248ZM417.456 25.8455L439.079 80.2026L466.257 69.3911C481.26 63.4231 498.28 70.7556 504.248 85.7581L515.059 112.937L569.416 91.3136L547.793 36.9565C535.846 6.92423 501.845 -7.72425 471.813 4.22247L417.456 25.8455ZM133.96 579.33L188.317 557.706L101.825 340.278L47.4682 361.901L133.96 579.33ZM209.941 612.064L155.583 633.687L177.206 688.044C189.153 718.076 223.154 732.725 253.187 720.778L307.544 699.155L285.921 644.798L258.742 655.609C243.74 661.577 226.72 654.245 220.752 639.242L209.941 612.064ZM85.7578 220.752L112.936 209.941L91.3133 155.584L36.9562 177.207C6.92392 189.154 -7.72457 223.155 4.22216 253.187L25.8452 307.544L80.2023 285.921L69.3908 258.742C63.4228 243.74 70.7553 226.72 85.7578 220.752ZM167.293 188.318L384.722 101.826L363.099 47.4686L145.67 133.961L167.293 188.318ZM394.635 601.552L503.349 558.305L481.726 503.948L373.012 547.194L394.635 601.552ZM465.658 384.423C480.661 378.455 497.681 385.787 503.649 400.79L579.329 591.04L361.901 677.532L286.22 487.282C280.252 472.279 287.585 455.26 302.587 449.292C317.59 443.324 324.922 426.304 318.954 411.302L308.143 384.123L416.857 340.877L427.668 368.056C433.636 383.058 450.656 390.391 465.658 384.423ZM455.146 199.728L400.789 221.351C385.787 227.319 378.454 244.339 384.422 259.341L416.857 340.877L498.393 308.443C513.395 302.475 520.728 285.455 514.76 270.452L493.137 216.095C487.169 201.093 470.149 193.76 455.146 199.728ZM308.143 384.123L226.607 416.558C211.605 422.526 194.585 415.193 188.617 400.191L166.994 345.834C161.026 330.831 168.358 313.811 183.361 307.844L237.718 286.22C252.721 280.253 269.74 287.585 275.708 302.588L308.143 384.123Z" fill="#0F1220"/>
</svg>
