<svg width="252" height="35" viewBox="0 0 252 35" fill="none" xmlns="http://www.w3.org/2000/svg">
<path d="M0.191406 2.0625V0.65625H21.2852V2.0625H0.191406ZM0.191406 4.875V3.46875H21.2852V4.875H0.191406ZM0.191406 7.6875V6.28125H21.2852V7.6875H15.6602V33H14.2539V7.6875H12.8477V33H11.4414V7.6875H10.0352V33H8.62891V7.6875H7.22266V33H5.81641V7.6875H0.191406ZM37.418 19.6211H35.1914C32.457 19.6211 30.3542 19.0677 28.8828 17.9609C27.4115 16.8411 26.6758 15.3047 26.6758 13.3516C26.6758 11.5286 27.5417 10.0117 29.2734 8.80078C31.0052 7.57682 33.4336 6.96484 36.5586 6.96484C38.6419 6.96484 40.582 7.2513 42.3789 7.82422C44.1888 8.39714 45.6927 9.20443 46.8906 10.2461L45.7969 11.125C44.7292 10.2526 43.388 9.57552 41.7734 9.09375C40.1589 8.61198 38.4206 8.37109 36.5586 8.37109C33.8112 8.37109 31.7083 8.83984 30.25 9.77734C28.8047 10.7148 28.082 11.9062 28.082 13.3516C28.082 14.9141 28.6745 16.1185 29.8594 16.9648C31.0573 17.7982 32.8346 18.2148 35.1914 18.2148H37.3398C40.1133 18.2148 42.2357 18.7747 43.707 19.8945C45.1914 21.0013 45.9336 22.5312 45.9336 24.4844C45.9336 26.3073 45.0677 27.8307 43.3359 29.0547C41.6042 30.2656 39.1758 30.8711 36.0508 30.8711C33.9674 30.8711 32.0208 30.5846 30.2109 30.0117C28.4141 29.4388 26.9167 28.6315 25.7188 27.5898L26.8125 26.7109C27.8802 27.5833 29.2214 28.2604 30.8359 28.7422C32.4505 29.224 34.1888 29.4648 36.0508 29.4648C38.7982 29.4648 40.8945 28.9961 42.3398 28.0586C43.7982 27.1211 44.5273 25.9297 44.5273 24.4844C44.5273 22.9219 43.9284 21.724 42.7305 20.8906C41.5456 20.0443 39.7747 19.6211 37.418 19.6211ZM37.418 22.4336H35.1914C31.5716 22.4336 28.7786 21.6133 26.8125 19.9727C24.8464 18.319 23.8633 16.112 23.8633 13.3516C23.8633 12.0885 24.1432 10.9036 24.7031 9.79688C25.263 8.6901 26.0638 7.72005 27.1055 6.88672C28.1602 6.04036 29.5013 5.3763 31.1289 4.89453C32.7565 4.39974 34.5664 4.15234 36.5586 4.15234C39.0716 4.15234 41.4219 4.53646 43.6094 5.30469C45.7969 6.0599 47.6198 7.12109 49.0781 8.48828L47.9453 9.32812C46.6172 8.13021 44.957 7.20573 42.9648 6.55469C40.9727 5.89062 38.8372 5.55859 36.5586 5.55859C33.043 5.55859 30.2826 6.30078 28.2773 7.78516C26.2721 9.26953 25.2695 11.125 25.2695 13.3516C25.2695 15.7083 26.1289 17.5768 27.8477 18.957C29.5664 20.3372 32.0143 21.0273 35.1914 21.0273H37.3398C41.194 21.0273 43.1211 22.1797 43.1211 24.4844C43.1211 25.526 42.5286 26.3854 41.3438 27.0625C40.1719 27.7266 38.4076 28.0586 36.0508 28.0586C34.3971 28.0586 32.8607 27.8698 31.4414 27.4922C30.0221 27.1016 28.8503 26.5482 27.9258 25.832L29.0391 24.9727C30.6667 26.0924 33.0039 26.6523 36.0508 26.6523C38.0039 26.6523 39.4362 26.4505 40.3477 26.0469C41.2591 25.6432 41.7148 25.1224 41.7148 24.4844C41.7148 23.7422 41.3958 23.2148 40.7578 22.9023C40.1198 22.5898 39.0065 22.4336 37.418 22.4336ZM37.418 16.8086H35.1914C31.3893 16.8086 29.4883 15.6562 29.4883 13.3516C29.4883 12.3099 30.0742 11.457 31.2461 10.793C32.431 10.1159 34.2018 9.77734 36.5586 9.77734C38.2122 9.77734 39.7487 9.97266 41.168 10.3633C42.5872 10.7409 43.7591 11.2878 44.6836 12.0039L43.5703 12.8633C41.9427 11.7435 39.6055 11.1836 36.5586 11.1836C34.6055 11.1836 33.1732 11.3854 32.2617 11.7891C31.3503 12.1927 30.8945 12.7135 30.8945 13.3516C30.8945 14.0938 31.2135 14.6211 31.8516 14.9336C32.4896 15.2461 33.6029 15.4023 35.1914 15.4023H37.418C41.0378 15.4023 43.8307 16.2292 45.7969 17.8828C47.763 19.5234 48.7461 21.724 48.7461 24.4844C48.7461 25.7474 48.4661 26.9323 47.9062 28.0391C47.3464 29.1458 46.5391 30.1224 45.4844 30.9688C44.4427 31.8021 43.1081 32.4661 41.4805 32.9609C39.8529 33.4427 38.043 33.6836 36.0508 33.6836C33.5378 33.6836 31.1875 33.306 29 32.5508C26.8125 31.7826 24.9896 30.7148 23.5312 29.3477L24.6641 28.5078C25.9922 29.7057 27.6523 30.6367 29.6445 31.3008C31.6367 31.9518 33.7721 32.2773 36.0508 32.2773C39.5664 32.2773 42.3268 31.5352 44.332 30.0508C46.3372 28.5664 47.3398 26.7109 47.3398 24.4844C47.3398 22.1276 46.4805 20.2591 44.7617 18.8789C43.043 17.4987 40.5951 16.8086 37.418 16.8086ZM70.2891 20.5391V4.875H71.6953V20.5391C71.6953 22.0234 71.1224 23.2995 69.9766 24.3672C68.8438 25.4349 67.4766 25.9688 65.875 25.9688C64.2734 25.9688 62.8997 25.4349 61.7539 24.3672C60.6211 23.2995 60.0547 22.0234 60.0547 20.5391V4.875H61.4609V20.5391C61.4609 21.6458 61.8906 22.5964 62.75 23.3906C63.6224 24.1719 64.6641 24.5625 65.875 24.5625C67.0859 24.5625 68.1211 24.1719 68.9805 23.3906C69.8529 22.5964 70.2891 21.6458 70.2891 20.5391ZM73.1016 20.5391V4.875H74.5078V20.5391C74.5078 22.8177 73.6615 24.7643 71.9688 26.3789C70.276 27.9805 68.2448 28.7812 65.875 28.7812C63.5052 28.7812 61.474 27.9805 59.7812 26.3789C58.0885 24.7643 57.2422 22.8177 57.2422 20.5391V4.875H58.6484V20.5391C58.6484 22.4271 59.3516 24.0417 60.7578 25.3828C62.1771 26.7109 63.8828 27.375 65.875 27.375C67.8542 27.375 69.5534 26.7109 70.9727 25.3828C72.3919 24.0417 73.1016 22.4271 73.1016 20.5391ZM75.9141 20.5391V4.875H77.3203V20.5391C77.3203 22.5312 76.806 24.3802 75.7773 26.0859C74.7487 27.7786 73.3555 29.1198 71.5977 30.1094C69.8398 31.099 67.9323 31.5938 65.875 31.5938C63.8177 31.5938 61.9102 31.099 60.1523 30.1094C58.3945 29.1198 57.0013 27.7786 55.9727 26.0859C54.944 24.3802 54.4297 22.5312 54.4297 20.5391V4.875H55.8359V20.5391C55.8359 22.2708 56.2852 23.8789 57.1836 25.3633C58.082 26.8477 59.2995 28.026 60.8359 28.8984C62.3854 29.7578 64.0651 30.1875 65.875 30.1875C67.6849 30.1875 69.3581 29.7578 70.8945 28.8984C72.444 28.026 73.668 26.8477 74.5664 25.3633C75.4648 23.8789 75.9141 22.2708 75.9141 20.5391ZM78.7266 20.5391V4.875H80.1328V20.5391C80.1328 22.4141 79.7552 24.2109 79 25.9297C78.2448 27.6354 77.2292 29.1068 75.9531 30.3438C74.6771 31.5807 73.1602 32.5638 71.4023 33.293C69.6445 34.0352 67.8021 34.4062 65.875 34.4062C63.9479 34.4062 62.1055 34.0352 60.3477 33.293C58.5898 32.5638 57.0729 31.5807 55.7969 30.3438C54.5208 29.1068 53.5052 27.6354 52.75 25.9297C51.9948 24.2109 51.6172 22.4141 51.6172 20.5391V4.875H53.0234V20.5391C53.0234 22.7786 53.5964 24.8555 54.7422 26.7695C55.901 28.6836 57.4635 30.2005 59.4297 31.3203C61.4089 32.4401 63.5573 33 65.875 33C68.1927 33 70.3346 32.4401 72.3008 31.3203C74.2799 30.2005 75.8424 28.6836 76.9883 26.7695C78.1471 24.8555 78.7266 22.7786 78.7266 20.5391ZM113.219 4.875L105.387 19.0547L113.102 33H111.539L103.824 19.0547L111.656 4.875H113.219ZM110.074 4.875L102.242 19.0547L109.957 33H108.395L100.68 19.0547L108.512 4.875H110.074ZM106.93 4.875L99.0977 19.0547L106.812 33H105.25L97.5352 19.0547L105.367 4.875H106.93ZM103.785 4.875L95.9336 19.0547L103.668 33H102.105L94.3711 19.0547L102.223 4.875H103.785ZM92.1055 4.875V33H93.5117V4.875H92.1055ZM89.293 4.875V33H90.6992V4.875H89.293ZM86.4805 4.875V33H87.8867V4.875H86.4805ZM83.668 4.875V33H85.0742V4.875H83.668ZM115.035 7.6875V6.28125H129.215V33H127.809V7.6875H126.402V33H124.996V7.6875H123.59V33H122.184V7.6875H120.777V33H119.371V7.6875H115.035ZM115.035 4.875V3.46875H129.215V4.875H115.035ZM115.035 2.0625V0.65625H129.215V2.0625H115.035ZM158.336 4.875H159.742L150.895 23.5078V33H149.488V23.5078L158.336 4.875ZM155.523 4.875H156.93L148.082 23.5078V33H146.676V23.5078L155.523 4.875ZM152.711 4.875H154.117L145.27 23.5078V33H143.863V23.5078L152.711 4.875ZM149.898 4.875H151.305L142.457 23.5078V33H141.051V23.5078L131.617 4.875H133.023L141.734 22.082L149.898 4.875ZM134.449 4.875H135.855L142.828 18.1367L142.125 19.6797L134.449 4.875ZM137.262 4.875H138.688L144.234 15.0508L143.512 16.5938L137.262 4.875ZM140.113 4.875H141.52L145.641 11.9844L144.938 13.5273L140.113 4.875ZM182.105 19.1328C182.105 17.4661 181.591 16.1771 180.562 15.2656C179.534 14.3542 178.173 13.8984 176.48 13.8984C175.048 13.8984 173.818 14.3932 172.789 15.3828C171.76 16.3724 171.246 17.5573 171.246 18.9375C171.246 19.7188 171.35 20.4219 171.559 21.0469C171.767 21.6589 172.047 22.1732 172.398 22.5898C172.763 22.9935 173.193 23.332 173.688 23.6055C174.182 23.8659 174.697 24.0547 175.23 24.1719C175.777 24.2891 176.357 24.3477 176.969 24.3477C178.453 24.3477 179.807 23.9831 181.031 23.2539V24.6602C179.768 25.3242 178.408 25.6562 176.949 25.6562C176.012 25.6562 175.126 25.5326 174.293 25.2852C173.473 25.0247 172.724 24.6406 172.047 24.1328C171.37 23.612 170.829 22.9089 170.426 22.0234C170.035 21.125 169.84 20.0964 169.84 18.9375C169.84 17.1406 170.471 15.6172 171.734 14.3672C172.997 13.1172 174.579 12.4922 176.48 12.4922C178.577 12.4922 180.27 13.0846 181.559 14.2695C182.861 15.4414 183.512 17.0625 183.512 19.1328V33H182.105V19.1328ZM186.324 19.1328V33H184.918V19.1328C184.918 16.6719 184.13 14.7188 182.555 13.2734C180.979 11.8151 178.954 11.0859 176.48 11.0859C174.189 11.0859 172.275 11.8477 170.738 13.3711C169.202 14.8945 168.434 16.75 168.434 18.9375C168.434 20.2656 168.661 21.457 169.117 22.5117C169.586 23.5664 170.217 24.4128 171.012 25.0508C171.806 25.6888 172.691 26.1771 173.668 26.5156C174.658 26.8411 175.699 27.0039 176.793 27.0039C178.277 27.0039 179.69 26.6589 181.031 25.9688V27.4531C179.625 28.0391 178.206 28.332 176.773 28.332C175.484 28.332 174.26 28.1367 173.102 27.7461C171.943 27.3424 170.908 26.763 169.996 26.0078C169.085 25.2396 168.362 24.25 167.828 23.0391C167.294 21.8151 167.027 20.4479 167.027 18.9375C167.027 16.3724 167.932 14.1914 169.742 12.3945C171.565 10.5846 173.811 9.67969 176.48 9.67969C178.355 9.67969 180.035 10.0638 181.52 10.832C183.004 11.5872 184.176 12.6875 185.035 14.1328C185.895 15.5781 186.324 17.2448 186.324 19.1328ZM189.137 19.1328V33H187.73V19.1328C187.73 16.9844 187.236 15.0833 186.246 13.4297C185.27 11.763 183.928 10.487 182.223 9.60156C180.517 8.71615 178.603 8.27344 176.48 8.27344C174.462 8.27344 172.62 8.75521 170.953 9.71875C169.286 10.6693 167.978 11.9583 167.027 13.5859C166.09 15.2135 165.621 16.9974 165.621 18.9375C165.621 20.6042 165.927 22.1276 166.539 23.5078C167.151 24.875 167.971 26.0013 169 26.8867C170.042 27.7721 171.22 28.4622 172.535 28.957C173.863 29.4388 175.25 29.6797 176.695 29.6797C178.167 29.6797 179.612 29.3737 181.031 28.7617V30.1875C179.547 30.7474 178.089 31.0273 176.656 31.0273C174.404 31.0273 172.333 30.5195 170.445 29.5039C168.557 28.4883 167.047 27.0495 165.914 25.1875C164.781 23.3255 164.215 21.2422 164.215 18.9375C164.215 17.2969 164.527 15.7344 165.152 14.25C165.79 12.7656 166.65 11.4831 167.73 10.4023C168.811 9.32161 170.113 8.46224 171.637 7.82422C173.16 7.1862 174.775 6.86719 176.48 6.86719C178.863 6.86719 181.012 7.375 182.926 8.39062C184.853 9.40625 186.37 10.8516 187.477 12.7266C188.583 14.6016 189.137 16.737 189.137 19.1328ZM191.949 19.1328V33H190.543V19.1328C190.543 16.4766 189.924 14.1068 188.688 12.0234C187.451 9.92708 185.764 8.3125 183.629 7.17969C181.493 6.03385 179.111 5.46094 176.48 5.46094C173.954 5.46094 171.643 6.06641 169.547 7.27734C167.451 8.48828 165.803 10.1289 164.605 12.1992C163.408 14.2565 162.809 16.5026 162.809 18.9375C162.809 20.5391 163.062 22.0625 163.57 23.5078C164.091 24.9401 164.794 26.1966 165.68 27.2773C166.578 28.3451 167.607 29.2695 168.766 30.0508C169.938 30.832 171.194 31.4245 172.535 31.8281C173.889 32.2318 175.263 32.4336 176.656 32.4336C178.193 32.4336 179.651 32.1406 181.031 31.5547V33C179.586 33.5078 178.102 33.7617 176.578 33.7617C175.003 33.7617 173.466 33.5404 171.969 33.0977C170.484 32.6549 169.104 32.0039 167.828 31.1445C166.565 30.2721 165.452 29.25 164.488 28.0781C163.525 26.8932 162.77 25.513 162.223 23.9375C161.676 22.362 161.402 20.6953 161.402 18.9375C161.402 16.9193 161.78 14.9987 162.535 13.1758C163.303 11.3398 164.345 9.75781 165.66 8.42969C166.988 7.08854 168.59 6.02734 170.465 5.24609C172.353 4.45182 174.358 4.05469 176.48 4.05469C178.642 4.05469 180.673 4.41927 182.574 5.14844C184.475 5.8776 186.116 6.89323 187.496 8.19531C188.876 9.48438 189.964 11.0729 190.758 12.9609C191.552 14.849 191.949 16.9062 191.949 19.1328ZM213.395 15.4219V33H211.988V15.4219C211.988 15.0443 211.923 14.7253 211.793 14.4648C211.676 14.1914 211.52 13.9831 211.324 13.8398C211.129 13.6966 210.868 13.5859 210.543 13.5078C210.23 13.4167 209.924 13.3646 209.625 13.3516C209.326 13.3255 208.954 13.3125 208.512 13.3125C208.069 13.3125 207.698 13.3255 207.398 13.3516C207.099 13.3646 206.786 13.4167 206.461 13.5078C206.148 13.5859 205.895 13.6966 205.699 13.8398C205.504 13.9831 205.341 14.1914 205.211 14.4648C205.094 14.7253 205.035 15.0443 205.035 15.4219V33H203.629V15.4219C203.629 13.0781 205.257 11.9062 208.512 11.9062C211.767 11.9062 213.395 13.0781 213.395 15.4219ZM216.207 15.4219V33H214.801V15.4219C214.801 13.7682 214.215 12.5378 213.043 11.7305C211.884 10.9102 210.374 10.5 208.512 10.5C206.65 10.5 205.133 10.9102 203.961 11.7305C202.802 12.5378 202.223 13.7682 202.223 15.4219V33H200.816V15.4219C200.816 14.0547 201.168 12.8828 201.871 11.9062C202.574 10.9297 203.492 10.2201 204.625 9.77734C205.771 9.32161 207.066 9.09375 208.512 9.09375C209.957 9.09375 211.246 9.32161 212.379 9.77734C213.525 10.2201 214.449 10.9297 215.152 11.9062C215.855 12.8828 216.207 14.0547 216.207 15.4219ZM219.02 15.4219V33H217.613V15.4219C217.613 14.1979 217.372 13.0911 216.891 12.1016C216.422 11.112 215.771 10.2982 214.938 9.66016C214.104 9.02214 213.141 8.53385 212.047 8.19531C210.953 7.85677 209.775 7.6875 208.512 7.6875C207.249 7.6875 206.07 7.85677 204.977 8.19531C203.883 8.53385 202.919 9.02214 202.086 9.66016C201.253 10.2982 200.595 11.112 200.113 12.1016C199.645 13.0911 199.41 14.1979 199.41 15.4219V33H198.004V15.4219C198.004 14.0026 198.277 12.7135 198.824 11.5547C199.384 10.3958 200.139 9.4388 201.09 8.68359C202.04 7.91536 203.154 7.32292 204.43 6.90625C205.706 6.48958 207.066 6.28125 208.512 6.28125C209.957 6.28125 211.318 6.48958 212.594 6.90625C213.87 7.32292 214.983 7.91536 215.934 8.68359C216.884 9.4388 217.633 10.3958 218.18 11.5547C218.74 12.7135 219.02 14.0026 219.02 15.4219ZM221.832 33H220.426V15.4219C220.426 14.0026 220.107 12.6419 219.469 11.3398C218.844 10.0378 217.997 8.91797 216.93 7.98047C215.862 7.02995 214.592 6.27474 213.121 5.71484C211.65 5.15495 210.113 4.875 208.512 4.875C206.311 4.875 204.312 5.29167 202.516 6.125C200.732 6.94531 199.299 8.16927 198.219 9.79688C197.138 11.4115 196.598 13.2865 196.598 15.4219V33H195.191V15.4219C195.191 13.625 195.543 11.9714 196.246 10.4609C196.949 8.95052 197.9 7.6875 199.098 6.67188C200.309 5.65625 201.721 4.86849 203.336 4.30859C204.964 3.7487 206.689 3.46875 208.512 3.46875C211.741 3.46875 214.54 4.28255 216.91 5.91016C219.28 4.28255 222.079 3.46875 225.309 3.46875C227.132 3.46875 228.85 3.7487 230.465 4.30859C232.092 4.86849 233.505 5.65625 234.703 6.67188C235.914 7.6875 236.871 8.95052 237.574 10.4609C238.277 11.9714 238.629 13.625 238.629 15.4219V33H237.223V15.4219C237.223 13.2995 236.682 11.431 235.602 9.81641C234.521 8.1888 233.082 6.95833 231.285 6.125C229.501 5.29167 227.509 4.875 225.309 4.875C222.548 4.875 220.139 5.52604 218.082 6.82812C218.382 7.08854 218.714 7.42708 219.078 7.84375C220.862 6.80208 222.939 6.28125 225.309 6.28125C226.754 6.28125 228.115 6.48958 229.391 6.90625C230.667 7.32292 231.78 7.91536 232.73 8.68359C233.681 9.4388 234.43 10.3958 234.977 11.5547C235.536 12.7135 235.816 14.0026 235.816 15.4219V33H234.41V15.4219C234.41 14.1979 234.169 13.0911 233.688 12.1016C233.219 11.112 232.568 10.2982 231.734 9.66016C230.901 9.02214 229.938 8.53385 228.844 8.19531C227.75 7.85677 226.572 7.6875 225.309 7.6875C223.238 7.6875 221.448 8.11068 219.938 8.95703C220.172 9.32161 220.406 9.72526 220.641 10.168C221.917 9.45182 223.473 9.09375 225.309 9.09375C226.754 9.09375 228.043 9.32161 229.176 9.77734C230.322 10.2201 231.246 10.9297 231.949 11.9062C232.652 12.8828 233.004 14.0547 233.004 15.4219V33H231.598V15.4219C231.598 13.7682 231.012 12.5378 229.84 11.7305C228.681 10.9102 227.171 10.5 225.309 10.5C223.616 10.5 222.242 10.8125 221.188 11.4375C221.357 11.9323 221.487 12.401 221.578 12.8438C222.398 12.2188 223.642 11.9062 225.309 11.9062C228.564 11.9062 230.191 13.0781 230.191 15.4219V33H228.785V15.4219C228.785 15.0443 228.72 14.7253 228.59 14.4648C228.473 14.1914 228.316 13.9831 228.121 13.8398C227.926 13.6966 227.665 13.5859 227.34 13.5078C227.027 13.4167 226.721 13.3646 226.422 13.3516C226.122 13.3255 225.751 13.3125 225.309 13.3125C224.866 13.3125 224.495 13.3255 224.195 13.3516C223.896 13.3646 223.583 13.4167 223.258 13.5078C222.945 13.5859 222.691 13.6966 222.496 13.8398C222.301 13.9831 222.138 14.1914 222.008 14.4648C221.891 14.7253 221.832 15.0443 221.832 15.4219V33ZM250.582 4.875H251.988V33H250.582V4.875ZM247.77 4.875H249.176V33H247.77V4.875ZM244.957 4.875H246.363V33H244.957V4.875ZM242.145 4.875H243.551V33H242.145V4.875Z" fill="#73799B"/>
</svg>
