<svg width="56" height="55" viewBox="0 0 56 55" fill="none" xmlns="http://www.w3.org/2000/svg">
<path d="M3.14881 34.9662C-1.0496 30.8427 -1.0496 24.1573 3.14881 20.0338L20.3981 3.09258C24.5965 -1.03086 31.4035 -1.03086 35.6019 3.09258L52.8512 20.0338C57.0496 24.1573 57.0496 30.8427 52.8512 34.9662L35.6019 51.9074C31.4035 56.0309 24.5965 56.0309 20.3981 51.9074L3.14881 34.9662Z" fill="#E6B91A"/>
<path d="M27.9584 35.4376C32.0891 35.4376 35.4376 32.0891 35.4376 27.9584C35.4376 23.8278 32.0891 20.4792 27.9584 20.4792C23.8278 20.4792 20.4792 23.8278 20.4792 27.9584C20.4792 32.0891 23.8278 35.4376 27.9584 35.4376Z" stroke="#040610" stroke-width="3"/>
<path d="M27.9585 13V15.9917" stroke="#040610" stroke-width="3" stroke-linecap="round"/>
<path d="M27.9585 39.925V42.9167" stroke="#040610" stroke-width="3" stroke-linecap="round"/>
<path d="M15.9917 27.9584H13" stroke="#040610" stroke-width="3" stroke-linecap="round"/>
<path d="M42.9167 27.9584H39.925" stroke="#040610" stroke-width="3" stroke-linecap="round"/>
<path d="M39.5928 16.3247L36.269 19.3636" stroke="#040610" stroke-width="3" stroke-linecap="round"/>
<path d="M16.324 16.3247L19.6477 19.3636" stroke="#040610" stroke-width="3" stroke-linecap="round"/>
<path d="M19.6481 36.2688L16.324 39.5928" stroke="#040610" stroke-width="3" stroke-linecap="round"/>
<path d="M39.5928 39.592L36.269 36.2679" stroke="#040610" stroke-width="3" stroke-linecap="round"/>
</svg>
